<svg width="102px" height="89px" viewBox="0 0 102 89" version="1.1" xmlns="http://www.w3.org/2000/svg" xmlns:xlink="http://www.w3.org/1999/xlink">
    <defs>
        <polygon id="path-1" points="0.0136283186 0.162044666 76.8131271 0.162044666 76.8131271 88.9862725 0.0136283186 88.9862725"></polygon>
    </defs>
    <g id="Homepage" stroke="none" stroke-width="1" fill="none" fill-rule="evenodd">
        <g id="Home---Desktop-1440px-Copy" transform="translate(-80.000000, -14.000000)">
            <g id="born_logo_red-copy" transform="translate(80.000000, 14.000000)">
                <path d="M101.99761,50.5656217 C101.997375,53.2975575 101.274892,54.0165731 98.4976524,53.9997121 C97.9295004,53.9962476 97.3540554,53.9389665 96.7957843,53.8350292 C95.671008,53.6255376 95.072978,52.6321274 95.0673317,50.966127 C95.0543925,47.1269119 95.0402769,30.646373 95.0696843,27.6587513 C95.0762716,26.9880089 94.8466582,26.7935305 94.176874,26.7967641 C89.1227914,26.8210162 87.4952653,26.8133941 82.4411826,26.814549 C79.7427546,26.8150109 78.993688,26.0867565 79.00004,23.4282698 C79.0014515,22.8700106 79.0461509,22.3036675 79.1510767,21.7558021 C79.2981139,20.9882825 79.9147294,19.9999536 82.414363,20.0121952 C88.7042645,19.9957962 91.5676095,19.997182 97.857511,20.0089616 C98.536235,20.0103474 99.22037,20.0722479 99.891801,20.1713348 C101.325708,20.383367 101.985141,21.1640521 101.990552,22.694472 C102.006079,26.9501295 101.997845,46.4727994 101.99761,50.5656217" id="Fill-1" fill="#D82237"></path>
                <g id="Group-7">
                    <mask id="mask-2" fill="white">
                        <use xlink:href="#path-1"></use>
                    </mask>
                    <g id="Clip-3"></g>
                    <path d="M0.0322536873,50.2822545 C0.032480826,52.9884036 0.72979646,53.7006324 3.41116814,53.6839306 C3.95970796,53.6804987 4.51528909,53.6237584 5.05428909,53.5208021 C6.14023894,53.3132879 6.71762537,52.3292545 6.7230767,50.6789794 C6.73556932,46.8760026 6.74942478,30.5510231 6.72080531,27.5916015 C6.71444543,26.9271902 6.93613274,26.7345476 7.58279646,26.7377506 C12.4624159,26.7617738 14.0337611,26.7542237 18.9133805,26.7553676 C21.5186608,26.7558252 22.2418702,26.0344447 22.2357375,23.4010514 C22.2343746,22.8480617 22.1912183,22.2870643 22.0899145,21.7443702 C21.9481799,20.9840951 21.3526224,20.0050951 18.9392743,20.0172211 C12.8664956,20.0009769 10.1019912,20.0023496 4.02921239,20.014018 C3.37414454,20.0153907 2.71362537,20.0767069 2.06514454,20.1748586 C0.680734513,20.3848895 0.0440648968,21.1582057 0.038840708,22.6741799 C0.0238495575,26.8896684 0.03179941,46.2280643 0.0322536873,50.2822545" id="Fill-2" fill="#D82237" mask="url(#mask-2)"></path>
                    <path d="M53.6742242,48.1185707 C53.7216962,48.1153676 53.8772861,48.0972931 53.877059,48.02591 C53.877059,47.9902185 52.6050826,47.2338329 52.2303038,47.2464165 C51.8491652,47.2594576 51.1370855,48.0680077 51.1370855,48.1517455 C51.1997758,48.2043676 51.264056,48.2256452 51.3267463,48.2242725 C51.6383805,48.2169512 53.2899056,48.1437378 53.6742242,48.1185707 Z M63.3755428,5.58938303 C63.2785546,5.54431105 63.102295,5.4928329 63.1286431,5.79003342 C63.133413,5.84288432 63.1595339,5.94309512 63.1972389,5.99548843 C63.3893982,6.26317481 64.7456431,7.9626401 65.3218938,8.44058612 C65.7107552,8.76295373 67.0819912,9.60605141 68.4863894,10.6314961 C68.6606047,10.7589332 68.7903009,10.495365 68.6510649,10.3265167 C68.4030295,10.0254267 63.515233,5.59281491 63.3755428,5.58938303 Z M34.3451799,12.0284987 C34.3006608,12.0053907 32.9060295,12.9146093 32.6366431,13.3470257 C32.0097404,14.3530231 31.4450737,15.403635 30.9564985,16.4812442 C29.4726018,19.752509 28.8911268,23.2063496 29.0646608,26.7919743 C29.0739735,26.9857609 29.1493835,27.1866401 29.2361504,27.3634961 C29.3145133,27.5236504 29.4666962,27.5419537 29.6013894,27.4058226 C29.7051917,27.301036 29.7910501,27.1777172 29.8959882,27.0738458 C30.4602006,26.5146787 30.9792124,25.8925938 31.609295,25.4212828 C32.1789587,24.9950437 32.4233599,24.5907686 32.3652124,23.8346118 C32.2732212,22.6403188 32.6050708,21.4693625 33.0277758,20.3565193 C33.5808584,18.900946 34.1989027,17.4700823 34.8114956,16.0383033 C34.9375575,15.7440771 34.9180236,15.5081928 34.8603304,15.190401 C34.7937788,14.8259357 34.3896991,12.0518355 34.3451799,12.0284987 Z M74.0065398,26.8141671 C74.0630973,25.8500386 73.6771888,24.9948149 73.3548791,24.1283805 C73.1547699,23.5902622 73.0995752,23.589347 72.7038997,23.9883599 C71.9550236,24.743144 71.1736667,25.4576607 70.2435339,25.9831954 C70.0252537,26.1065141 69.8792035,26.3293573 69.8519469,26.5801131 C69.7367876,27.6316401 69.6461593,28.6895733 69.4560442,29.7282879 C69.0819469,31.7727712 68.5256844,33.7522776 67.0361091,35.3128663 C66.9057316,35.449455 66.8841534,35.587874 66.9652419,35.7665604 C67.5219587,36.9956298 67.8649381,38.2786941 67.9280826,39.6345141 C67.9428466,39.9520771 68.023708,40.0021825 68.3089941,39.9154704 C68.8436785,39.7530283 70.1079322,38.3416118 70.3334808,38.001856 C72.5837434,34.614365 73.744649,30.8640103 74.0065398,26.8141671 Z M29.7542537,29.3031928 C29.836705,29.8726555 29.898941,30.4460077 30.0056962,31.0108946 C30.2650885,32.380671 30.5226637,33.7563959 31.0886932,35.0387738 C31.9724897,37.0411594 33.1708732,38.8442674 34.5995752,40.4940848 C35.6128407,41.6643548 35.6157935,41.6549743 37.0846991,42.1107275 C37.4249528,42.2162005 37.6634484,42.175018 37.9292006,41.9263213 C38.753941,41.1548355 39.6041209,40.4110334 40.4436254,39.6557918 C40.9031268,39.2421362 40.9015369,39.2419075 40.618295,38.6946375 C39.3576755,36.2612082 38.4625221,33.7207044 38.4127788,30.9399692 C38.4068732,30.6013573 38.2387906,30.4613368 37.9721298,30.3142237 C37.3922448,29.9936864 36.8080442,29.6683445 36.2749499,29.276653 C35.0717965,28.3926015 34.0937375,27.2793008 33.2169823,26.0731105 C32.8278938,25.5379666 32.7981386,25.5070797 32.3009322,25.9628329 C31.5933953,26.6116864 30.9353746,27.3149923 30.2510059,27.989928 C29.8830413,28.3527918 29.7045103,28.7765141 29.7542537,29.3031928 Z M35.180823,11.5548997 C35.3223304,12.3387404 35.3993304,13.7979743 35.5694572,14.5756375 C35.6857522,15.1073496 35.7298171,15.0863008 36.2535988,14.9835733 C37.5932625,14.7209203 42.1794189,14.2146041 43.1447581,14.2834704 C43.5313481,14.3109254 43.7176018,14.2660823 43.9467847,13.9700257 C44.0871563,13.7888226 44.2211681,13.6021285 44.3697168,13.4277892 C45.9481032,11.5734319 47.7624867,10.0277147 49.9028142,8.91921851 C50.6921209,8.51036761 50.5980855,8.66525964 50.3911622,7.61327506 C50.2214897,6.75164524 50.0379617,5.89138817 49.8555693,5.03227506 C49.7045221,4.32256298 49.74359,4.29076093 49.1487139,4.27062725 C47.6913923,4.22120823 44.6565929,4.1191671 44.1798289,4.24729049 C42.320472,4.74697172 40.5340265,5.57268123 39.0485398,6.80747044 C38.5665516,7.20785604 35.1801416,10.0858278 35.180823,11.5548997 Z M72.7016283,22.4813085 C72.4824395,20.446892 72.2846018,18.488892 72.0533746,16.5350103 C71.9956814,16.0465398 71.7917109,15.5880411 71.4778053,15.2112211 C69.5955074,12.9523599 67.4508643,10.9838355 65.0575044,9.28871722 C64.8003835,9.10659897 64.6182183,9.11986889 64.3710914,9.30152956 C63.3282979,10.0675244 62.2705133,10.812928 61.2209056,11.5697712 C60.7957021,11.8763522 60.7959292,11.8827584 61.0737198,12.3055656 C61.5959115,13.1001594 61.9993097,13.9526375 62.3079912,14.8522468 C62.8551681,16.4462391 63.0764012,18.1040643 63.1890619,19.7726427 C63.2247227,20.3004653 63.4409587,20.5530514 63.8600295,20.7948843 C65.8849705,21.9635527 67.7920265,23.2921465 69.316354,25.104635 C69.5173717,25.3434936 69.6777316,25.3304524 69.9253127,25.1776195 C70.8797493,24.5893959 71.6776873,23.8201979 72.435649,23.0063856 C72.573295,22.8583573 72.6278083,22.6320823 72.7016283,22.4813085 Z M67.0635929,39.8546118 C67.0140767,38.5504987 66.7540029,37.5094961 66.3449263,36.5041851 C66.1641239,36.0594139 66.1616254,36.0797763 65.6948555,36.2655553 C65.2328555,36.4497326 64.7647227,36.6327661 64.2836431,36.7510514 C62.4638083,37.197653 60.6217139,37.1457172 58.7812094,36.9153239 C58.3560059,36.8620154 58.0720826,36.9512442 57.771351,37.284365 C56.0033038,39.2416787 54.1334985,41.0887147 51.8471209,42.443162 C51.5325339,42.6293985 51.495056,42.8796967 51.5284454,43.1970308 C51.6447404,44.3036967 51.9806785,45.3417249 52.5128643,46.3106581 C52.6193923,46.5046735 52.8215457,46.6982314 53.0236991,46.7767069 C53.8661563,47.1045656 54.7213333,47.4017661 55.5817345,47.6783753 C55.7961534,47.7474704 56.05759,47.7431234 56.2813215,47.6957635 C59.3987994,47.0366144 62.2173628,45.7011568 64.8199174,43.8685347 C65.5063304,43.3850977 66.0214808,42.7792571 66.380587,42.0272185 C66.7417375,41.2710617 66.9688761,40.4764679 67.0635929,39.8546118 Z M62.3870354,19.931653 C62.2532507,18.957 62.1476313,17.9775424 61.9786401,17.0090668 C61.7271976,15.570653 61.244528,14.2143753 60.4765723,12.9619692 C60.0752183,12.3078535 59.4976047,11.7793445 58.8232301,11.419455 C56.5459381,10.2034267 54.0435516,9.70305913 51.5545664,9.30175835 C51.3003982,9.26080463 51.0023923,9.35438046 50.7638968,9.46786118 C48.2783186,10.6481979 46.2649617,12.416072 44.5586962,14.5641979 C44.358587,14.8158689 44.2924897,15.0689126 44.3313304,15.3867044 C44.6674956,18.1468483 45.4088761,20.8111285 46.1931858,23.4660283 C46.2801799,23.7600257 46.4616637,23.8897506 46.7501298,23.9448895 C46.9590973,23.9846992 47.1687463,24.019018 47.3749882,24.0702674 C50.032056,24.729874 52.6963923,25.3741517 55.1433569,26.6526401 C55.4688466,26.8228612 55.6621416,26.6764344 55.8733805,26.4837918 C57.8967316,24.6385861 59.915767,22.788347 61.9477493,20.9527506 C62.2643805,20.6667609 62.4531327,20.3709332 62.3870354,19.931653 Z M50.7925162,41.9938149 C50.9024513,41.9432519 51.1425369,41.8572262 51.3580914,41.7293316 C53.6122153,40.3915861 55.4424985,38.5587352 57.2014602,36.6426041 C57.3979351,36.4286838 57.435413,36.2030951 57.3720413,35.9253419 C57.1862419,35.1101568 57.0320147,34.2876504 56.8380383,33.4745244 C56.4366844,31.7940488 56.0114808,30.1195219 55.6101268,28.4390463 C55.4976932,27.9684216 55.2478407,27.6385039 54.8112802,27.4422005 C54.1882389,27.1619306 53.5804159,26.8425373 52.9437463,26.5991028 C51.0414602,25.8722314 49.0589941,25.4235707 47.0971976,24.8973496 C46.301531,24.6841157 45.7023392,24.8227635 45.1254071,25.3389177 C45.0427286,25.4128175 44.9457404,25.4700154 44.8616991,25.5423136 C43.3612212,26.8347584 41.8414366,28.1054679 40.3682153,29.4287995 C39.1007817,30.5672674 39.1425752,30.5915193 39.3758466,32.3163805 C39.661587,34.4283573 40.4145516,36.3705707 41.3644454,38.2571877 C41.7056077,38.9348689 42.1732861,39.4443882 42.8149528,39.8132005 C43.0232389,39.9330874 43.228118,40.0600668 43.4414012,40.1698869 C45.7037021,41.3330643 48.146351,41.7716581 50.7925162,41.9938149 Z M51.1370855,51.0214807 C47.5739617,51.03109 43.7012478,50.0209743 40.5065428,48.4622159 C35.0865605,45.8178406 31.1166313,41.7023342 28.5501917,36.2259743 C27.4960413,33.9769512 26.8773156,31.5899666 26.4602891,29.1368612 C26.1893127,27.5440129 26.1665988,25.9511645 26.2267906,24.3567147 C26.3087876,22.1724396 26.7698791,20.0449049 27.4160885,17.9622134 C28.6578555,13.9601877 30.7793304,10.4848406 33.7405369,7.55127249 C37.2203009,4.10383805 41.3614926,1.86305141 46.1341298,0.782239075 C48.7385015,0.192413882 51.3680855,0.0109820051 54.0026667,0.291023136 C56.840764,0.592570694 59.5877788,1.32607712 62.1862448,2.56567095 C67.5349056,5.11715681 71.5643451,9.04116452 74.2061947,14.3688098 C75.8870206,17.7585887 76.7483304,21.365491 76.8096578,25.1725861 C76.8728024,29.1153548 76.0739558,32.8606761 74.4142537,36.4158715 C72.5539882,40.4011954 69.8262802,43.6710874 66.2720147,46.2431645 C62.8272301,48.7358509 58.9985811,50.2586889 54.7985605,50.7839949 C53.7080678,50.9205835 53.2240354,51.0217095 51.1370855,51.0214807 Z" id="Fill-4" fill="#D82237" mask="url(#mask-2)"></path>
                    <path d="M15.4808614,79.041838 C15.4808614,78.424329 15.4102212,77.9358586 15.2700767,77.575054 C15.1294779,77.2151645 14.8930265,76.957545 14.561177,76.8031105 C14.0498879,76.5976555 13.3350826,76.4944704 12.4153982,76.4944704 C11.4957139,76.4944704 10.8061209,76.3146401 10.3461652,75.9540643 C9.88620944,75.593946 9.65634513,74.8540334 9.65634513,73.7345553 C9.65634513,72.6153059 9.89234218,71.8758509 10.3652448,71.5152751 C10.8376932,71.1551568 11.6233658,70.9748689 12.7220354,70.9748689 C13.7434779,70.9748689 14.3565251,70.7046658 14.561177,70.1644884 C14.6379499,69.881473 14.6761091,69.4183985 14.6761091,68.7748072 C14.6761091,68.1319023 14.4655516,67.6814113 14.0439823,67.4237918 C13.622413,67.1668586 12.9902861,67.0378201 12.1471475,67.0378201 L6.78235988,67.0378201 L6.78235988,81.6665373 L13.0668319,81.6665373 C14.6761091,81.6665373 15.4808614,80.7920951 15.4808614,79.041838 Z M20.0025103,73.3678021 C21.5095752,75.1695373 22.2634484,77.1893111 22.2634484,79.4278098 C22.2118879,82.0010308 21.337177,84.1562494 19.6384071,85.8927789 C17.93941,87.6297661 15.8765369,88.4984884 13.4500147,88.4984884 L3.37210029,88.4984884 C1.58361062,88.4984884 0.536501475,88.0097892 0.229864307,87.0317044 C0.0765457227,86.5944833 0,85.9254961 0,85.0245141 L0,63.6027404 C0,62.9852314 0.019079646,62.5351979 0.0574660767,62.2517249 C0.0958525074,61.9689383 0.216690265,61.6339871 0.421569322,61.2482442 C0.779085546,60.5534036 1.77531563,60.2060977 3.41048673,60.2060977 L13.0668319,60.2060977 C15.4168083,60.2060977 17.3836018,61.0297481 18.9678938,62.6763625 C20.6282773,64.3492879 21.4586962,66.3564781 21.4586962,68.6977044 C21.4586962,70.3957969 20.9730737,71.9531825 20.0025103,73.3678021 Z" id="Fill-5" fill="#D82237" mask="url(#mask-2)"></path>
                    <path d="M30.5074454,74.4486144 C30.5074454,76.7390488 31.2415575,78.597982 32.7106903,80.0261003 C34.1793687,81.4542185 35.8206726,82.1682776 37.6346018,82.1682776 C39.4483038,82.1682776 41.0834749,81.4736658 42.5396608,80.0839846 C43.9956195,78.6945321 44.723826,76.828964 44.723826,74.4872802 C44.723826,72.146054 43.9890324,70.2674447 42.520354,68.8521388 C41.0509941,67.4370617 39.4099174,66.7289512 37.5964425,66.7289512 C35.7822861,66.7289512 34.1475693,67.4432391 32.6916106,68.8711285 C31.2354248,70.2994756 30.5074454,72.1586375 30.5074454,74.4486144 Z M37.4815103,59.8974576 C41.2617788,59.8974576 44.5446136,61.2740977 47.3295605,64.0273779 C50.1135988,66.7811157 51.5061858,70.1967481 51.5061858,74.2749614 C51.5061858,78.3536324 50.1776519,81.8276067 47.5210383,84.6964267 C44.8639705,87.5659332 41.5940826,89 37.7113746,89 C33.8279853,89 30.5265251,87.5851517 27.8058584,84.7543111 C25.0851917,81.9241568 23.7248584,78.5533676 23.7248584,74.6417147 C23.7248584,72.5061722 24.1080413,70.505617 24.8744071,68.6398201 C25.641,66.7742519 26.6624425,65.2111465 27.9400973,63.9500463 C29.2170708,62.6896324 30.6857493,61.6987352 32.3468142,60.9780411 C34.0069705,60.2578046 35.7186873,59.8974576 37.4815103,59.8974576 Z" id="Fill-6" fill="#D82237" mask="url(#mask-2)"></path>
                </g>
                <path d="M59.0676011,74.9334574 L64.1789489,74.9334574 C64.9505624,74.9334574 65.7224126,74.665779 66.4947362,74.1297725 C67.2665864,73.5941992 67.6528665,72.7905143 67.6528665,71.7185013 C67.6528665,70.6469215 67.2665864,69.8367396 66.4947362,69.2888219 C65.7224126,68.7406876 64.9238163,68.4667287 64.0989472,68.4667287 L59.0676011,68.4667287 L59.0676011,74.9334574 Z M74.4011711,84.2502246 C74.8004693,85.1271095 75,85.7605717 75,86.1499615 C75,87.0760074 74.1746576,87.8552201 72.5244461,88.4882492 C71.6721209,88.8291276 70.9871363,89 70.4678357,89 C69.9487718,89 69.5227275,88.8839194 69.1901763,88.6528411 C68.856915,88.4215461 68.6109928,88.1841873 68.4514629,87.9403314 C68.1849485,87.4779582 67.1468206,85.2732931 65.3368425,81.3272026 L64.0989472,81.4004027 L59.0676011,81.4004027 L59.0676011,85.5290603 C59.0676011,86.089539 59.047719,86.5096814 59.0079549,86.7894876 C58.9679541,87.069727 58.8410875,87.3921971 58.6285388,87.7577644 C58.2555134,88.4152657 57.2171488,88.7442329 55.5139185,88.7442329 C53.6502115,88.7442329 52.5590648,88.2935543 52.2395316,87.3921971 C52.079765,86.9783352 52,86.3453061 52,85.4922436 L52,65.214956 C52,64.6549105 52.0198821,64.2349846 52.0598829,63.9547453 C52.0998837,63.6747225 52.2258035,63.3518192 52.439299,62.9862519 C52.8116143,62.3287506 53.8499789,62 55.5539193,62 L64.1789489,62 C66.5210089,62 68.7970321,62.7798624 71.0070184,64.3382877 C72.071419,65.0934612 72.9497803,66.1165298 73.6423389,67.4072767 C74.3344242,68.6984568 74.6804668,70.1353873 74.6804668,71.7185013 C74.6804668,74.4710841 73.6823397,76.7363883 71.6858489,78.5139807 C72.2709497,79.8053773 73.1762938,81.717242 74.4011711,84.2502246 Z" id="Fill-8" fill="#D82237"></path>
                <path d="M95.7562656,63.0879497 C95.9936649,62.6581046 96.3499861,62.3688447 96.8250069,62.2214817 C97.2995832,62.0739001 97.8937483,62 98.6063907,62 C99.3188108,62 99.8936371,62.061875 100.331314,62.1845317 C100.768325,62.3076257 101.093526,62.4552073 101.306252,62.6270578 C101.518311,62.7993457 101.674799,63.0575589 101.775049,63.4016973 C101.92509,63.7952482 102,64.4223061 102,65.2828708 L102,85.7540792 C102,86.344187 101.981328,86.774688 101.943762,87.045145 C101.906418,87.3160392 101.787274,87.6352528 101.587441,88.0040975 C101.237121,88.6681054 100.262184,89 98.6626285,89 C97.687691,89 97.0126146,88.9260999 96.6376216,88.7785183 C96.2626285,88.6311553 95.9496527,88.3978671 95.7000278,88.0777789 C90.075132,80.7008851 86.3747708,75.8814165 84.6000556,73.6189358 L84.6000556,85.7540792 C84.6000556,86.344187 84.5813837,86.774688 84.5438177,87.045145 C84.5062517,87.3160392 84.3873298,87.6352528 84.1874965,88.0040975 C83.837177,88.6681054 82.8620172,89 81.2624618,89 C79.7120311,89 78.762434,88.6681054 78.412559,88.0040975 C78.2120589,87.6352528 78.0938038,87.3033581 78.0562378,87.0081949 C78.0186719,86.7132504 78,86.2831866 78,85.7173478 L78,65.1352892 C78,64.201043 78.1184774,63.5186694 78.3563212,63.0879497 C78.5934982,62.6581046 78.9498194,62.3688447 79.4250625,62.2214817 C79.8996388,62.0739001 80.5124757,62 81.2624618,62 C82.0124479,62 82.6061684,62.0679969 83.0438455,62.2028974 C83.4808558,62.3382352 83.7873854,62.492376 83.9625452,62.6640079 C84.0621284,62.7376894 84.3497638,63.0575589 84.8250069,63.6229604 C90.0995832,70.6806407 93.6247847,75.3402839 95.3999444,77.6025459 L95.3999444,65.1352892 C95.3999444,64.201043 95.5184218,63.5186694 95.7562656,63.0879497" id="Fill-9" fill="#D82237"></path>
            </g>
        </g>
    </g>
</svg>