<?xml version="1.0" encoding="utf-8"?>
<svg width="52px" height="52px" viewBox="0 0 52 52" version="1.1" xmlns="http://www.w3.org/2000/svg" xmlns:xlink="http://www.w3.org/1999/xlink">
    <g id="Homepage" stroke="none" stroke-width="1" fill="none" fill-rule="evenodd">
        <g id="Home---Desktop-1440px" transform="translate(-562.000000, -2290.000000)">
            <g id="Group-13-Copy" transform="translate(562.000000, 2290.000000)">
                <circle id="Oval" fill="#FFFFFF" fill-rule="nonzero" cx="26" cy="26" r="26"></circle>
                <path d="M29.530978,47.434198 C29.5738798,47.4309673 29.7144908,47.4127369 29.7142855,47.3407381 C29.7142855,47.3047387 28.564765,46.5418283 28.226067,46.5545204 C27.8816214,46.567674 27.2380952,47.3831989 27.2380952,47.467659 C27.2947502,47.5207351 27.352842,47.5421962 27.409497,47.5408117 C27.6911295,47.5334272 29.1836586,47.4595822 29.530978,47.434198 Z M39.8403789,4.98599157 C39.754359,4.94231373 39.5980323,4.89242786 39.6214007,5.18043558 C39.6256312,5.23165173 39.6487982,5.32876288 39.6822392,5.3795356 C39.8526675,5.63894208 41.055537,7.28584069 41.5666206,7.74900321 C41.9115063,8.06139957 43.1276716,8.87841914 44.3732489,9.87214552 C44.5277625,9.99564075 44.6427916,9.74022513 44.5193015,9.5765995 C44.299316,9.28482264 39.9642719,4.9893173 39.8403789,4.98599157 Z M6.95606391,12.3813676 C6.91850605,12.3591734 5.74194851,13.2324367 5.51468511,13.6477532 C4.98580908,14.6139683 4.50943742,15.6230335 4.09725903,16.6580285 C2.84539414,19.7999306 2.35484247,23.1171886 2.50124148,26.5610192 C2.50909797,26.7471425 2.5727164,26.9400779 2.6459159,27.1099401 C2.71202541,27.263761 2.84041198,27.2813406 2.95404368,27.1505928 C3.04161482,27.0499499 3.11404784,26.9315078 3.20257709,26.831744 C3.67856551,26.2946892 4.11642121,25.6972049 4.64797994,25.2445319 C5.12856729,24.8351485 5.33475229,24.4468605 5.28569712,23.7206061 C5.20809031,22.5735415 5.48804969,21.4488909 5.84465776,20.3800552 C6.31125672,18.9820429 6.8326595,17.6077628 7.34946336,16.2326038 C7.45581343,15.9500128 7.43933396,15.7234566 7.39066204,15.4182319 C7.33451687,15.0681795 6.99362177,12.4037815 6.95606391,12.3813676 Z M49.5179857,25.6025558 C49.5772062,24.5740451 49.173127,23.6617116 48.8356412,22.7374187 C48.6261098,22.1633662 48.5683163,22.1623899 48.1540102,22.5880479 C47.369873,23.3932347 46.5517255,24.1554651 45.5777971,24.7160938 C45.349239,24.8476475 45.1963121,25.0853716 45.167772,25.3528723 C45.0471904,26.4746177 44.9522948,27.6031972 44.7532281,28.7112747 C44.3615163,30.8922837 43.7790619,33.0039769 42.2193494,34.668778 C42.0828329,34.8144877 42.0602387,34.9621501 42.1451453,35.1527687 C42.7280754,36.4639124 43.087204,37.8326567 43.1533218,39.2790152 C43.168781,39.6177843 43.2534497,39.6712356 43.5521687,39.5787331 C44.1120289,39.4054434 45.4358105,37.8997759 45.6719792,37.537332 C48.0281963,33.9236324 49.2437636,29.9228379 49.5179857,25.6025558 Z M2.4853422,28.6005963 C2.57758078,29.198075 2.6472044,29.7996346 2.76663177,30.3923124 C3.05681487,31.829478 3.34496517,33.2728849 3.97818434,34.6183523 C4.96689051,36.7192499 6.30752628,38.6110659 7.90582024,40.3420499 C9.03936387,41.569894 9.04266718,41.560052 10.685937,42.038227 C11.06658,42.148889 11.3333858,42.1056804 11.6306837,41.8447486 C12.5533237,41.0353077 13.5044229,40.2549126 14.4435795,39.4625151 C14.9576254,39.0285088 14.9558467,39.0282688 14.638983,38.4540747 C13.2287236,35.9009272 12.2273124,33.2354375 12.1716643,30.3178976 C12.1650577,29.962627 11.9770231,29.8157178 11.6787088,29.6613671 C11.0299895,29.3250603 10.3764422,28.9837124 9.78006767,28.5727507 C8.43409579,27.6452064 7.33993779,26.4771342 6.35910874,25.2116027 C5.92383408,24.6501311 5.89054688,24.6177247 5.33432025,25.0958997 C4.54279629,25.776675 3.8066663,26.5145817 3.04106062,27.2227224 C2.62941734,27.6034381 2.42969412,28.0480064 2.4853422,28.6005963 Z M9.904762,11.6760249 C10.0416792,12.3911517 10.1161815,13.7224647 10.2807898,14.4319557 C10.3933125,14.9170563 10.435948,14.8978526 10.9427394,14.8041305 C12.2389475,14.5645025 16.6763394,14.1025715 17.6103653,14.1654008 C17.9844152,14.1904491 18.1646272,14.149537 18.3863759,13.8794336 C18.5221943,13.7141153 18.651859,13.5437874 18.7955891,13.3847312 C20.3227763,11.6929324 22.0783054,10.2827174 24.1492055,9.2713954 C24.9129089,8.8983856 24.8219238,9.03969933 24.6217126,8.07993489 C24.4575439,7.29383814 24.2799691,6.5089938 24.1034931,5.72519313 C23.9573456,5.07769655 23.9951461,5.04868236 23.4195665,5.03031366 C22.0095171,4.98522686 19.0731596,4.89213096 18.6118608,5.00902267 C16.8128171,5.46490034 15.0843199,6.21822567 13.6470189,7.34476953 C13.1806653,7.71005612 9.90410269,10.3357362 9.904762,11.6760249 Z M49.5238095,21.7449493 C49.2942348,19.5588079 49.0870228,17.4547821 48.8448393,15.3551816 C48.7844124,14.8302815 48.5707771,14.3375884 48.2419975,13.9326654 C46.2705098,11.5053405 44.0242461,9.39000529 41.5174805,7.56846668 C41.2481763,7.37276621 41.0573795,7.38702579 40.7985429,7.58223455 C39.7063383,8.4053566 38.5984321,9.20635172 37.4990904,10.0196396 C37.0537392,10.3490851 37.0539771,10.355969 37.3449304,10.8103088 C37.8918653,11.6641627 38.314378,12.5802179 38.6376858,13.5469192 C39.2107899,15.25979 39.4425058,17.0412542 39.5605048,18.8342737 C39.5978553,19.4014608 39.8243373,19.6728846 40.2632651,19.9327532 C42.3841548,21.1885798 44.3815738,22.6162589 45.9781292,24.5639211 C46.1886718,24.8205935 46.3566301,24.8065798 46.6159424,24.6423488 C47.6156035,24.0102559 48.4513506,23.1836919 49.2452271,22.3091862 C49.3893953,22.1501181 49.4464916,21.9069677 49.5238095,21.7449493 Z M42.0952381,41.1098544 C42.0400258,39.7167134 41.7500343,38.6046447 41.2938993,37.530704 C41.0922983,37.0555696 41.0895123,37.0773221 40.5690473,37.2757836 C40.053901,37.4725343 39.5319164,37.6680628 38.9954955,37.7944232 C36.9663152,38.2715129 34.9123147,38.2160316 32.8600871,37.9699101 C32.3859701,37.9129624 32.0693856,38.0082825 31.7340592,38.3641445 C29.7626239,40.4550781 27.6777248,42.4282058 25.1283328,43.8751172 C24.7775571,44.0740675 24.735768,44.3414528 24.7729983,44.6804505 C24.9026713,45.8626651 25.2772542,46.9715565 25.8706602,48.0066358 C25.9894427,48.2138961 26.2148509,48.4206676 26.4402591,48.5045004 C27.3796288,48.854741 28.3331814,49.1722305 29.2925592,49.467723 C29.5316439,49.5415351 29.8231549,49.5368913 30.0726235,49.4862983 C33.5487218,48.782151 36.6915199,47.3555257 39.5934604,45.3977959 C40.3588352,44.8813561 40.9332462,44.2341565 41.3336623,43.4307785 C41.7363579,42.6230011 41.9896255,41.7741627 42.0952381,41.1098544 Z M37.1284505,20.4819569 C36.9818637,19.5130292 36.8661372,18.5393252 36.6809749,17.5765386 C36.4054713,16.1465742 35.8766139,14.7982636 35.0351707,13.5532143 C34.5954102,12.9029411 33.9625234,12.3775366 33.2236163,12.0197612 C30.7284048,10.8108761 27.9865592,10.3134478 25.2593971,9.9145043 C24.980907,9.87379115 24.6543842,9.9668173 24.3930664,10.0796314 C21.6696374,11.2530347 19.4636176,13.0105239 17.5940756,15.1460313 C17.3748175,15.3962239 17.3023952,15.6477812 17.3449527,15.9637062 C17.7132863,18.7076366 18.5256113,21.3562663 19.3849734,23.9955706 C19.4802922,24.2878411 19.6791426,24.416804 19.9952127,24.4716189 C20.2241768,24.5111948 20.4538876,24.545312 20.6798652,24.5962603 C23.5911942,25.2519923 26.510487,25.8924854 29.1916074,27.1634637 C29.548244,27.3326849 29.7600358,27.1871183 29.9914887,26.9956072 C32.208459,25.1612407 34.4207006,23.3218702 36.6471281,21.4970565 C36.9940585,21.2127467 37.2008729,20.9186567 37.1284505,20.4819569 Z M24.9796869,42.0952381 C25.0996541,42.0442614 25.3616486,41.9575319 25.5968736,41.828591 C28.0566972,40.4799011 30.0540026,38.6320552 31.973478,36.7002478 C32.1878822,36.4845773 32.2287801,36.2571431 32.1596255,35.9771175 C31.956871,35.1552632 31.7885699,34.3260276 31.5768922,33.5062493 C31.1389127,31.8120253 30.6749073,30.1237986 30.2369278,28.4295747 C30.1142341,27.9550997 29.8415813,27.6224828 29.3651826,27.4245735 C28.6852857,27.1420106 28.0219959,26.8200043 27.3272271,26.5745782 C25.2513482,25.8417601 23.0879724,25.3894288 20.9471526,24.8589026 C20.0788775,24.6439241 19.4250066,24.7837062 18.7954266,25.3040833 C18.7052033,25.3785876 18.5993644,25.4362535 18.507654,25.5091432 C16.8702502,26.8121617 15.2117778,28.0932672 13.604118,29.4274253 C12.2210249,30.5752072 12.2666323,30.5996576 12.5211908,32.3386303 C12.8330064,34.4678857 13.6546827,36.4259888 14.6912589,38.3280406 C15.0635539,39.0112661 15.5739103,39.5249539 16.2741321,39.8967836 C16.5014254,40.0176513 16.7250006,40.1456696 16.957747,40.2563881 C19.4264938,41.4290817 22.0920463,41.8712638 24.9796869,42.0952381 Z M25.6207339,51.9999305 C21.9600219,52.0097552 17.9812408,50.9769883 14.699038,49.3832756 C9.13061132,46.6796017 5.05195228,42.4718073 2.4152222,36.8726431 C1.33220031,34.5731869 0.696528763,32.1326755 0.268080542,29.6245606 C-0.0103174571,27.9959935 -0.0336534168,26.3674265 0.0281868765,24.737222 C0.112429691,22.5039657 0.586149673,20.3287223 1.25005773,18.1993275 C2.52583464,14.1075586 4.70541328,10.5542789 7.74772235,7.55492714 C11.3227914,4.0301859 15.5774036,1.73915087 20.4807554,0.634101922 C23.1564565,0.0310502286 25.8580606,-0.154450157 28.5647986,0.131870741 C31.4806267,0.440180334 34.3028777,1.19013523 36.9725115,2.45752626 C42.4676633,5.06622777 46.6074625,9.07822916 49.321668,14.5253439 C51.048529,17.9911367 51.9334286,21.6789218 51.9964357,25.5713889 C52.0613097,29.6025719 51.240584,33.43188 49.5354254,37.0667986 C47.6242103,41.1414912 44.8217949,44.4847087 41.1701839,47.1144632 C37.6310523,49.6630467 33.6975429,51.2200336 29.3824906,51.7571192 C28.2621312,51.8967708 27.7648419,52.0001644 25.6207339,51.9999305 Z" id="Fill-4" fill="#EA1433"></path>
            </g>
        </g>
    </g>
</svg>