<svg width="12px" height="30px" viewBox="0 0 12 30" version="1.1" xmlns="http://www.w3.org/2000/svg" xmlns:xlink="http://www.w3.org/1999/xlink">
    <g id="Homepage" stroke="none" stroke-width="1" fill="none" fill-rule="evenodd">
        <g id="Home---Desktop-1440px-Copy" transform="translate(-913.000000, -73.000000)" fill="#F20D33">
            <g id="Group-18" transform="translate(816.000000, 73.000000)">
                <g id="Group-28" transform="translate(97.000000, 0.000000)">
                    <g id="Group">
                        <path d="M1.10704865,8.00078243 C0.498474666,7.97554979 0,8.5638048 0,9.30284767 L0,28.6988468 C0,29.4175211 0.48003303,30 1.07236736,30 L10.9270821,30 C12,29.9775034 12,28.6568937 12,28.6568937 L11.9969723,26.8860485 C11.9969723,26.8860485 12,25.4724124 10.9270821,25.4724124 L4.35965777,25.4724124 C4.01256967,25.4724124 3.73126591,25.1310117 3.73126591,24.709657 L3.73126591,9.30284767 C3.73126591,7.75544817 2.45218708,8.05671986 1.10704865,8.00078243" id="Fill-16"></path>
                        <path d="M1.10704865,21.9992176 C0.498199417,22.0244502 0,21.4361952 0,20.6971523 L0,1.30115321 C0,0.582478869 0.48003303,0 1.07236736,0 L10.9270821,0 C12,0.0221925665 12,1.34310629 12,1.34310629 L11.996697,3.11395149 C11.996697,3.11395149 12,4.52758757 10.9270821,4.52758757 L4.35965777,4.52758757 C4.01256967,4.52758757 3.73126591,4.86898829 3.73126591,5.29034305 L3.73126591,20.6971523 C3.73126591,22.2445518 2.45218708,21.9432801 1.10704865,21.9992176" id="Fill-17"></path>
                    </g>
                </g>
            </g>
        </g>
    </g>
</svg>