<svg width="44px" height="104px" viewBox="0 0 44 104" version="1.1" xmlns="http://www.w3.org/2000/svg" xmlns:xlink="http://www.w3.org/1999/xlink">
    <g id="Homepage" stroke="none" stroke-width="1" fill="none" fill-rule="evenodd">
        <g id="Home---Desktop-1440px" transform="translate(-521.000000, -984.000000)" fill="#EA1433">
            <g id="Group-18" transform="translate(521.000000, 984.000000)">
                <g id="Group-8">
                    <path d="M4.05917838,28.0027029 C1.82774044,27.9155356 0,29.9476893 0,32.5007465 L0,99.5051071 C0,101.9878 1.76012111,104 3.93201367,104 L40.0659678,104 C44,103.922285 44,99.3601783 44,99.3601783 L43.9888983,93.242713 C43.9888983,93.242713 44,88.3592429 40.0659678,88.3592429 L15.9854118,88.3592429 C14.7127555,88.3592429 13.6813083,87.1798586 13.6813083,85.7242695 L13.6813083,32.5007465 C13.6813083,27.1551846 8.99135262,28.1959413 4.05917838,28.0027029" id="Fill-16"></path>
                    <path d="M4.05917838,75.9972971 C1.8267312,76.0844644 0,74.0523107 0,71.4992535 L0,4.49489292 C0,2.01219973 1.76012111,0 3.93201367,0 L40.0659678,0 C44,0.0766652297 44,4.63982171 44,4.63982171 L43.9878891,10.757287 C43.9878891,10.757287 44,15.6407571 40.0659678,15.6407571 L15.9854118,15.6407571 C14.7127555,15.6407571 13.6813083,16.8201414 13.6813083,18.2757305 L13.6813083,71.4992535 C13.6813083,76.8448154 8.99135262,75.8040587 4.05917838,75.9972971" id="Fill-17"></path>
                </g>
            </g>
        </g>
    </g>
</svg>