<svg width="51px" height="422px" viewBox="0 0 51 422" version="1.1" xmlns="http://www.w3.org/2000/svg" xmlns:xlink="http://www.w3.org/1999/xlink">
    <g id="Homepage" stroke="none" stroke-width="1" fill="none" fill-rule="evenodd">
        <g id="Home---Desktop-1440px" transform="translate(-850.000000, -4389.000000)" fill="#F20D33">
            <g id="Group-40" transform="translate(850.000000, 4389.000000)">
                <g id="Group-12">
                    <path d="M4.70495676,334.134632 C2.11851733,334.033852 0,336.383356 0,339.33511 L0,416.803165 C0,419.673566 2.04014038,422 4.5575613,422 L46.4400991,422 C51,421.910148 51,416.635603 51,416.635603 L50.9871321,409.562808 C50.9871321,409.562808 51,403.916714 46.4400991,403.916714 L18.5285455,403.916714 C17.0534211,403.916714 15.8578801,402.553152 15.8578801,400.870251 L15.8578801,339.33511 C15.8578801,333.154761 10.4217951,334.358047 4.70495676,334.134632" id="Fill-16"></path>
                    <rect id="Rectangle" fill-rule="nonzero" x="0" y="16.1863014" width="16.2272727" height="394.252055"></rect>
                    <path d="M4.70495676,87.8653681 C2.11734752,87.9661478 0,85.6166441 0,82.6648904 L0,5.1968351 C0,2.32643366 2.04014038,0 4.5575613,0 L46.4400991,0 C51,0.0886376081 51,5.36439661 51,5.36439661 L50.9859623,12.437192 C50.9859623,12.437192 51,18.0832863 46.4400991,18.0832863 L18.5285455,18.0832863 C17.0534211,18.0832863 15.8578801,19.4468484 15.8578801,21.1297487 L15.8578801,82.6648904 C15.8578801,88.8452386 10.4217951,87.6419528 4.70495676,87.8653681" id="Fill-17"></path>
                </g>
            </g>
        </g>
    </g>
</svg>