<?xml version="1.0" encoding="utf-8"?>
<svg width="58px" height="136px" viewBox="0 0 58 136" version="1.1" xmlns="http://www.w3.org/2000/svg" xmlns:xlink="http://www.w3.org/1999/xlink">
    <g id="Homepage" stroke="none" stroke-width="1" fill="none" fill-rule="evenodd">
        <g id="Home---Desktop-1440px" transform="translate(-320.000000, -457.000000)" fill="#FFFFFF">
            <g id="Group-19" transform="translate(320.000000, 420.000000)">
                <g id="Group-6" transform="translate(0.000000, 37.000000)">
                    <path d="M5.35073514,37.0035209 C2.40929422,36.889974 0,39.5371216 0,42.8628145 L0,130.144811 C0,133.378845 2.32015964,136 5.18310893,136 L52.8142303,136 C58,135.898765 58,129.956022 58,129.956022 L57.985366,121.987218 C57.985366,121.987218 58,115.625856 52.8142303,115.625856 L21.0716792,115.625856 C19.3940867,115.625856 18.0344519,114.089553 18.0344519,112.193456 L18.0344519,42.8628145 C18.0344519,35.8995168 11.8522375,37.2552394 5.35073514,37.0035209" id="Fill-16"></path>
                    <path d="M5.35073514,98.9964791 C2.40796385,99.110026 0,96.4628784 0,93.1371855 L0,5.85518946 C0,2.62115491 2.32015964,0 5.18310893,0 L52.8142303,0 C58,0.0998665493 58,6.04397828 58,6.04397828 L57.9840356,14.0127817 C57.9840356,14.0127817 58,20.3741441 52.8142303,20.3741441 L21.0716792,20.3741441 C19.3940867,20.3741441 18.0344519,21.9104473 18.0344519,23.8065437 L18.0344519,93.1371855 C18.0344519,100.100483 11.8522375,98.7447606 5.35073514,98.9964791" id="Fill-17"></path>
                </g>
            </g>
        </g>
    </g>
</svg>