<?xml version="1.0" encoding="utf-8"?>
<svg width="26px" height="56px" viewBox="0 0 26 56" version="1.1" xmlns="http://www.w3.org/2000/svg" xmlns:xlink="http://www.w3.org/1999/xlink">
    <g id="Homepage" stroke="none" stroke-width="1" fill="none" fill-rule="evenodd">
        <g id="Home---Desktop-1440px" transform="translate(-630.000000, -5660.000000)" fill="#F20D33">
            <g id="Group-5" transform="translate(630.000000, 5660.000000)">
                <g id="Group-10">
                    <path d="M2.39860541,14.0014937 C1.08002844,13.9533223 0,15.0763546 0,16.4872546 L0,53.5159802 C0,54.8879949 1.04007156,56 2.32346262,56 L23.6753446,56 C26,55.957052 26,53.435888 26,53.435888 L25.9934399,50.0551835 C25.9934399,50.0551835 26,47.3564237 23.6753446,47.3564237 L9.44592518,47.3564237 C8.69390096,47.3564237 8.08440948,46.7046587 8.08440948,45.9002542 L8.08440948,16.4872546 C8.08440948,13.5331283 5.313072,14.1082834 2.39860541,14.0014937" id="Fill-16"></path>
                    <path d="M2.39860541,41.9985063 C1.07943207,42.0466777 0,40.9236454 0,39.5127454 L0,2.48401977 C0,1.11200511 1.04007156,0 2.32346262,0 L23.6753446,0 C26,0.042367627 26,2.564112 26,2.564112 L25.9928435,5.94481648 C25.9928435,5.94481648 26,8.64357628 23.6753446,8.64357628 L9.44592518,8.64357628 C8.69390096,8.64357628 8.08440948,9.29534128 8.08440948,10.0997458 L8.08440948,39.5127454 C8.08440948,42.4668717 5.313072,41.8917166 2.39860541,41.9985063" id="Fill-17"></path>
                </g>
            </g>
        </g>
    </g>
</svg>