<svg width="41px" height="280px" viewBox="0 0 41 280" version="1.1" xmlns="http://www.w3.org/2000/svg" xmlns:xlink="http://www.w3.org/1999/xlink">
    <g id="Homepage" stroke="none" stroke-width="1" fill="none" fill-rule="evenodd">
        <g id="Home---Desktop-1440px" transform="translate(-960.000000, -4065.000000)" fill="#F20D33">
            <g id="Group-39" transform="translate(960.000000, 4065.000000)">
                <g id="Group-4">
                    <path d="M3.78241622,210.00249 C1.70312177,209.922204 0,211.793924 0,214.145424 L0,275.859967 C0,278.146658 1.64011285,280 3.66392183,280 L37.3341973,280 C41,279.92842 41,275.72648 41,275.72648 L40.9896553,270.091973 C40.9896553,270.091973 41,265.59404 37.3341973,265.59404 L14.8954974,265.59404 C13.709613,265.59404 12.7484919,264.507765 12.7484919,263.16709 L12.7484919,214.145424 C12.7484919,209.221881 8.37830585,210.180472 3.78241622,210.00249" id="Fill-16"></path>
                    <rect id="Rectangle" fill-rule="nonzero" x="0" y="12.8947368" width="13.0454545" height="231.184211"></rect>
                    <path d="M3.78241622,69.9975104 C1.70218134,70.0777961 0,68.2060756 0,65.8545756 L0,4.14003295 C0,1.85334186 1.64011285,0 3.66392183,0 L37.3341973,0 C41,0.0706127116 41,4.27352 41,4.27352 L40.9887148,9.90802746 C40.9887148,9.90802746 41,14.4059605 37.3341973,14.4059605 L14.8954974,14.4059605 C13.709613,14.4059605 12.7484919,15.4922355 12.7484919,16.8329097 L12.7484919,65.8545756 C12.7484919,70.7781195 8.37830585,69.8195277 3.78241622,69.9975104" id="Fill-17"></path>
                </g>
            </g>
        </g>
    </g>
</svg>