<?xml version="1.0" encoding="utf-8"?>
<svg width="333px" height="248px" viewBox="0 0 333 248" version="1.1" xmlns="http://www.w3.org/2000/svg" xmlns:xlink="http://www.w3.org/1999/xlink">
    <!-- Generator: Sketch 52.5 (67469) - http://www.bohemiancoding.com/sketch -->
    <title>Fill 4 Copy</title>
    <desc>Created with Sketch.</desc>
    <g id="Basic-Page" stroke="none" stroke-width="1" fill="none" fill-rule="evenodd" opacity="0.283272879">
        <g id="Basic-page---Desktop-1440px-Copy" transform="translate(-558.000000, -2274.000000)" fill="#FFFFFE">
            <path d="M558.008341,2519.18939 C558.013821,2520.51376 558.623084,2521.18979 559.948482,2521.37266 C560.568706,2521.45855 561.200805,2521.51211 561.828337,2521.51303 C567.641454,2521.52319 570.287683,2521.52504 576.1008,2521.51026 C578.411798,2521.52135 578.980869,2520.66614 579.116972,2520.00211 C579.213796,2519.52741 579.255814,2519.03793 579.256728,2518.55491 C579.262208,2516.25436 578.569822,2515.6245 576.076138,2515.6245 C571.404817,2515.62542 569.901299,2515.61896 565.229979,2515.6402 C564.610668,2515.64297 564.398751,2515.47488 564.405145,2514.89397 C564.432548,2512.30896 564.418846,2498.04847 564.406972,2494.72648 C564.401491,2493.28482 563.848861,2492.42592 562.809369,2492.24398 C562.293277,2492.1544 561.761656,2492.10453 561.236429,2492.10176 C558.66967,2492.08698 558.001947,2492.70945 558.001947,2495.07373 C558.001947,2498.61461 557.994639,2515.50721 558.008341,2519.18939 Z M656.033903,2495.07373 C656.033903,2492.70945 655.36618,2492.08698 652.799421,2492.10176 C652.274194,2492.10453 651.742573,2492.1544 651.226481,2492.24398 C650.186989,2492.42592 649.634359,2493.28482 649.628878,2494.72648 C649.617004,2498.04847 649.603302,2512.30896 649.630705,2514.89397 C649.637099,2515.47488 649.424268,2515.64297 648.805871,2515.6402 C644.134551,2515.61896 642.630119,2515.62542 637.959712,2515.6245 C635.466028,2515.6245 634.773642,2516.25436 634.779122,2518.55491 C634.780036,2519.03793 634.822054,2519.52741 634.918878,2520.00211 C635.054067,2520.66614 635.624052,2521.52135 637.93505,2521.51026 C643.748167,2521.52504 646.394396,2521.52319 652.207513,2521.51303 C652.835045,2521.51211 653.467144,2521.45855 654.087368,2521.37266 C655.412766,2521.18979 656.022029,2520.51376 656.027509,2519.18939 C656.041211,2515.50721 656.033903,2498.61461 656.033903,2495.07373 Z M730.362153,2519.18939 C730.36672,2520.51376 730.976896,2521.18979 732.301381,2521.37266 C732.922518,2521.45855 733.554617,2521.51211 734.181236,2521.51303 C739.995266,2521.52319 742.641495,2521.52504 748.454612,2521.51026 C750.764696,2521.52135 751.334681,2520.66614 751.470784,2520.00211 C751.567608,2519.52741 751.608713,2519.03793 751.609626,2518.55491 C751.61602,2516.25436 750.923634,2515.6245 748.42995,2515.6245 C743.758629,2515.62542 742.254198,2515.61896 737.583791,2515.6402 C736.96448,2515.64297 736.752563,2515.47488 736.758043,2514.89397 C736.785446,2512.30896 736.772658,2498.04847 736.760784,2494.72648 C736.755303,2493.28482 736.202673,2492.42592 735.163181,2492.24398 C734.647089,2492.1544 734.115468,2492.10453 733.590241,2492.10176 C731.023482,2492.08698 730.355759,2492.70945 730.355759,2495.07373 C730.354845,2498.61461 730.347538,2515.50721 730.362153,2519.18939 Z M828.386802,2495.07373 C828.386802,2492.70945 827.719079,2492.08698 825.152319,2492.10176 C824.627092,2492.10453 824.095472,2492.1544 823.579379,2492.24398 C822.539887,2492.42592 821.987258,2493.28482 821.981777,2494.72648 C821.969902,2498.04847 821.957114,2512.30896 821.984517,2514.89397 C821.989998,2515.47488 821.77808,2515.64297 821.15877,2515.6402 C816.488363,2515.61896 814.983931,2515.62542 810.312611,2515.6245 C807.818926,2515.6245 807.12654,2516.25436 807.132934,2518.55491 C807.133848,2519.03793 807.174953,2519.52741 807.271777,2520.00211 C807.407879,2520.66614 807.977864,2521.52135 810.287948,2521.51026 C816.101065,2521.52504 818.747294,2521.52319 824.561325,2521.51303 C825.187943,2521.51211 825.820042,2521.45855 826.44118,2521.37266 C827.765664,2521.18979 828.375841,2520.51376 828.380408,2519.18939 C828.395023,2515.50721 828.387715,2498.61461 828.386802,2495.07373 Z M688.143064,2452.71802 C688.148545,2451.39365 688.757808,2450.71854 690.083206,2450.53475 C690.704343,2450.44886 691.336442,2450.39622 691.96306,2450.39437 C697.777091,2450.38421 700.42332,2450.38329 706.236437,2450.39714 C708.546521,2450.38698 709.116506,2451.24219 709.251695,2451.90622 C709.349433,2452.38 709.390537,2452.8704 709.391451,2453.35342 C709.397845,2455.65397 708.705459,2456.28383 706.211774,2456.28291 C701.540454,2456.28198 700.036022,2456.28937 695.364702,2456.26813 C694.746305,2456.26536 694.533474,2456.43345 694.539868,2457.01343 C694.567271,2459.59936 694.554483,2473.85893 694.541695,2477.18093 C694.537128,2478.62259 693.984498,2479.48241 692.945006,2479.66342 C692.428914,2479.75393 691.896379,2479.80288 691.372066,2479.80657 C688.805306,2479.82043 688.137583,2479.19888 688.137583,2476.8346 C688.13667,2473.2928 688.129362,2456.40112 688.143064,2452.71802 Z M786.168627,2476.8346 C786.168627,2479.19888 785.500904,2479.82043 782.934144,2479.80657 C782.408917,2479.80288 781.877296,2479.75393 781.361204,2479.66342 C780.321712,2479.48241 779.769082,2478.62259 779.763602,2477.18093 C779.751727,2473.85893 779.738939,2459.59936 779.766342,2457.01343 C779.771823,2456.43345 779.559905,2456.26536 778.940594,2456.26813 C774.270188,2456.28937 772.765756,2456.28198 768.094436,2456.28291 C765.600751,2456.28383 764.908365,2455.65397 764.913846,2453.35342 C764.915673,2452.8704 764.956777,2452.38 765.053602,2451.90622 C765.189704,2451.24219 765.759689,2450.38698 768.069773,2450.39714 C773.88289,2450.38329 776.529119,2450.38421 782.342236,2450.39437 C782.969768,2450.39622 783.601867,2450.44886 784.223004,2450.53475 C785.547489,2450.71854 786.157665,2451.39365 786.162233,2452.71802 C786.176848,2456.40112 786.16954,2473.2928 786.168627,2476.8346 Z M612.667537,2476.8346 C612.667537,2479.19888 611.999814,2479.82043 609.433054,2479.80657 C608.907828,2479.80288 608.376207,2479.75393 607.860115,2479.66342 C606.820622,2479.48241 606.267993,2478.62259 606.263425,2477.18093 C606.250637,2473.85893 606.237849,2459.59936 606.265252,2457.01343 C606.270733,2456.43345 606.058815,2456.26536 605.439505,2456.26813 C600.769098,2456.28937 599.264666,2456.28198 594.593346,2456.28291 C592.099661,2456.28383 591.407275,2455.65397 591.413669,2453.35342 C591.414583,2452.8704 591.455688,2452.38 591.552512,2451.90622 C591.688614,2451.24219 592.258599,2450.38698 594.568683,2450.39714 C600.3818,2450.38329 603.028029,2450.38421 608.84206,2450.39437 C609.468678,2450.39622 610.100777,2450.44886 610.721915,2450.53475 C612.047313,2450.71854 612.656576,2451.39365 612.661143,2452.71802 C612.675758,2456.40112 612.66845,2473.2928 612.667537,2476.8346 Z M869.471401,2452.71802 C869.476882,2451.39365 870.086145,2450.71854 871.411543,2450.53475 C872.031767,2450.44886 872.663866,2450.39622 873.291397,2450.39437 C879.104515,2450.38421 881.750744,2450.38329 887.564774,2450.39714 C889.874858,2450.38698 890.444843,2451.24219 890.580032,2451.90622 C890.676856,2452.38 890.718874,2452.8704 890.719788,2453.35342 C890.725269,2455.65397 890.032883,2456.28383 887.539198,2456.28291 C882.867878,2456.28198 881.364359,2456.28937 876.693039,2456.26813 C876.074642,2456.26536 875.861811,2456.43345 875.868205,2457.01343 C875.895608,2459.59936 875.881907,2473.85893 875.870032,2477.18093 C875.864551,2478.62259 875.311921,2479.48241 874.272429,2479.66342 C873.756337,2479.75393 873.224716,2479.80288 872.69949,2479.80657 C870.13273,2479.82043 869.465007,2479.19888 869.465007,2476.8346 C869.465007,2473.2928 869.457699,2456.40112 869.471401,2452.71802 Z M558.008341,2430.99619 C558.013821,2432.32056 558.623084,2432.99567 559.948482,2433.17945 C560.568706,2433.26534 561.200805,2433.31891 561.828337,2433.31983 C567.641454,2433.32999 570.287683,2433.33092 576.1008,2433.31706 C578.411798,2433.32722 578.980869,2432.47294 579.116972,2431.80799 C579.213796,2431.33421 579.255814,2430.8438 579.256728,2430.36079 C579.262208,2428.06116 578.569822,2427.43037 576.076138,2427.4313 C571.404817,2427.43222 569.901299,2427.42576 565.229979,2427.447 C564.610668,2427.44977 564.398751,2427.28076 564.405145,2426.70077 C564.432548,2424.11576 564.418846,2409.85527 564.406972,2406.53328 C564.401491,2405.09162 563.848861,2404.2318 562.809369,2404.05078 C562.293277,2403.9612 561.761656,2403.91132 561.236429,2403.90855 C558.66967,2403.89378 558.001947,2404.51625 558.001947,2406.87961 C558.001947,2410.42141 557.994639,2427.31401 558.008341,2430.99619 Z M656.033903,2406.87961 C656.033903,2404.51625 655.36618,2403.89378 652.799421,2403.90855 C652.274194,2403.91132 651.742573,2403.9612 651.226481,2404.05078 C650.186989,2404.2318 649.634359,2405.09162 649.628878,2406.53328 C649.617004,2409.85527 649.603302,2424.11576 649.630705,2426.70077 C649.637099,2427.28076 649.424268,2427.44977 648.805871,2427.447 C644.134551,2427.42576 642.630119,2427.43222 637.959712,2427.4313 C635.466028,2427.43037 634.773642,2428.06116 634.779122,2430.36079 C634.780036,2430.8438 634.822054,2431.33421 634.918878,2431.80799 C635.054067,2432.47294 635.624052,2433.32722 637.93505,2433.31706 C643.748167,2433.33092 646.394396,2433.32999 652.207513,2433.31983 C652.835045,2433.31891 653.467144,2433.26534 654.087368,2433.17945 C655.412766,2432.99567 656.022029,2432.32056 656.027509,2430.99619 C656.041211,2427.31401 656.033903,2410.42141 656.033903,2406.87961 Z M730.362153,2430.99619 C730.36672,2432.32056 730.976896,2432.99567 732.301381,2433.17945 C732.922518,2433.26534 733.554617,2433.31891 734.181236,2433.31983 C739.995266,2433.32999 742.641495,2433.33092 748.454612,2433.31706 C750.764696,2433.32722 751.334681,2432.47294 751.470784,2431.80799 C751.567608,2431.33421 751.608713,2430.8438 751.609626,2430.36079 C751.61602,2428.06116 750.923634,2427.43037 748.42995,2427.4313 C743.758629,2427.43222 742.254198,2427.42576 737.583791,2427.447 C736.96448,2427.44977 736.752563,2427.28076 736.758043,2426.70077 C736.785446,2424.11576 736.772658,2409.85527 736.760784,2406.53328 C736.755303,2405.09162 736.202673,2404.2318 735.163181,2404.05078 C734.647089,2403.9612 734.115468,2403.91132 733.590241,2403.90855 C731.023482,2403.89378 730.355759,2404.51625 730.355759,2406.87961 C730.354845,2410.42141 730.347538,2427.31401 730.362153,2430.99619 Z M828.386802,2406.87961 C828.386802,2404.51625 827.719079,2403.89378 825.152319,2403.90855 C824.627092,2403.91132 824.095472,2403.9612 823.579379,2404.05078 C822.539887,2404.2318 821.987258,2405.09162 821.981777,2406.53328 C821.969902,2409.85527 821.957114,2424.11576 821.984517,2426.70077 C821.989998,2427.28076 821.77808,2427.44977 821.15877,2427.447 C816.488363,2427.42576 814.983931,2427.43222 810.312611,2427.4313 C807.818926,2427.43037 807.12654,2428.06116 807.132934,2430.36079 C807.133848,2430.8438 807.174953,2431.33421 807.271777,2431.80799 C807.407879,2432.47294 807.977864,2433.32722 810.287948,2433.31706 C816.101065,2433.33092 818.747294,2433.32999 824.561325,2433.31983 C825.187943,2433.31891 825.820042,2433.26534 826.44118,2433.17945 C827.765664,2432.99567 828.375841,2432.32056 828.380408,2430.99619 C828.395023,2427.31401 828.387715,2410.42141 828.386802,2406.87961 Z M688.143064,2364.52481 C688.148545,2363.20045 688.757808,2362.52533 690.083206,2362.34155 C690.704343,2362.25566 691.336442,2362.20209 691.96306,2362.20117 C697.777091,2362.19101 700.42332,2362.19009 706.236437,2362.20394 C708.546521,2362.19378 709.116506,2363.04806 709.251695,2363.71302 C709.349433,2364.1868 709.390537,2364.6772 709.391451,2365.16021 C709.397845,2367.45985 708.705459,2368.09063 706.211774,2368.08971 C701.540454,2368.08878 700.036022,2368.09525 695.364702,2368.07493 C694.746305,2368.07216 694.533474,2368.24024 694.539868,2368.82023 C694.567271,2371.40524 694.554483,2385.66573 694.541695,2388.98773 C694.537128,2390.42939 693.984498,2391.28921 692.945006,2391.47022 C692.428914,2391.55981 691.896379,2391.60968 691.372066,2391.61245 C688.805306,2391.62723 688.137583,2391.00476 688.137583,2388.6414 C688.13667,2385.0996 688.129362,2368.207 688.143064,2364.52481 Z M786.168627,2388.6414 C786.168627,2391.00476 785.500904,2391.62723 782.934144,2391.61245 C782.408917,2391.60968 781.877296,2391.55981 781.361204,2391.47022 C780.321712,2391.28921 779.769082,2390.42939 779.763602,2388.98773 C779.751727,2385.66573 779.738939,2371.40524 779.766342,2368.82023 C779.771823,2368.24024 779.559905,2368.07216 778.940594,2368.07493 C774.270188,2368.09525 772.765756,2368.08878 768.094436,2368.08971 C765.600751,2368.09063 764.908365,2367.45985 764.913846,2365.16021 C764.915673,2364.6772 764.956777,2364.1868 765.053602,2363.71302 C765.189704,2363.04806 765.759689,2362.19378 768.069773,2362.20394 C773.88289,2362.19009 776.529119,2362.19101 782.342236,2362.20117 C782.969768,2362.20209 783.601867,2362.25566 784.223004,2362.34155 C785.547489,2362.52533 786.157665,2363.20045 786.162233,2364.52481 C786.176848,2368.207 786.16954,2385.0996 786.168627,2388.6414 Z M612.667537,2388.6414 C612.667537,2391.00476 611.999814,2391.62723 609.433054,2391.61245 C608.907828,2391.60968 608.376207,2391.55981 607.860115,2391.47022 C606.820622,2391.28921 606.267993,2390.42939 606.263425,2388.98773 C606.250637,2385.66573 606.237849,2371.40524 606.265252,2368.82023 C606.270733,2368.24024 606.058815,2368.07216 605.439505,2368.07493 C600.769098,2368.09525 599.264666,2368.08878 594.593346,2368.08971 C592.099661,2368.09063 591.407275,2367.45985 591.413669,2365.16021 C591.414583,2364.6772 591.455688,2364.1868 591.552512,2363.71302 C591.688614,2363.04806 592.258599,2362.19378 594.568683,2362.20394 C600.3818,2362.19009 603.028029,2362.19101 608.84206,2362.20117 C609.468678,2362.20209 610.100777,2362.25566 610.721915,2362.34155 C612.047313,2362.52533 612.656576,2363.20045 612.661143,2364.52481 C612.675758,2368.207 612.66845,2385.0996 612.667537,2388.6414 Z M869.471401,2364.52481 C869.476882,2363.20045 870.086145,2362.52533 871.411543,2362.34155 C872.031767,2362.25566 872.663866,2362.20209 873.291397,2362.20117 C879.104515,2362.19101 881.750744,2362.19009 887.564774,2362.20394 C889.874858,2362.19378 890.444843,2363.04806 890.580032,2363.71302 C890.676856,2364.1868 890.718874,2364.6772 890.719788,2365.16021 C890.725269,2367.45985 890.032883,2368.09063 887.539198,2368.08971 C882.867878,2368.08878 881.364359,2368.09525 876.693039,2368.07493 C876.074642,2368.07216 875.861811,2368.24024 875.868205,2368.82023 C875.895608,2371.40524 875.881907,2385.66573 875.870032,2388.98773 C875.864551,2390.42939 875.311921,2391.28921 874.272429,2391.47022 C873.756337,2391.55981 873.224716,2391.60968 872.69949,2391.61245 C870.13273,2391.62723 869.465007,2391.00476 869.465007,2388.6414 C869.465007,2385.0996 869.457699,2368.207 869.471401,2364.52481 Z M558.008341,2342.80299 C558.013821,2344.12735 558.623084,2344.80247 559.948482,2344.98625 C560.568706,2345.07214 561.200805,2345.12571 561.828337,2345.12663 C567.641454,2345.13679 570.287683,2345.13771 576.1008,2345.12386 C578.411798,2345.13402 578.980869,2344.27882 579.116972,2343.61479 C579.213796,2343.14101 579.255814,2342.6506 579.256728,2342.16759 C579.262208,2339.86703 578.569822,2339.23717 576.076138,2339.2381 C571.404817,2339.23902 569.901299,2339.23256 565.229979,2339.25287 C564.610668,2339.25564 564.398751,2339.08756 564.405145,2338.50757 C564.432548,2335.92164 564.418846,2321.66207 564.406972,2318.34007 C564.401491,2316.89842 563.848861,2316.03859 562.809369,2315.85758 C562.293277,2315.76707 561.761656,2315.71812 561.236429,2315.71535 C558.66967,2315.70058 558.001947,2316.32212 558.001947,2318.6864 C558.001947,2322.22821 557.994639,2339.12081 558.008341,2342.80299 Z M656.033903,2318.6864 C656.033903,2316.32212 655.36618,2315.70058 652.799421,2315.71535 C652.274194,2315.71812 651.742573,2315.76707 651.226481,2315.85758 C650.186989,2316.03859 649.634359,2316.89842 649.628878,2318.34007 C649.617004,2321.66207 649.603302,2335.92164 649.630705,2338.50757 C649.637099,2339.08756 649.424268,2339.25564 648.805871,2339.25287 C644.134551,2339.23256 642.630119,2339.23902 637.959712,2339.2381 C635.466028,2339.23717 634.773642,2339.86703 634.779122,2342.16759 C634.780036,2342.6506 634.822054,2343.14101 634.918878,2343.61479 C635.054067,2344.27882 635.624052,2345.13402 637.93505,2345.12386 C643.748167,2345.13771 646.394396,2345.13679 652.207513,2345.12663 C652.835045,2345.12571 653.467144,2345.07214 654.087368,2344.98625 C655.412766,2344.80247 656.022029,2344.12735 656.027509,2342.80299 C656.041211,2339.12081 656.033903,2322.22821 656.033903,2318.6864 Z M730.362153,2342.80299 C730.36672,2344.12735 730.976896,2344.80247 732.301381,2344.98625 C732.922518,2345.07214 733.554617,2345.12571 734.181236,2345.12663 C739.995266,2345.13679 742.641495,2345.13771 748.454612,2345.12386 C750.764696,2345.13402 751.334681,2344.27882 751.470784,2343.61479 C751.567608,2343.14101 751.608713,2342.6506 751.609626,2342.16759 C751.61602,2339.86703 750.923634,2339.23717 748.42995,2339.2381 C743.758629,2339.23902 742.254198,2339.23256 737.583791,2339.25287 C736.96448,2339.25564 736.752563,2339.08756 736.758043,2338.50757 C736.785446,2335.92164 736.772658,2321.66207 736.760784,2318.34007 C736.755303,2316.89842 736.202673,2316.03859 735.163181,2315.85758 C734.647089,2315.76707 734.115468,2315.71812 733.590241,2315.71535 C731.023482,2315.70058 730.355759,2316.32212 730.355759,2318.6864 C730.354845,2322.22821 730.347538,2339.12081 730.362153,2342.80299 Z M828.386802,2318.6864 C828.386802,2316.32212 827.719079,2315.70058 825.152319,2315.71535 C824.627092,2315.71812 824.095472,2315.76707 823.579379,2315.85758 C822.539887,2316.03859 821.987258,2316.89842 821.981777,2318.34007 C821.969902,2321.66207 821.957114,2335.92164 821.984517,2338.50757 C821.989998,2339.08756 821.77808,2339.25564 821.15877,2339.25287 C816.488363,2339.23256 814.983931,2339.23902 810.312611,2339.2381 C807.818926,2339.23717 807.12654,2339.86703 807.132934,2342.16759 C807.133848,2342.6506 807.174953,2343.14101 807.271777,2343.61479 C807.407879,2344.27882 807.977864,2345.13402 810.287948,2345.12386 C816.101065,2345.13771 818.747294,2345.13679 824.561325,2345.12663 C825.187943,2345.12571 825.820042,2345.07214 826.44118,2344.98625 C827.765664,2344.80247 828.375841,2344.12735 828.380408,2342.80299 C828.395023,2339.12081 828.387715,2322.22821 828.386802,2318.6864 Z M688.143064,2276.33161 C688.148545,2275.00725 688.757808,2274.33121 690.083206,2274.14835 C690.704343,2274.06246 691.336442,2274.00889 691.96306,2274.00797 C697.777091,2273.99781 700.42332,2273.99596 706.236437,2274.01074 C708.546521,2273.99966 709.116506,2274.85486 709.251695,2275.51889 C709.349433,2275.99359 709.390537,2276.48307 709.391451,2276.96609 C709.397845,2279.26665 708.705459,2279.8965 706.211774,2279.8965 C701.540454,2279.89558 700.036022,2279.90205 695.364702,2279.8808 C694.746305,2279.87803 694.533474,2280.04612 694.539868,2280.62703 C694.567271,2283.21204 694.554483,2297.47253 694.541695,2300.79453 C694.537128,2302.23618 693.984498,2303.09508 692.945006,2303.27702 C692.428914,2303.36661 691.896379,2303.41648 691.372066,2303.41925 C688.805306,2303.43402 688.137583,2302.81155 688.137583,2300.44727 C688.13667,2296.90639 688.129362,2280.0138 688.143064,2276.33161 Z M786.168627,2300.44727 C786.168627,2302.81155 785.500904,2303.43402 782.934144,2303.41925 C782.408917,2303.41648 781.877296,2303.36661 781.361204,2303.27702 C780.321712,2303.09508 779.769082,2302.23618 779.763602,2300.79453 C779.751727,2297.47253 779.738939,2283.21204 779.766342,2280.62703 C779.771823,2280.04612 779.559905,2279.87803 778.940594,2279.8808 C774.270188,2279.90205 772.765756,2279.89558 768.094436,2279.8965 C765.600751,2279.8965 764.908365,2279.26665 764.913846,2276.96609 C764.915673,2276.48307 764.956777,2275.99359 765.053602,2275.51889 C765.189704,2274.85486 765.759689,2273.99966 768.069773,2274.01074 C773.88289,2273.99596 776.529119,2273.99781 782.342236,2274.00797 C782.969768,2274.00889 783.601867,2274.06246 784.223004,2274.14835 C785.547489,2274.33121 786.157665,2275.00725 786.162233,2276.33161 C786.176848,2280.0138 786.16954,2296.90639 786.168627,2300.44727 Z M612.667537,2300.44727 C612.667537,2302.81155 611.999814,2303.43402 609.433054,2303.41925 C608.907828,2303.41648 608.376207,2303.36661 607.860115,2303.27702 C606.820622,2303.09508 606.267993,2302.23618 606.263425,2300.79453 C606.250637,2297.47253 606.237849,2283.21204 606.265252,2280.62703 C606.270733,2280.04612 606.058815,2279.87803 605.439505,2279.8808 C600.769098,2279.90205 599.264666,2279.89558 594.593346,2279.8965 C592.099661,2279.8965 591.407275,2279.26665 591.413669,2276.96609 C591.414583,2276.48307 591.455688,2275.99359 591.552512,2275.51889 C591.688614,2274.85486 592.258599,2273.99966 594.568683,2274.01074 C600.3818,2273.99596 603.028029,2273.99781 608.84206,2274.00797 C609.468678,2274.00889 610.100777,2274.06246 610.721915,2274.14835 C612.047313,2274.33121 612.656576,2275.00725 612.661143,2276.33161 C612.675758,2280.0138 612.66845,2296.90639 612.667537,2300.44727 Z M869.471401,2276.33161 C869.476882,2275.00725 870.086145,2274.33121 871.411543,2274.14835 C872.031767,2274.06246 872.663866,2274.00889 873.291397,2274.00797 C879.104515,2273.99781 881.750744,2273.99596 887.564774,2274.01074 C889.874858,2273.99966 890.444843,2274.85486 890.580032,2275.51889 C890.676856,2275.99359 890.718874,2276.48307 890.719788,2276.96609 C890.725269,2279.26665 890.032883,2279.8965 887.539198,2279.8965 C882.867878,2279.89558 881.364359,2279.90205 876.693039,2279.8808 C876.074642,2279.87803 875.861811,2280.04612 875.868205,2280.62703 C875.895608,2283.21204 875.881907,2297.47253 875.870032,2300.79453 C875.864551,2302.23618 875.311921,2303.09508 874.272429,2303.27702 C873.756337,2303.36661 873.224716,2303.41648 872.69949,2303.41925 C870.13273,2303.43402 869.465007,2302.81155 869.465007,2300.44727 C869.465007,2296.90639 869.457699,2280.0138 869.471401,2276.33161 Z" id="Fill-4-Copy"></path>
        </g>
    </g>
</svg>