<?xml version="1.0" encoding="utf-8"?>
<svg width="561px" height="391px" viewBox="0 0 561 391" version="1.1" xmlns="http://www.w3.org/2000/svg" xmlns:xlink="http://www.w3.org/1999/xlink">
    <g id="Homepage" stroke="none" stroke-width="1" fill="none" fill-rule="evenodd">
        <g id="Home---Desktop-1440px" transform="translate(-872.000000, -3923.000000)" fill="#FFFFFE">
            <g id="Group-41" transform="translate(843.000000, 3829.000000)">
                <g id="Goal-posts_red">
                    <path d="M206.176457,456.496476 C206.182043,455.14555 206.802967,454.455956 208.153734,454.269427 C208.786761,454.181814 209.430958,454.127174 210.06957,454.126232 C215.994885,454.114927 218.691764,454.113985 224.616148,454.129058 C226.970448,454.117754 227.551343,454.990109 227.689119,455.667456 C227.788728,456.151679 227.830619,456.650975 227.83155,457.143677 C227.838066,459.490369 227.132428,460.13286 224.591013,460.13286 C219.830281,460.131918 218.297053,460.138512 213.536322,460.116845 C212.906088,460.114018 212.689183,460.285475 212.6957,460.878036 C212.723627,463.514885 212.710594,478.061362 212.697561,481.449982 C212.692907,482.920551 212.129699,483.796674 211.070311,483.982262 C210.54434,484.073642 210.001613,484.124514 209.467264,484.12734 C206.851375,484.142413 206.170872,483.507459 206.170872,481.095764 C206.169941,477.483874 206.162494,460.252503 206.176457,456.496476 Z M306.078283,481.095764 C306.078283,483.507459 305.397779,484.142413 302.78189,484.12734 C302.24661,484.124514 301.704814,484.073642 301.178844,483.982262 C300.119455,483.796674 299.556248,482.920551 299.550662,481.449982 C299.53856,478.061362 299.525527,463.514885 299.553455,460.878036 C299.55904,460.285475 299.343067,460.114018 298.711902,460.116845 C293.952101,460.138512 292.418874,460.131918 287.658142,460.13286 C285.116727,460.13286 284.411088,459.490369 284.416674,457.143677 C284.418536,456.650975 284.460427,456.151679 284.559105,455.667456 C284.697812,454.990109 285.278707,454.117754 287.633007,454.129058 C293.55739,454.113985 296.25427,454.114927 302.178653,454.126232 C302.818196,454.127174 303.462394,454.181814 304.09542,454.269427 C305.445256,454.455956 306.067112,455.14555 306.071766,456.496476 C306.086661,460.252503 306.079214,477.483874 306.078283,481.095764 Z M29.355393,456.496476 C29.3600476,455.14555 29.981903,454.455956 31.331739,454.269427 C31.9647655,454.181814 32.6089631,454.127174 33.2485061,454.126232 C39.1728896,454.114927 41.8697688,454.113985 47.7941523,454.129058 C50.1484524,454.117754 50.7293473,454.990109 50.8680546,455.667456 C50.9667323,456.151679 51.0086237,456.650975 51.0104856,457.143677 C51.0160711,459.490369 50.3104327,460.13286 47.7690174,460.13286 C43.0082856,460.131918 41.4750581,460.138512 36.7152572,460.116845 C36.0840925,460.114018 35.8681188,460.285475 35.8737043,460.878036 C35.9016319,463.514885 35.888599,478.061362 35.8764971,481.449982 C35.8709115,482.920551 35.3077041,483.796674 34.2483156,483.982262 C33.722345,484.073642 33.1805488,484.124514 32.645269,484.12734 C30.02938,484.142413 29.3488765,483.507459 29.3488765,481.095764 C29.3479456,477.483874 29.3404982,460.252503 29.355393,456.496476 Z M129.256287,481.095764 C129.256287,483.507459 128.575784,484.142413 125.959895,484.12734 C125.424615,484.124514 124.882819,484.073642 124.356848,483.982262 C123.29746,483.796674 122.734252,482.920551 122.729598,481.449982 C122.716565,478.061362 122.703532,463.514885 122.73146,460.878036 C122.737045,460.285475 122.521071,460.114018 121.889907,460.116845 C117.130106,460.138512 115.596878,460.131918 110.836147,460.13286 C108.294731,460.13286 107.589093,459.490369 107.595609,457.143677 C107.59654,456.650975 107.638432,456.151679 107.737109,455.667456 C107.875817,454.990109 108.456712,454.117754 110.811012,454.129058 C116.735395,454.113985 119.432274,454.114927 125.357589,454.126232 C125.996201,454.127174 126.640398,454.181814 127.273425,454.269427 C128.624192,454.455956 129.245116,455.14555 129.249771,456.496476 C129.264666,460.252503 129.257218,477.483874 129.256287,481.095764 Z M567.797513,456.496476 C567.803099,455.14555 568.424023,454.455956 569.77479,454.269427 C570.406886,454.181814 571.051083,454.127174 571.690626,454.126232 C577.61501,454.114927 580.311889,454.113985 586.236272,454.129058 C588.590572,454.117754 589.171467,454.990109 589.310175,455.667456 C589.408852,456.151679 589.450744,456.650975 589.452606,457.143677 C589.458191,459.490369 588.752553,460.13286 586.211137,460.13286 C581.450406,460.131918 579.918109,460.138512 575.157377,460.116845 C574.526213,460.114018 574.310239,460.285475 574.316755,460.878036 C574.343752,463.514885 574.330719,478.061362 574.318617,481.449982 C574.313032,482.920551 573.749824,483.796674 572.690436,483.982262 C572.164465,484.073642 571.622669,484.124514 571.087389,484.12734 C568.4715,484.142413 567.790997,483.507459 567.790997,481.095764 C567.790997,477.483874 567.782618,460.252503 567.797513,456.496476 Z M667.699338,481.095764 C667.698407,483.507459 667.017904,484.142413 664.402946,484.12734 C663.867666,484.124514 663.324939,484.073642 662.799899,483.982262 C661.740511,483.796674 661.176372,482.920551 661.171718,481.449982 C661.159616,478.061362 661.145652,463.514885 661.17358,460.878036 C661.180096,460.285475 660.963191,460.114018 660.332958,460.116845 C655.572226,460.138512 654.038998,460.131918 649.279198,460.13286 C646.736851,460.13286 646.032144,459.490369 646.037729,457.143677 C646.03866,456.650975 646.081483,456.151679 646.18016,455.667456 C646.317937,454.990109 646.898832,454.117754 649.253132,454.129058 C655.178446,454.113985 657.875325,454.114927 663.799709,454.126232 C664.438321,454.127174 665.083449,454.181814 665.715545,454.269427 C667.066312,454.455956 667.687236,455.14555 667.692822,456.496476 C667.706786,460.252503 667.699338,477.483874 667.699338,481.095764 Z M390.975518,456.496476 C390.981103,455.14555 391.602028,454.455956 392.952795,454.269427 C393.58489,454.181814 394.229088,454.127174 394.868631,454.126232 C400.793014,454.114927 403.489894,454.113985 409.415208,454.129058 C411.769508,454.117754 412.350403,454.990109 412.488179,455.667456 C412.586857,456.151679 412.629679,456.650975 412.63061,457.143677 C412.636196,459.490369 411.930557,460.13286 409.389142,460.13286 C404.62841,460.131918 403.096114,460.138512 398.335382,460.116845 C397.705148,460.114018 397.488244,460.285475 397.49476,460.878036 C397.522688,463.514885 397.508724,478.061362 397.496622,481.449982 C397.491036,482.920551 396.927829,483.796674 395.86844,483.982262 C395.34247,484.073642 394.800674,484.124514 394.265394,484.12734 C391.649505,484.142413 390.969001,483.507459 390.969001,481.095764 C390.969001,477.483874 390.961554,460.252503 390.975518,456.496476 Z M490.877343,481.095764 C490.877343,483.507459 490.19684,484.142413 487.580951,484.12734 C487.045671,484.124514 486.503875,484.073642 485.977904,483.982262 C484.918516,483.796674 484.355308,482.920551 484.349723,481.449982 C484.337621,478.061362 484.323657,463.514885 484.351584,460.878036 C484.358101,460.285475 484.142127,460.114018 483.510962,460.116845 C478.750231,460.138512 477.217934,460.131918 472.457202,460.13286 C469.915787,460.13286 469.210149,459.490369 469.215734,457.143677 C469.216665,456.650975 469.259487,456.151679 469.358165,455.667456 C469.496872,454.990109 470.076836,454.117754 472.432067,454.129058 C478.356451,454.113985 481.05333,454.114927 486.977714,454.126232 C487.617257,454.127174 488.261454,454.181814 488.89355,454.269427 C490.244317,454.455956 490.865241,455.14555 490.870827,456.496476 C490.885721,460.252503 490.877343,477.483874 490.877343,481.095764 Z M611.543369,434.338087 C611.548024,435.689013 612.168949,436.378607 613.519715,436.565136 C614.152742,436.652749 614.79694,436.707389 615.435552,436.708331 C621.360866,436.718694 624.057745,436.720578 629.982129,436.705505 C632.336429,436.716809 632.917324,435.844454 633.056031,435.167107 C633.154709,434.682884 633.1966,434.183588 633.197531,433.690886 C633.204048,431.344194 632.498409,430.701703 629.956994,430.701703 C625.196262,430.702645 623.663035,430.696051 618.903234,430.717718 C618.272069,430.720545 618.055164,430.549088 618.061681,429.956527 C618.089608,427.319678 618.076575,412.773201 618.063543,409.384581 C618.058888,407.914012 617.495681,407.037889 616.436292,406.852301 C615.910321,406.760921 615.368525,406.710049 614.833245,406.707223 C612.217356,406.69215 611.536853,407.327104 611.536853,409.738799 C611.535922,413.350689 611.528475,430.582061 611.543369,434.338087 Z M711.444264,409.738799 C711.444264,407.327104 710.76376,406.69215 708.147871,406.707223 C707.612592,406.710049 707.070795,406.760921 706.544825,406.852301 C705.485436,407.037889 704.922229,407.914012 704.916643,409.384581 C704.904541,412.773201 704.891508,427.319678 704.919436,429.956527 C704.925022,430.549088 704.709048,430.720545 704.077883,430.717718 C699.318082,430.696051 697.784855,430.702645 693.024123,430.701703 C690.482708,430.701703 689.777069,431.344194 689.782655,433.690886 C689.784517,434.183588 689.826408,434.682884 689.925086,435.167107 C690.063793,435.844454 690.644688,436.716809 692.998988,436.705505 C698.923372,436.720578 701.620251,436.718694 707.544634,436.708331 C708.184177,436.707389 708.828375,436.652749 709.461401,436.565136 C710.811237,436.378607 711.433093,435.689013 711.437747,434.338087 C711.452642,430.582061 711.445195,413.350689 711.444264,409.738799 Z M73.5508844,434.338087 C73.5564699,435.689013 74.1773945,436.378607 75.5281613,436.565136 C76.1602569,436.652749 76.8044545,436.707389 77.4439975,436.708331 C83.368381,436.718694 86.0652602,436.720578 91.9896437,436.705505 C94.3448747,436.716809 94.9248387,435.844454 95.063546,435.167107 C95.1622237,434.682884 95.2050461,434.183588 95.205977,433.690886 C95.2115625,431.344194 94.5059241,430.701703 91.9645088,430.701703 C87.203777,430.702645 85.6714804,430.696051 80.9107486,430.717718 C80.2795839,430.720545 80.0636102,430.549088 80.0701266,429.956527 C80.0980543,427.319678 80.0840905,412.773201 80.0719885,409.384581 C80.066403,407.914012 79.5031955,407.037889 78.443807,406.852301 C77.9178365,406.760921 77.3760402,406.710049 76.8407605,406.707223 C74.2248714,406.69215 73.5443679,407.327104 73.5443679,409.738799 C73.5443679,413.350689 73.5369206,430.582061 73.5508844,434.338087 Z M173.45271,409.738799 C173.45271,407.327104 172.772206,406.69215 170.156317,406.707223 C169.621037,406.710049 169.079241,406.760921 168.553271,406.852301 C167.493882,407.037889 166.930675,407.914012 166.925089,409.384581 C166.912987,412.773201 166.899023,427.319678 166.926951,429.956527 C166.933468,430.549088 166.716563,430.720545 166.086329,430.717718 C161.325597,430.696051 159.79237,430.702645 155.032569,430.701703 C152.491154,430.701703 151.785515,431.344194 151.791101,433.690886 C151.792032,434.183588 151.834854,434.682884 151.933532,435.167107 C152.071308,435.844454 152.652203,436.716809 155.007434,436.705505 C160.931818,436.720578 163.628697,436.718694 169.55308,436.708331 C170.192623,436.707389 170.836821,436.652749 171.468916,436.565136 C172.819683,436.378607 173.440608,435.689013 173.446193,434.338087 C173.460157,430.582061 173.45271,413.350689 173.45271,409.738799 Z M249.203642,434.338087 C249.208297,435.689013 249.830153,436.378607 251.179988,436.565136 C251.813015,436.652749 252.457213,436.707389 253.095825,436.708331 C259.021139,436.718694 261.718018,436.720578 267.642402,436.705505 C269.996702,436.716809 270.577597,435.844454 270.716304,435.167107 C270.814982,434.682884 270.856873,434.183588 270.857804,433.690886 C270.864321,431.344194 270.158682,430.701703 267.617267,430.701703 C262.856535,430.702645 261.323308,430.696051 256.563507,430.717718 C255.932342,430.720545 255.716368,430.549088 255.721954,429.956527 C255.749881,427.319678 255.736849,412.773201 255.724747,409.384581 C255.719161,407.914012 255.155954,407.037889 254.096565,406.852301 C253.570595,406.760921 253.028798,406.710049 252.493519,406.707223 C249.87763,406.69215 249.197126,407.327104 249.197126,409.738799 C249.196195,413.350689 249.188748,430.582061 249.203642,434.338087 Z M349.104537,409.738799 C349.104537,407.327104 348.424033,406.69215 345.808144,406.707223 C345.272865,406.710049 344.731068,406.760921 344.205098,406.852301 C343.145709,407.037889 342.582502,407.914012 342.576916,409.384581 C342.564814,412.773201 342.551781,427.319678 342.579709,429.956527 C342.585295,430.549088 342.369321,430.720545 341.738156,430.717718 C336.978355,430.696051 335.445128,430.702645 330.684396,430.701703 C328.142981,430.701703 327.437342,431.344194 327.443859,433.690886 C327.44479,434.183588 327.486681,434.682884 327.585359,435.167107 C327.724066,435.844454 328.304961,436.716809 330.659261,436.705505 C336.583645,436.720578 339.280524,436.718694 345.205838,436.708331 C345.84445,436.707389 346.488648,436.652749 347.121674,436.565136 C348.47151,436.378607 349.093366,435.689013 349.09802,434.338087 C349.112915,430.582061 349.105468,413.350689 349.104537,409.738799 Z M437.507622,434.338087 C437.513207,435.689013 438.134132,436.378607 439.484899,436.565136 C440.116994,436.652749 440.761192,436.707389 441.400735,436.708331 C447.325118,436.718694 450.021998,436.720578 455.946381,436.705505 C458.301612,436.716809 458.882507,435.844454 459.020283,435.167107 C459.118961,434.682884 459.161783,434.183588 459.162714,433.690886 C459.1683,431.344194 458.462661,430.701703 455.921246,430.701703 C451.160514,430.702645 449.628218,430.696051 444.867486,430.717718 C444.236321,430.720545 444.020348,430.549088 444.026864,429.956527 C444.054792,427.319678 444.040828,412.773201 444.028726,409.384581 C444.02314,407.914012 443.459933,407.037889 442.400544,406.852301 C441.874574,406.760921 441.332778,406.710049 440.797498,406.707223 C438.181609,406.69215 437.501105,407.327104 437.501105,409.738799 C437.501105,413.350689 437.493658,430.582061 437.507622,434.338087 Z M537.409447,409.738799 C537.409447,407.327104 536.728944,406.69215 534.113055,406.707223 C533.577775,406.710049 533.035979,406.760921 532.510008,406.852301 C531.45062,407.037889 530.887412,407.914012 530.881827,409.384581 C530.869725,412.773201 530.855761,427.319678 530.883688,429.956527 C530.890205,430.549088 530.6733,430.720545 530.043066,430.717718 C525.282335,430.696051 523.750038,430.702645 518.989306,430.701703 C516.447891,430.701703 515.742253,431.344194 515.747838,433.690886 C515.748769,434.183588 515.791591,434.682884 515.890269,435.167107 C516.028045,435.844454 516.60894,436.716809 518.96324,436.705505 C524.888555,436.720578 527.585434,436.718694 533.509818,436.708331 C534.149361,436.707389 534.793558,436.652749 535.425654,436.565136 C536.776421,436.378607 537.397345,435.689013 537.402931,434.338087 C537.416895,430.582061 537.409447,413.350689 537.409447,409.738799 Z M206.176457,366.533661 C206.182043,365.182735 206.802967,364.494083 208.153734,364.306612 C208.786761,364.218999 209.430958,364.165301 210.06957,364.163417 C215.994885,364.153054 218.691764,364.152112 224.616148,364.166243 C226.970448,364.155881 227.551343,365.028236 227.689119,365.705583 C227.788728,366.188864 227.830619,366.689102 227.83155,367.181804 C227.838066,369.528496 227.132428,370.170987 224.591013,370.170045 C219.830281,370.169103 218.297053,370.176639 213.536322,370.154972 C212.906088,370.152146 212.689183,370.323602 212.6957,370.915221 C212.723627,373.553012 212.710594,388.098547 212.697561,391.487167 C212.692907,392.957736 212.129699,393.834801 211.070311,394.019447 C210.54434,394.111769 210.001613,394.161699 209.467264,394.165467 C206.851375,394.179598 206.170872,393.545586 206.170872,391.133891 C206.169941,387.521059 206.162494,370.29063 206.176457,366.533661 Z M306.078283,391.133891 C306.078283,393.545586 305.397779,394.179598 302.78189,394.165467 C302.24661,394.161699 301.704814,394.111769 301.178844,394.019447 C300.119455,393.834801 299.556248,392.957736 299.550662,391.487167 C299.53856,388.098547 299.525527,373.553012 299.553455,370.915221 C299.55904,370.323602 299.343067,370.152146 298.711902,370.154972 C293.952101,370.176639 292.418874,370.169103 287.658142,370.170045 C285.116727,370.170987 284.411088,369.528496 284.416674,367.181804 C284.418536,366.689102 284.460427,366.188864 284.559105,365.705583 C284.697812,365.028236 285.278707,364.155881 287.633007,364.166243 C293.55739,364.152112 296.25427,364.153054 302.178653,364.163417 C302.818196,364.165301 303.462394,364.218999 304.09542,364.306612 C305.445256,364.494083 306.067112,365.182735 306.071766,366.533661 C306.086661,370.29063 306.079214,387.521059 306.078283,391.133891 Z M29.355393,366.533661 C29.3600476,365.182735 29.981903,364.494083 31.331739,364.306612 C31.9647655,364.218999 32.6089631,364.165301 33.2485061,364.163417 C39.1728896,364.153054 41.8697688,364.152112 47.7941523,364.166243 C50.1484524,364.155881 50.7293473,365.028236 50.8680546,365.705583 C50.9667323,366.188864 51.0086237,366.689102 51.0104856,367.181804 C51.0160711,369.528496 50.3104327,370.170987 47.7690174,370.170045 C43.0082856,370.169103 41.4750581,370.176639 36.7152572,370.154972 C36.0840925,370.152146 35.8681188,370.323602 35.8737043,370.915221 C35.9016319,373.553012 35.888599,388.098547 35.8764971,391.487167 C35.8709115,392.957736 35.3077041,393.834801 34.2483156,394.019447 C33.722345,394.111769 33.1805488,394.161699 32.645269,394.165467 C30.02938,394.179598 29.3488765,393.545586 29.3488765,391.133891 C29.3479456,387.521059 29.3404982,370.29063 29.355393,366.533661 Z M129.256287,391.133891 C129.256287,393.545586 128.575784,394.179598 125.959895,394.165467 C125.424615,394.161699 124.882819,394.111769 124.356848,394.019447 C123.29746,393.834801 122.734252,392.957736 122.729598,391.487167 C122.716565,388.098547 122.703532,373.553012 122.73146,370.915221 C122.737045,370.323602 122.521071,370.152146 121.889907,370.154972 C117.130106,370.176639 115.596878,370.169103 110.836147,370.170045 C108.294731,370.170987 107.589093,369.528496 107.595609,367.181804 C107.59654,366.689102 107.638432,366.188864 107.737109,365.705583 C107.875817,365.028236 108.456712,364.155881 110.811012,364.166243 C116.735395,364.152112 119.432274,364.153054 125.357589,364.163417 C125.996201,364.165301 126.640398,364.218999 127.273425,364.306612 C128.624192,364.494083 129.245116,365.182735 129.249771,366.533661 C129.264666,370.29063 129.257218,387.521059 129.256287,391.133891 Z M567.797513,366.533661 C567.803099,365.182735 568.424023,364.494083 569.77479,364.306612 C570.406886,364.218999 571.051083,364.165301 571.690626,364.163417 C577.61501,364.153054 580.311889,364.152112 586.236272,364.166243 C588.590572,364.155881 589.171467,365.028236 589.310175,365.705583 C589.408852,366.188864 589.450744,366.689102 589.452606,367.181804 C589.458191,369.528496 588.752553,370.170987 586.211137,370.170045 C581.450406,370.169103 579.918109,370.176639 575.157377,370.154972 C574.526213,370.152146 574.310239,370.323602 574.316755,370.915221 C574.343752,373.553012 574.330719,388.098547 574.318617,391.487167 C574.313032,392.957736 573.749824,393.834801 572.690436,394.019447 C572.164465,394.111769 571.622669,394.161699 571.087389,394.165467 C568.4715,394.179598 567.790997,393.545586 567.790997,391.133891 C567.790997,387.521059 567.782618,370.29063 567.797513,366.533661 Z M667.699338,391.133891 C667.698407,393.545586 667.017904,394.179598 664.402946,394.165467 C663.867666,394.161699 663.324939,394.111769 662.799899,394.019447 C661.740511,393.834801 661.176372,392.957736 661.171718,391.487167 C661.159616,388.098547 661.145652,373.553012 661.17358,370.915221 C661.180096,370.323602 660.963191,370.152146 660.332958,370.154972 C655.572226,370.176639 654.038998,370.169103 649.279198,370.170045 C646.736851,370.170987 646.032144,369.528496 646.037729,367.181804 C646.03866,366.689102 646.081483,366.188864 646.18016,365.705583 C646.317937,365.028236 646.898832,364.155881 649.253132,364.166243 C655.178446,364.152112 657.875325,364.153054 663.799709,364.163417 C664.438321,364.165301 665.083449,364.218999 665.715545,364.306612 C667.066312,364.494083 667.687236,365.182735 667.692822,366.533661 C667.706786,370.29063 667.699338,387.521059 667.699338,391.133891 Z M390.975518,366.533661 C390.981103,365.182735 391.602028,364.494083 392.952795,364.306612 C393.58489,364.218999 394.229088,364.165301 394.868631,364.163417 C400.793014,364.153054 403.489894,364.152112 409.415208,364.166243 C411.769508,364.155881 412.350403,365.028236 412.488179,365.705583 C412.586857,366.188864 412.629679,366.689102 412.63061,367.181804 C412.636196,369.528496 411.930557,370.170987 409.389142,370.170045 C404.62841,370.169103 403.096114,370.176639 398.335382,370.154972 C397.705148,370.152146 397.488244,370.323602 397.49476,370.915221 C397.522688,373.553012 397.508724,388.098547 397.496622,391.487167 C397.491036,392.957736 396.927829,393.834801 395.86844,394.019447 C395.34247,394.111769 394.800674,394.161699 394.265394,394.165467 C391.649505,394.179598 390.969001,393.545586 390.969001,391.133891 C390.969001,387.521059 390.961554,370.29063 390.975518,366.533661 Z M490.877343,391.133891 C490.877343,393.545586 490.19684,394.179598 487.580951,394.165467 C487.045671,394.161699 486.503875,394.111769 485.977904,394.019447 C484.918516,393.834801 484.355308,392.957736 484.349723,391.487167 C484.337621,388.098547 484.323657,373.553012 484.351584,370.915221 C484.358101,370.323602 484.142127,370.152146 483.510962,370.154972 C478.750231,370.176639 477.217934,370.169103 472.457202,370.170045 C469.915787,370.170987 469.210149,369.528496 469.215734,367.181804 C469.216665,366.689102 469.259487,366.188864 469.358165,365.705583 C469.496872,365.028236 470.076836,364.155881 472.432067,364.166243 C478.356451,364.152112 481.05333,364.153054 486.977714,364.163417 C487.617257,364.165301 488.261454,364.218999 488.89355,364.306612 C490.244317,364.494083 490.865241,365.182735 490.870827,366.533661 C490.885721,370.29063 490.877343,387.521059 490.877343,391.133891 Z M611.543369,344.376214 C611.548024,345.72714 612.168949,346.415792 613.519715,346.603264 C614.152742,346.690876 614.79694,346.745516 615.435552,346.746458 C621.360866,346.756821 624.057745,346.757763 629.982129,346.743632 C632.336429,346.753995 632.917324,345.882581 633.056031,345.204292 C633.154709,344.721011 633.1966,344.220773 633.197531,343.728071 C633.204048,341.382321 632.498409,340.738888 629.956994,340.73983 C625.196262,340.740772 623.663035,340.734178 618.903234,340.755845 C618.272069,340.758672 618.055164,340.586273 618.061681,339.994654 C618.089608,337.357805 618.076575,322.811328 618.063543,319.422708 C618.058888,317.95214 617.495681,317.075074 616.436292,316.890429 C615.910321,316.799048 615.368525,316.748176 614.833245,316.74535 C612.217356,316.730277 611.536853,317.365231 611.536853,319.775984 C611.535922,323.388816 611.528475,340.620188 611.543369,344.376214 Z M711.444264,319.775984 C711.444264,317.365231 710.76376,316.730277 708.147871,316.74535 C707.612592,316.748176 707.070795,316.799048 706.544825,316.890429 C705.485436,317.075074 704.922229,317.95214 704.916643,319.422708 C704.904541,322.811328 704.891508,337.357805 704.919436,339.994654 C704.925022,340.586273 704.709048,340.758672 704.077883,340.755845 C699.318082,340.734178 697.784855,340.740772 693.024123,340.73983 C690.482708,340.738888 689.777069,341.382321 689.782655,343.728071 C689.784517,344.220773 689.826408,344.721011 689.925086,345.204292 C690.063793,345.882581 690.644688,346.753995 692.998988,346.743632 C698.923372,346.757763 701.620251,346.756821 707.544634,346.746458 C708.184177,346.745516 708.828375,346.690876 709.461401,346.603264 C710.811237,346.415792 711.433093,345.72714 711.437747,344.376214 C711.452642,340.620188 711.445195,323.388816 711.444264,319.775984 Z M73.5508844,344.376214 C73.5564699,345.72714 74.1773945,346.415792 75.5281613,346.603264 C76.1602569,346.690876 76.8044545,346.745516 77.4439975,346.746458 C83.368381,346.756821 86.0652602,346.757763 91.9896437,346.743632 C94.3448747,346.753995 94.9248387,345.882581 95.063546,345.204292 C95.1622237,344.721011 95.2050461,344.220773 95.205977,343.728071 C95.2115625,341.382321 94.5059241,340.738888 91.9645088,340.73983 C87.203777,340.740772 85.6714804,340.734178 80.9107486,340.755845 C80.2795839,340.758672 80.0636102,340.586273 80.0701266,339.994654 C80.0980543,337.357805 80.0840905,322.811328 80.0719885,319.422708 C80.066403,317.95214 79.5031955,317.075074 78.443807,316.890429 C77.9178365,316.799048 77.3760402,316.748176 76.8407605,316.74535 C74.2248714,316.730277 73.5443679,317.365231 73.5443679,319.775984 C73.5443679,323.388816 73.5369206,340.620188 73.5508844,344.376214 Z M173.45271,319.775984 C173.45271,317.365231 172.772206,316.730277 170.156317,316.74535 C169.621037,316.748176 169.079241,316.799048 168.553271,316.890429 C167.493882,317.075074 166.930675,317.95214 166.925089,319.422708 C166.912987,322.811328 166.899023,337.357805 166.926951,339.994654 C166.933468,340.586273 166.716563,340.758672 166.086329,340.755845 C161.325597,340.734178 159.79237,340.740772 155.032569,340.73983 C152.491154,340.738888 151.785515,341.382321 151.791101,343.728071 C151.792032,344.220773 151.834854,344.721011 151.933532,345.204292 C152.071308,345.882581 152.652203,346.753995 155.007434,346.743632 C160.931818,346.757763 163.628697,346.756821 169.55308,346.746458 C170.192623,346.745516 170.836821,346.690876 171.468916,346.603264 C172.819683,346.415792 173.440608,345.72714 173.446193,344.376214 C173.460157,340.620188 173.45271,323.388816 173.45271,319.775984 Z M249.203642,344.376214 C249.208297,345.72714 249.830153,346.415792 251.179988,346.603264 C251.813015,346.690876 252.457213,346.745516 253.095825,346.746458 C259.021139,346.756821 261.718018,346.757763 267.642402,346.743632 C269.996702,346.753995 270.577597,345.882581 270.716304,345.204292 C270.814982,344.721011 270.856873,344.220773 270.857804,343.728071 C270.864321,341.382321 270.158682,340.738888 267.617267,340.73983 C262.856535,340.740772 261.323308,340.734178 256.563507,340.755845 C255.932342,340.758672 255.716368,340.586273 255.721954,339.994654 C255.749881,337.357805 255.736849,322.811328 255.724747,319.422708 C255.719161,317.95214 255.155954,317.075074 254.096565,316.890429 C253.570595,316.799048 253.028798,316.748176 252.493519,316.74535 C249.87763,316.730277 249.197126,317.365231 249.197126,319.775984 C249.196195,323.388816 249.188748,340.620188 249.203642,344.376214 Z M349.104537,319.775984 C349.104537,317.365231 348.424033,316.730277 345.808144,316.74535 C345.272865,316.748176 344.731068,316.799048 344.205098,316.890429 C343.145709,317.075074 342.582502,317.95214 342.576916,319.422708 C342.564814,322.811328 342.551781,337.357805 342.579709,339.994654 C342.585295,340.586273 342.369321,340.758672 341.738156,340.755845 C336.978355,340.734178 335.445128,340.740772 330.684396,340.73983 C328.142981,340.738888 327.437342,341.382321 327.443859,343.728071 C327.44479,344.220773 327.486681,344.721011 327.585359,345.204292 C327.724066,345.882581 328.304961,346.753995 330.659261,346.743632 C336.583645,346.757763 339.280524,346.756821 345.205838,346.746458 C345.84445,346.745516 346.488648,346.690876 347.121674,346.603264 C348.47151,346.415792 349.093366,345.72714 349.09802,344.376214 C349.112915,340.620188 349.105468,323.388816 349.104537,319.775984 Z M437.507622,344.376214 C437.513207,345.72714 438.134132,346.415792 439.484899,346.603264 C440.116994,346.690876 440.761192,346.745516 441.400735,346.746458 C447.325118,346.756821 450.021998,346.757763 455.946381,346.743632 C458.301612,346.753995 458.882507,345.882581 459.020283,345.204292 C459.118961,344.721011 459.161783,344.220773 459.162714,343.728071 C459.1683,341.382321 458.462661,340.738888 455.921246,340.73983 C451.160514,340.740772 449.628218,340.734178 444.867486,340.755845 C444.236321,340.758672 444.020348,340.586273 444.026864,339.994654 C444.054792,337.357805 444.040828,322.811328 444.028726,319.422708 C444.02314,317.95214 443.459933,317.075074 442.400544,316.890429 C441.874574,316.799048 441.332778,316.748176 440.797498,316.74535 C438.181609,316.730277 437.501105,317.365231 437.501105,319.775984 C437.501105,323.388816 437.493658,340.620188 437.507622,344.376214 Z M537.409447,319.775984 C537.409447,317.365231 536.728944,316.730277 534.113055,316.74535 C533.577775,316.748176 533.035979,316.799048 532.510008,316.890429 C531.45062,317.075074 530.887412,317.95214 530.881827,319.422708 C530.869725,322.811328 530.855761,337.357805 530.883688,339.994654 C530.890205,340.586273 530.6733,340.758672 530.043066,340.755845 C525.282335,340.734178 523.750038,340.740772 518.989306,340.73983 C516.447891,340.738888 515.742253,341.382321 515.747838,343.728071 C515.748769,344.220773 515.791591,344.721011 515.890269,345.204292 C516.028045,345.882581 516.60894,346.753995 518.96324,346.743632 C524.888555,346.757763 527.585434,346.756821 533.509818,346.746458 C534.149361,346.745516 534.793558,346.690876 535.425654,346.603264 C536.776421,346.415792 537.397345,345.72714 537.402931,344.376214 C537.416895,340.620188 537.409447,323.388816 537.409447,319.775984 Z M206.176457,276.571788 C206.182043,275.220862 206.802967,274.53221 208.153734,274.344739 C208.786761,274.257126 209.430958,274.202486 210.06957,274.201544 C215.994885,274.191182 218.691764,274.190239 224.616148,274.204371 C226.970448,274.194008 227.551343,275.065421 227.689119,275.74371 C227.788728,276.226991 227.830619,276.727229 227.83155,277.219931 C227.838066,279.565681 227.132428,280.209114 224.591013,280.208172 C219.830281,280.20723 218.297053,280.213824 213.536322,280.193099 C212.906088,280.190273 212.689183,280.361729 212.6957,280.953348 C212.723627,283.590197 212.710594,298.136674 212.697561,301.525294 C212.692907,302.995863 212.129699,303.872928 211.070311,304.057574 C210.54434,304.148954 210.001613,304.199826 209.467264,304.202652 C206.851375,304.217725 206.170872,303.582771 206.170872,301.172018 C206.169941,297.559186 206.162494,280.327815 206.176457,276.571788 Z M306.078283,301.172018 C306.078283,303.582771 305.397779,304.217725 302.78189,304.202652 C302.24661,304.199826 301.704814,304.148954 301.178844,304.057574 C300.119455,303.872928 299.556248,302.995863 299.550662,301.525294 C299.53856,298.136674 299.525527,283.590197 299.553455,280.953348 C299.55904,280.361729 299.343067,280.190273 298.711902,280.193099 C293.952101,280.213824 292.418874,280.20723 287.658142,280.208172 C285.116727,280.209114 284.411088,279.565681 284.416674,277.219931 C284.418536,276.727229 284.460427,276.226991 284.559105,275.74371 C284.697812,275.065421 285.278707,274.194008 287.633007,274.204371 C293.55739,274.190239 296.25427,274.191182 302.178653,274.201544 C302.818196,274.202486 303.462394,274.257126 304.09542,274.344739 C305.445256,274.53221 306.067112,275.220862 306.071766,276.571788 C306.086661,280.327815 306.079214,297.559186 306.078283,301.172018 Z M29.355393,276.571788 C29.3600476,275.220862 29.981903,274.53221 31.331739,274.344739 C31.9647655,274.257126 32.6089631,274.202486 33.2485061,274.201544 C39.1728896,274.191182 41.8697688,274.190239 47.7941523,274.204371 C50.1484524,274.194008 50.7293473,275.065421 50.8680546,275.74371 C50.9667323,276.226991 51.0086237,276.727229 51.0104856,277.219931 C51.0160711,279.565681 50.3104327,280.209114 47.7690174,280.208172 C43.0082856,280.20723 41.4750581,280.213824 36.7152572,280.193099 C36.0840925,280.190273 35.8681188,280.361729 35.8737043,280.953348 C35.9016319,283.590197 35.888599,298.136674 35.8764971,301.525294 C35.8709115,302.995863 35.3077041,303.872928 34.2483156,304.057574 C33.722345,304.148954 33.1805488,304.199826 32.645269,304.202652 C30.02938,304.217725 29.3488765,303.582771 29.3488765,301.172018 C29.3479456,297.559186 29.3404982,280.327815 29.355393,276.571788 Z M129.256287,301.172018 C129.256287,303.582771 128.575784,304.217725 125.959895,304.202652 C125.424615,304.199826 124.882819,304.148954 124.356848,304.057574 C123.29746,303.872928 122.734252,302.995863 122.729598,301.525294 C122.716565,298.136674 122.703532,283.590197 122.73146,280.953348 C122.737045,280.361729 122.521071,280.190273 121.889907,280.193099 C117.130106,280.213824 115.596878,280.20723 110.836147,280.208172 C108.294731,280.209114 107.589093,279.565681 107.595609,277.219931 C107.59654,276.727229 107.638432,276.226991 107.737109,275.74371 C107.875817,275.065421 108.456712,274.194008 110.811012,274.204371 C116.735395,274.190239 119.432274,274.191182 125.357589,274.201544 C125.996201,274.202486 126.640398,274.257126 127.273425,274.344739 C128.624192,274.53221 129.245116,275.220862 129.249771,276.571788 C129.264666,280.327815 129.257218,297.559186 129.256287,301.172018 Z M567.797513,276.571788 C567.803099,275.220862 568.424023,274.53221 569.77479,274.344739 C570.406886,274.257126 571.051083,274.202486 571.690626,274.201544 C577.61501,274.191182 580.311889,274.190239 586.236272,274.204371 C588.590572,274.194008 589.171467,275.065421 589.310175,275.74371 C589.408852,276.226991 589.450744,276.727229 589.452606,277.219931 C589.458191,279.565681 588.752553,280.209114 586.211137,280.208172 C581.450406,280.20723 579.918109,280.213824 575.157377,280.193099 C574.526213,280.190273 574.310239,280.361729 574.316755,280.953348 C574.343752,283.590197 574.330719,298.136674 574.318617,301.525294 C574.313032,302.995863 573.749824,303.872928 572.690436,304.057574 C572.164465,304.148954 571.622669,304.199826 571.087389,304.202652 C568.4715,304.217725 567.790997,303.582771 567.790997,301.172018 C567.790997,297.559186 567.782618,280.327815 567.797513,276.571788 Z M667.699338,301.172018 C667.698407,303.582771 667.017904,304.217725 664.402946,304.202652 C663.867666,304.199826 663.324939,304.148954 662.799899,304.057574 C661.740511,303.872928 661.176372,302.995863 661.171718,301.525294 C661.159616,298.136674 661.145652,283.590197 661.17358,280.953348 C661.180096,280.361729 660.963191,280.190273 660.332958,280.193099 C655.572226,280.213824 654.038998,280.20723 649.279198,280.208172 C646.736851,280.209114 646.032144,279.565681 646.037729,277.219931 C646.03866,276.727229 646.081483,276.226991 646.18016,275.74371 C646.317937,275.065421 646.898832,274.194008 649.253132,274.204371 C655.178446,274.190239 657.875325,274.191182 663.799709,274.201544 C664.438321,274.202486 665.083449,274.257126 665.715545,274.344739 C667.066312,274.53221 667.687236,275.220862 667.692822,276.571788 C667.706786,280.327815 667.699338,297.559186 667.699338,301.172018 Z M390.975518,276.571788 C390.981103,275.220862 391.602028,274.53221 392.952795,274.344739 C393.58489,274.257126 394.229088,274.202486 394.868631,274.201544 C400.793014,274.191182 403.489894,274.190239 409.415208,274.204371 C411.769508,274.194008 412.350403,275.065421 412.488179,275.74371 C412.586857,276.226991 412.629679,276.727229 412.63061,277.219931 C412.636196,279.565681 411.930557,280.209114 409.389142,280.208172 C404.62841,280.20723 403.096114,280.213824 398.335382,280.193099 C397.705148,280.190273 397.488244,280.361729 397.49476,280.953348 C397.522688,283.590197 397.508724,298.136674 397.496622,301.525294 C397.491036,302.995863 396.927829,303.872928 395.86844,304.057574 C395.34247,304.148954 394.800674,304.199826 394.265394,304.202652 C391.649505,304.217725 390.969001,303.582771 390.969001,301.172018 C390.969001,297.559186 390.961554,280.327815 390.975518,276.571788 Z M490.877343,301.172018 C490.877343,303.582771 490.19684,304.217725 487.580951,304.202652 C487.045671,304.199826 486.503875,304.148954 485.977904,304.057574 C484.918516,303.872928 484.355308,302.995863 484.349723,301.525294 C484.337621,298.136674 484.323657,283.590197 484.351584,280.953348 C484.358101,280.361729 484.142127,280.190273 483.510962,280.193099 C478.750231,280.213824 477.217934,280.20723 472.457202,280.208172 C469.915787,280.209114 469.210149,279.565681 469.215734,277.219931 C469.216665,276.727229 469.259487,276.226991 469.358165,275.74371 C469.496872,275.065421 470.076836,274.194008 472.432067,274.204371 C478.356451,274.190239 481.05333,274.191182 486.977714,274.201544 C487.617257,274.202486 488.261454,274.257126 488.89355,274.344739 C490.244317,274.53221 490.865241,275.220862 490.870827,276.571788 C490.885721,280.327815 490.877343,297.559186 490.877343,301.172018 Z M611.543369,254.414341 C611.548024,255.765267 612.168949,256.453919 613.519715,256.641391 C614.152742,256.729003 614.79694,256.783643 615.435552,256.784585 C621.360866,256.794948 624.057745,256.79589 629.982129,256.781759 C632.336429,256.792122 632.917324,255.919766 633.056031,255.242419 C633.154709,254.759138 633.1966,254.2589 633.197531,253.766198 C633.204048,251.419506 632.498409,250.777015 629.956994,250.777957 C625.196262,250.778899 623.663035,250.772305 618.903234,250.79303 C618.272069,250.795857 618.055164,250.6244 618.061681,250.032781 C618.089608,247.39499 618.076575,232.849455 618.063543,229.460835 C618.058888,227.990267 617.495681,227.113201 616.436292,226.928556 C615.910321,226.836233 615.368525,226.786303 614.833245,226.783477 C612.217356,226.768404 611.536853,227.402416 611.536853,229.814111 C611.535922,233.426943 611.528475,250.658315 611.543369,254.414341 Z M711.444264,229.814111 C711.444264,227.402416 710.76376,226.768404 708.147871,226.783477 C707.612592,226.786303 707.070795,226.836233 706.544825,226.928556 C705.485436,227.113201 704.922229,227.990267 704.916643,229.460835 C704.904541,232.849455 704.891508,247.39499 704.919436,250.032781 C704.925022,250.6244 704.709048,250.795857 704.077883,250.79303 C699.318082,250.772305 697.784855,250.778899 693.024123,250.777957 C690.482708,250.777015 689.777069,251.419506 689.782655,253.766198 C689.784517,254.2589 689.826408,254.759138 689.925086,255.242419 C690.063793,255.919766 690.644688,256.792122 692.998988,256.781759 C698.923372,256.79589 701.620251,256.794948 707.544634,256.784585 C708.184177,256.783643 708.828375,256.729003 709.461401,256.641391 C710.811237,256.453919 711.433093,255.765267 711.437747,254.414341 C711.452642,250.658315 711.445195,233.426943 711.444264,229.814111 Z M73.5508844,254.414341 C73.5564699,255.765267 74.1773945,256.453919 75.5281613,256.641391 C76.1602569,256.729003 76.8044545,256.783643 77.4439975,256.784585 C83.368381,256.794948 86.0652602,256.79589 91.9896437,256.781759 C94.3448747,256.792122 94.9248387,255.919766 95.063546,255.242419 C95.1622237,254.759138 95.2050461,254.2589 95.205977,253.766198 C95.2115625,251.419506 94.5059241,250.777015 91.9645088,250.777957 C87.203777,250.778899 85.6714804,250.772305 80.9107486,250.79303 C80.2795839,250.795857 80.0636102,250.6244 80.0701266,250.032781 C80.0980543,247.39499 80.0840905,232.849455 80.0719885,229.460835 C80.066403,227.990267 79.5031955,227.113201 78.443807,226.928556 C77.9178365,226.836233 77.3760402,226.786303 76.8407605,226.783477 C74.2248714,226.768404 73.5443679,227.402416 73.5443679,229.814111 C73.5443679,233.426943 73.5369206,250.658315 73.5508844,254.414341 Z M173.45271,229.814111 C173.45271,227.402416 172.772206,226.768404 170.156317,226.783477 C169.621037,226.786303 169.079241,226.836233 168.553271,226.928556 C167.493882,227.113201 166.930675,227.990267 166.925089,229.460835 C166.912987,232.849455 166.899023,247.39499 166.926951,250.032781 C166.933468,250.6244 166.716563,250.795857 166.086329,250.79303 C161.325597,250.772305 159.79237,250.778899 155.032569,250.777957 C152.491154,250.777015 151.785515,251.419506 151.791101,253.766198 C151.792032,254.2589 151.834854,254.759138 151.933532,255.242419 C152.071308,255.919766 152.652203,256.792122 155.007434,256.781759 C160.931818,256.79589 163.628697,256.794948 169.55308,256.784585 C170.192623,256.783643 170.836821,256.729003 171.468916,256.641391 C172.819683,256.453919 173.440608,255.765267 173.446193,254.414341 C173.460157,250.658315 173.45271,233.426943 173.45271,229.814111 Z M249.203642,254.414341 C249.208297,255.765267 249.830153,256.453919 251.179988,256.641391 C251.813015,256.729003 252.457213,256.783643 253.095825,256.784585 C259.021139,256.794948 261.718018,256.79589 267.642402,256.781759 C269.996702,256.792122 270.577597,255.919766 270.716304,255.242419 C270.814982,254.759138 270.856873,254.2589 270.857804,253.766198 C270.864321,251.419506 270.158682,250.777015 267.617267,250.777957 C262.856535,250.778899 261.323308,250.772305 256.563507,250.79303 C255.932342,250.795857 255.716368,250.6244 255.721954,250.032781 C255.749881,247.39499 255.736849,232.849455 255.724747,229.460835 C255.719161,227.990267 255.155954,227.113201 254.096565,226.928556 C253.570595,226.836233 253.028798,226.786303 252.493519,226.783477 C249.87763,226.768404 249.197126,227.402416 249.197126,229.814111 C249.196195,233.426943 249.188748,250.658315 249.203642,254.414341 Z M349.104537,229.814111 C349.104537,227.402416 348.424033,226.768404 345.808144,226.783477 C345.272865,226.786303 344.731068,226.836233 344.205098,226.928556 C343.145709,227.113201 342.582502,227.990267 342.576916,229.460835 C342.564814,232.849455 342.551781,247.39499 342.579709,250.032781 C342.585295,250.6244 342.369321,250.795857 341.738156,250.79303 C336.978355,250.772305 335.445128,250.778899 330.684396,250.777957 C328.142981,250.777015 327.437342,251.419506 327.443859,253.766198 C327.44479,254.2589 327.486681,254.759138 327.585359,255.242419 C327.724066,255.919766 328.304961,256.792122 330.659261,256.781759 C336.583645,256.79589 339.280524,256.794948 345.205838,256.784585 C345.84445,256.783643 346.488648,256.729003 347.121674,256.641391 C348.47151,256.453919 349.093366,255.765267 349.09802,254.414341 C349.112915,250.658315 349.105468,233.426943 349.104537,229.814111 Z M437.507622,254.414341 C437.513207,255.765267 438.134132,256.453919 439.484899,256.641391 C440.116994,256.729003 440.761192,256.783643 441.400735,256.784585 C447.325118,256.794948 450.021998,256.79589 455.946381,256.781759 C458.301612,256.792122 458.882507,255.919766 459.020283,255.242419 C459.118961,254.759138 459.161783,254.2589 459.162714,253.766198 C459.1683,251.419506 458.462661,250.777015 455.921246,250.777957 C451.160514,250.778899 449.628218,250.772305 444.867486,250.79303 C444.236321,250.795857 444.020348,250.6244 444.026864,250.032781 C444.054792,247.39499 444.040828,232.849455 444.028726,229.460835 C444.02314,227.990267 443.459933,227.113201 442.400544,226.928556 C441.874574,226.836233 441.332778,226.786303 440.797498,226.783477 C438.181609,226.768404 437.501105,227.402416 437.501105,229.814111 C437.501105,233.426943 437.493658,250.658315 437.507622,254.414341 Z M537.409447,229.814111 C537.409447,227.402416 536.728944,226.768404 534.113055,226.783477 C533.577775,226.786303 533.035979,226.836233 532.510008,226.928556 C531.45062,227.113201 530.887412,227.990267 530.881827,229.460835 C530.869725,232.849455 530.855761,247.39499 530.883688,250.032781 C530.890205,250.6244 530.6733,250.795857 530.043066,250.79303 C525.282335,250.772305 523.750038,250.778899 518.989306,250.777957 C516.447891,250.777015 515.742253,251.419506 515.747838,253.766198 C515.748769,254.2589 515.791591,254.759138 515.890269,255.242419 C516.028045,255.919766 516.60894,256.792122 518.96324,256.781759 C524.888555,256.79589 527.585434,256.794948 533.509818,256.784585 C534.149361,256.783643 534.793558,256.729003 535.425654,256.641391 C536.776421,256.453919 537.397345,255.765267 537.402931,254.414341 C537.416895,250.658315 537.409447,233.426943 537.409447,229.814111 Z M206.176457,186.609915 C206.182043,185.258989 206.802967,184.569395 208.153734,184.382866 C208.786761,184.295253 209.430958,184.240613 210.06957,184.239671 C215.994885,184.229309 218.691764,184.227425 224.616148,184.242498 C226.970448,184.231193 227.551343,185.103548 227.689119,185.780895 C227.788728,186.265118 227.830619,186.764415 227.83155,187.257116 C227.838066,189.603808 227.132428,190.246299 224.591013,190.246299 C219.830281,190.245357 218.297053,190.251951 213.536322,190.230284 C212.906088,190.227458 212.689183,190.398914 212.6957,190.991475 C212.723627,193.628324 212.710594,208.174801 212.697561,211.563421 C212.692907,213.03399 212.129699,213.910113 211.070311,214.095701 C210.54434,214.187081 210.001613,214.237953 209.467264,214.240779 C206.851375,214.255852 206.170872,213.620898 206.170872,211.209203 C206.169941,207.597314 206.162494,190.365942 206.176457,186.609915 Z M306.078283,211.209203 C306.078283,213.620898 305.397779,214.255852 302.78189,214.240779 C302.24661,214.237953 301.704814,214.187081 301.178844,214.095701 C300.119455,213.910113 299.556248,213.03399 299.550662,211.563421 C299.53856,208.174801 299.525527,193.628324 299.553455,190.991475 C299.55904,190.398914 299.343067,190.227458 298.711902,190.230284 C293.952101,190.251951 292.418874,190.245357 287.658142,190.246299 C285.116727,190.246299 284.411088,189.603808 284.416674,187.257116 C284.418536,186.764415 284.460427,186.265118 284.559105,185.780895 C284.697812,185.103548 285.278707,184.231193 287.633007,184.242498 C293.55739,184.227425 296.25427,184.229309 302.178653,184.239671 C302.818196,184.240613 303.462394,184.295253 304.09542,184.382866 C305.445256,184.569395 306.067112,185.258989 306.071766,186.609915 C306.086661,190.365942 306.079214,207.597314 306.078283,211.209203 Z M29.355393,186.609915 C29.3600476,185.258989 29.981903,184.569395 31.331739,184.382866 C31.9647655,184.295253 32.6089631,184.240613 33.2485061,184.239671 C39.1728896,184.229309 41.8697688,184.227425 47.7941523,184.242498 C50.1484524,184.231193 50.7293473,185.103548 50.8680546,185.780895 C50.9667323,186.265118 51.0086237,186.764415 51.0104856,187.257116 C51.0160711,189.603808 50.3104327,190.246299 47.7690174,190.246299 C43.0082856,190.245357 41.4750581,190.251951 36.7152572,190.230284 C36.0840925,190.227458 35.8681188,190.398914 35.8737043,190.991475 C35.9016319,193.628324 35.888599,208.174801 35.8764971,211.563421 C35.8709115,213.03399 35.3077041,213.910113 34.2483156,214.095701 C33.722345,214.187081 33.1805488,214.237953 32.645269,214.240779 C30.02938,214.255852 29.3488765,213.620898 29.3488765,211.209203 C29.3479456,207.597314 29.3404982,190.365942 29.355393,186.609915 Z M129.256287,211.209203 C129.256287,213.620898 128.575784,214.255852 125.959895,214.240779 C125.424615,214.237953 124.882819,214.187081 124.356848,214.095701 C123.29746,213.910113 122.734252,213.03399 122.729598,211.563421 C122.716565,208.174801 122.703532,193.628324 122.73146,190.991475 C122.737045,190.398914 122.521071,190.227458 121.889907,190.230284 C117.130106,190.251951 115.596878,190.245357 110.836147,190.246299 C108.294731,190.246299 107.589093,189.603808 107.595609,187.257116 C107.59654,186.764415 107.638432,186.265118 107.737109,185.780895 C107.875817,185.103548 108.456712,184.231193 110.811012,184.242498 C116.735395,184.227425 119.432274,184.229309 125.357589,184.239671 C125.996201,184.240613 126.640398,184.295253 127.273425,184.382866 C128.624192,184.569395 129.245116,185.258989 129.249771,186.609915 C129.264666,190.365942 129.257218,207.597314 129.256287,211.209203 Z M567.797513,186.609915 C567.803099,185.258989 568.424023,184.569395 569.77479,184.382866 C570.406886,184.295253 571.051083,184.240613 571.690626,184.239671 C577.61501,184.229309 580.311889,184.227425 586.236272,184.242498 C588.590572,184.231193 589.171467,185.103548 589.310175,185.780895 C589.408852,186.265118 589.450744,186.764415 589.452606,187.257116 C589.458191,189.603808 588.752553,190.246299 586.211137,190.246299 C581.450406,190.245357 579.918109,190.251951 575.157377,190.230284 C574.526213,190.227458 574.310239,190.398914 574.316755,190.991475 C574.343752,193.628324 574.330719,208.174801 574.318617,211.563421 C574.313032,213.03399 573.749824,213.910113 572.690436,214.095701 C572.164465,214.187081 571.622669,214.237953 571.087389,214.240779 C568.4715,214.255852 567.790997,213.620898 567.790997,211.209203 C567.790997,207.597314 567.782618,190.365942 567.797513,186.609915 Z M667.699338,211.209203 C667.698407,213.620898 667.017904,214.255852 664.402946,214.240779 C663.867666,214.237953 663.324939,214.187081 662.799899,214.095701 C661.740511,213.910113 661.176372,213.03399 661.171718,211.563421 C661.159616,208.174801 661.145652,193.628324 661.17358,190.991475 C661.180096,190.398914 660.963191,190.227458 660.332958,190.230284 C655.572226,190.251951 654.038998,190.245357 649.279198,190.246299 C646.736851,190.246299 646.032144,189.603808 646.037729,187.257116 C646.03866,186.764415 646.081483,186.265118 646.18016,185.780895 C646.317937,185.103548 646.898832,184.231193 649.253132,184.242498 C655.178446,184.227425 657.875325,184.229309 663.799709,184.239671 C664.438321,184.240613 665.083449,184.295253 665.715545,184.382866 C667.066312,184.569395 667.687236,185.258989 667.692822,186.609915 C667.706786,190.365942 667.699338,207.597314 667.699338,211.209203 Z M390.975518,186.609915 C390.981103,185.258989 391.602028,184.569395 392.952795,184.382866 C393.58489,184.295253 394.229088,184.240613 394.868631,184.239671 C400.793014,184.229309 403.489894,184.227425 409.415208,184.242498 C411.769508,184.231193 412.350403,185.103548 412.488179,185.780895 C412.586857,186.265118 412.629679,186.764415 412.63061,187.257116 C412.636196,189.603808 411.930557,190.246299 409.389142,190.246299 C404.62841,190.245357 403.096114,190.251951 398.335382,190.230284 C397.705148,190.227458 397.488244,190.398914 397.49476,190.991475 C397.522688,193.628324 397.508724,208.174801 397.496622,211.563421 C397.491036,213.03399 396.927829,213.910113 395.86844,214.095701 C395.34247,214.187081 394.800674,214.237953 394.265394,214.240779 C391.649505,214.255852 390.969001,213.620898 390.969001,211.209203 C390.969001,207.597314 390.961554,190.365942 390.975518,186.609915 Z M490.877343,211.209203 C490.877343,213.620898 490.19684,214.255852 487.580951,214.240779 C487.045671,214.237953 486.503875,214.187081 485.977904,214.095701 C484.918516,213.910113 484.355308,213.03399 484.349723,211.563421 C484.337621,208.174801 484.323657,193.628324 484.351584,190.991475 C484.358101,190.398914 484.142127,190.227458 483.510962,190.230284 C478.750231,190.251951 477.217934,190.245357 472.457202,190.246299 C469.915787,190.246299 469.210149,189.603808 469.215734,187.257116 C469.216665,186.764415 469.259487,186.265118 469.358165,185.780895 C469.496872,185.103548 470.076836,184.231193 472.432067,184.242498 C478.356451,184.227425 481.05333,184.229309 486.977714,184.239671 C487.617257,184.240613 488.261454,184.295253 488.89355,184.382866 C490.244317,184.569395 490.865241,185.258989 490.870827,186.609915 C490.885721,190.365942 490.877343,207.597314 490.877343,211.209203 Z M611.543369,164.451526 C611.548024,165.802452 612.168949,166.492046 613.519715,166.678576 C614.152742,166.766188 614.79694,166.820828 615.435552,166.82177 C621.360866,166.833075 624.057745,166.834017 629.982129,166.819886 C632.336429,166.830249 632.917324,165.957893 633.056031,165.280546 C633.154709,164.796323 633.1966,164.297027 633.197531,163.804325 C633.204048,161.457633 632.498409,160.815142 629.956994,160.815142 C625.196262,160.817027 623.663035,160.80949 618.903234,160.831158 C618.272069,160.833984 618.055164,160.662527 618.061681,160.069966 C618.089608,157.433117 618.076575,142.88664 618.063543,139.498962 C618.058888,138.028394 617.495681,137.151328 616.436292,136.966683 C615.910321,136.87436 615.368525,136.82443 614.833245,136.820662 C612.217356,136.806531 611.536853,137.440543 611.536853,139.852238 C611.535922,143.464128 611.528475,160.6955 611.543369,164.451526 Z M711.444264,139.852238 C711.444264,137.440543 710.76376,136.806531 708.147871,136.820662 C707.612592,136.82443 707.070795,136.87436 706.544825,136.966683 C705.485436,137.151328 704.922229,138.028394 704.916643,139.498962 C704.904541,142.88664 704.891508,157.433117 704.919436,160.069966 C704.925022,160.662527 704.709048,160.833984 704.077883,160.831158 C699.318082,160.80949 697.784855,160.817027 693.024123,160.815142 C690.482708,160.815142 689.777069,161.457633 689.782655,163.804325 C689.784517,164.297027 689.826408,164.796323 689.925086,165.280546 C690.063793,165.957893 690.644688,166.830249 692.998988,166.819886 C698.923372,166.834017 701.620251,166.833075 707.544634,166.82177 C708.184177,166.820828 708.828375,166.766188 709.461401,166.678576 C710.811237,166.492046 711.433093,165.802452 711.437747,164.451526 C711.452642,160.6955 711.445195,143.464128 711.444264,139.852238 Z M73.5508844,164.451526 C73.5564699,165.802452 74.1773945,166.492046 75.5281613,166.678576 C76.1602569,166.766188 76.8044545,166.820828 77.4439975,166.82177 C83.368381,166.833075 86.0652602,166.834017 91.9896437,166.819886 C94.3448747,166.830249 94.9248387,165.957893 95.063546,165.280546 C95.1622237,164.796323 95.2050461,164.297027 95.205977,163.804325 C95.2115625,161.457633 94.5059241,160.815142 91.9645088,160.815142 C87.203777,160.817027 85.6714804,160.80949 80.9107486,160.831158 C80.2795839,160.833984 80.0636102,160.662527 80.0701266,160.069966 C80.0980543,157.433117 80.0840905,142.88664 80.0719885,139.498962 C80.066403,138.028394 79.5031955,137.151328 78.443807,136.966683 C77.9178365,136.87436 77.3760402,136.82443 76.8407605,136.820662 C74.2248714,136.806531 73.5443679,137.440543 73.5443679,139.852238 C73.5443679,143.464128 73.5369206,160.6955 73.5508844,164.451526 Z M173.45271,139.852238 C173.45271,137.440543 172.772206,136.806531 170.156317,136.820662 C169.621037,136.82443 169.079241,136.87436 168.553271,136.966683 C167.493882,137.151328 166.930675,138.028394 166.925089,139.498962 C166.912987,142.88664 166.899023,157.433117 166.926951,160.069966 C166.933468,160.662527 166.716563,160.833984 166.086329,160.831158 C161.325597,160.80949 159.79237,160.817027 155.032569,160.815142 C152.491154,160.815142 151.785515,161.457633 151.791101,163.804325 C151.792032,164.297027 151.834854,164.796323 151.933532,165.280546 C152.071308,165.957893 152.652203,166.830249 155.007434,166.819886 C160.931818,166.834017 163.628697,166.833075 169.55308,166.82177 C170.192623,166.820828 170.836821,166.766188 171.468916,166.678576 C172.819683,166.492046 173.440608,165.802452 173.446193,164.451526 C173.460157,160.6955 173.45271,143.464128 173.45271,139.852238 Z M249.203642,164.451526 C249.208297,165.802452 249.830153,166.492046 251.179988,166.678576 C251.813015,166.766188 252.457213,166.820828 253.095825,166.82177 C259.021139,166.833075 261.718018,166.834017 267.642402,166.819886 C269.996702,166.830249 270.577597,165.957893 270.716304,165.280546 C270.814982,164.796323 270.856873,164.297027 270.857804,163.804325 C270.864321,161.457633 270.158682,160.815142 267.617267,160.815142 C262.856535,160.817027 261.323308,160.80949 256.563507,160.831158 C255.932342,160.833984 255.716368,160.662527 255.721954,160.069966 C255.749881,157.433117 255.736849,142.88664 255.724747,139.498962 C255.719161,138.028394 255.155954,137.151328 254.096565,136.966683 C253.570595,136.87436 253.028798,136.82443 252.493519,136.820662 C249.87763,136.806531 249.197126,137.440543 249.197126,139.852238 C249.196195,143.464128 249.188748,160.6955 249.203642,164.451526 Z M349.104537,139.852238 C349.104537,137.440543 348.424033,136.806531 345.808144,136.820662 C345.272865,136.82443 344.731068,136.87436 344.205098,136.966683 C343.145709,137.151328 342.582502,138.028394 342.576916,139.498962 C342.564814,142.88664 342.551781,157.433117 342.579709,160.069966 C342.585295,160.662527 342.369321,160.833984 341.738156,160.831158 C336.978355,160.80949 335.445128,160.817027 330.684396,160.815142 C328.142981,160.815142 327.437342,161.457633 327.443859,163.804325 C327.44479,164.297027 327.486681,164.796323 327.585359,165.280546 C327.724066,165.957893 328.304961,166.830249 330.659261,166.819886 C336.583645,166.834017 339.280524,166.833075 345.205838,166.82177 C345.84445,166.820828 346.488648,166.766188 347.121674,166.678576 C348.47151,166.492046 349.093366,165.802452 349.09802,164.451526 C349.112915,160.6955 349.105468,143.464128 349.104537,139.852238 Z M437.507622,164.451526 C437.513207,165.802452 438.134132,166.492046 439.484899,166.678576 C440.116994,166.766188 440.761192,166.820828 441.400735,166.82177 C447.325118,166.833075 450.021998,166.834017 455.946381,166.819886 C458.301612,166.830249 458.882507,165.957893 459.020283,165.280546 C459.118961,164.796323 459.161783,164.297027 459.162714,163.804325 C459.1683,161.457633 458.462661,160.815142 455.921246,160.815142 C451.160514,160.817027 449.628218,160.80949 444.867486,160.831158 C444.236321,160.833984 444.020348,160.662527 444.026864,160.069966 C444.054792,157.433117 444.040828,142.88664 444.028726,139.498962 C444.02314,138.028394 443.459933,137.151328 442.400544,136.966683 C441.874574,136.87436 441.332778,136.82443 440.797498,136.820662 C438.181609,136.806531 437.501105,137.440543 437.501105,139.852238 C437.501105,143.464128 437.493658,160.6955 437.507622,164.451526 Z M537.409447,139.852238 C537.409447,137.440543 536.728944,136.806531 534.113055,136.820662 C533.577775,136.82443 533.035979,136.87436 532.510008,136.966683 C531.45062,137.151328 530.887412,138.028394 530.881827,139.498962 C530.869725,142.88664 530.855761,157.433117 530.883688,160.069966 C530.890205,160.662527 530.6733,160.833984 530.043066,160.831158 C525.282335,160.80949 523.750038,160.817027 518.989306,160.815142 C516.447891,160.815142 515.742253,161.457633 515.747838,163.804325 C515.748769,164.297027 515.791591,164.796323 515.890269,165.280546 C516.028045,165.957893 516.60894,166.830249 518.96324,166.819886 C524.888555,166.834017 527.585434,166.833075 533.509818,166.82177 C534.149361,166.820828 534.793558,166.766188 535.425654,166.678576 C536.776421,166.492046 537.397345,165.802452 537.402931,164.451526 C537.416895,160.6955 537.409447,143.464128 537.409447,139.852238 Z M206.176457,96.6480424 C206.182043,95.2971164 206.802967,94.6075224 208.153734,94.4209929 C208.786761,94.3333805 209.430958,94.2787406 210.06957,94.2768564 C215.994885,94.2664937 218.691764,94.2655516 224.616148,94.2796826 C226.970448,94.2693199 227.551343,95.1416752 227.689119,95.8190223 C227.788728,96.3023033 227.830619,96.8025416 227.83155,97.2952433 C227.838066,99.6419356 227.132428,100.284426 224.591013,100.284426 C219.830281,100.282542 218.297053,100.290079 213.536322,100.268411 C212.906088,100.265585 212.689183,100.437041 212.6957,101.029602 C212.723627,103.666451 212.710594,118.211986 212.697561,121.600606 C212.692907,123.071175 212.129699,123.94824 211.070311,124.132886 C210.54434,124.225209 210.001613,124.275138 209.467264,124.278906 C206.851375,124.293037 206.170872,123.659026 206.170872,121.247331 C206.169941,117.635441 206.162494,100.404069 206.176457,96.6480424 Z M306.078283,121.247331 C306.078283,123.659026 305.397779,124.293037 302.78189,124.278906 C302.24661,124.275138 301.704814,124.225209 301.178844,124.132886 C300.119455,123.94824 299.556248,123.071175 299.550662,121.600606 C299.53856,118.211986 299.525527,103.666451 299.553455,101.029602 C299.55904,100.437041 299.343067,100.265585 298.711902,100.268411 C293.952101,100.290079 292.418874,100.282542 287.658142,100.284426 C285.116727,100.284426 284.411088,99.6419356 284.416674,97.2952433 C284.418536,96.8025416 284.460427,96.3023033 284.559105,95.8190223 C284.697812,95.1416752 285.278707,94.2693199 287.633007,94.2796826 C293.55739,94.2655516 296.25427,94.2664937 302.178653,94.2768564 C302.818196,94.2787406 303.462394,94.3333805 304.09542,94.4209929 C305.445256,94.6075224 306.067112,95.2971164 306.071766,96.6480424 C306.086661,100.404069 306.079214,117.635441 306.078283,121.247331 Z M29.355393,96.6480424 C29.3600476,95.2971164 29.981903,94.6075224 31.331739,94.4209929 C31.9647655,94.3333805 32.6089631,94.2787406 33.2485061,94.2768564 C39.1728896,94.2664937 41.8697688,94.2655516 47.7941523,94.2796826 C50.1484524,94.2693199 50.7293473,95.1416752 50.8680546,95.8190223 C50.9667323,96.3023033 51.0086237,96.8025416 51.0104856,97.2952433 C51.0160711,99.6419356 50.3104327,100.284426 47.7690174,100.284426 C43.0082856,100.282542 41.4750581,100.290079 36.7152572,100.268411 C36.0840925,100.265585 35.8681188,100.437041 35.8737043,101.029602 C35.9016319,103.666451 35.888599,118.211986 35.8764971,121.600606 C35.8709115,123.071175 35.3077041,123.94824 34.2483156,124.132886 C33.722345,124.225209 33.1805488,124.275138 32.645269,124.278906 C30.02938,124.293037 29.3488765,123.659026 29.3488765,121.247331 C29.3479456,117.635441 29.3404982,100.404069 29.355393,96.6480424 Z M129.256287,121.247331 C129.256287,123.659026 128.575784,124.293037 125.959895,124.278906 C125.424615,124.275138 124.882819,124.225209 124.356848,124.132886 C123.29746,123.94824 122.734252,123.071175 122.729598,121.600606 C122.716565,118.211986 122.703532,103.666451 122.73146,101.029602 C122.737045,100.437041 122.521071,100.265585 121.889907,100.268411 C117.130106,100.290079 115.596878,100.282542 110.836147,100.284426 C108.294731,100.284426 107.589093,99.6419356 107.595609,97.2952433 C107.59654,96.8025416 107.638432,96.3023033 107.737109,95.8190223 C107.875817,95.1416752 108.456712,94.2693199 110.811012,94.2796826 C116.735395,94.2655516 119.432274,94.2664937 125.357589,94.2768564 C125.996201,94.2787406 126.640398,94.3333805 127.273425,94.4209929 C128.624192,94.6075224 129.245116,95.2971164 129.249771,96.6480424 C129.264666,100.404069 129.257218,117.635441 129.256287,121.247331 Z M567.797513,96.6480424 C567.803099,95.2971164 568.424023,94.6075224 569.77479,94.4209929 C570.406886,94.3333805 571.051083,94.2787406 571.690626,94.2768564 C577.61501,94.2664937 580.311889,94.2655516 586.236272,94.2796826 C588.590572,94.2693199 589.171467,95.1416752 589.310175,95.8190223 C589.408852,96.3023033 589.450744,96.8025416 589.452606,97.2952433 C589.458191,99.6419356 588.752553,100.284426 586.211137,100.284426 C581.450406,100.282542 579.918109,100.290079 575.157377,100.268411 C574.526213,100.265585 574.310239,100.437041 574.316755,101.029602 C574.343752,103.666451 574.330719,118.211986 574.318617,121.600606 C574.313032,123.071175 573.749824,123.94824 572.690436,124.132886 C572.164465,124.225209 571.622669,124.275138 571.087389,124.278906 C568.4715,124.293037 567.790997,123.659026 567.790997,121.247331 C567.790997,117.635441 567.782618,100.404069 567.797513,96.6480424 Z M667.699338,121.247331 C667.698407,123.659026 667.017904,124.293037 664.402946,124.278906 C663.867666,124.275138 663.324939,124.225209 662.799899,124.132886 C661.740511,123.94824 661.176372,123.071175 661.171718,121.600606 C661.159616,118.211986 661.145652,103.666451 661.17358,101.029602 C661.180096,100.437041 660.963191,100.265585 660.332958,100.268411 C655.572226,100.290079 654.038998,100.282542 649.279198,100.284426 C646.736851,100.284426 646.032144,99.6419356 646.037729,97.2952433 C646.03866,96.8025416 646.081483,96.3023033 646.18016,95.8190223 C646.317937,95.1416752 646.898832,94.2693199 649.253132,94.2796826 C655.178446,94.2655516 657.875325,94.2664937 663.799709,94.2768564 C664.438321,94.2787406 665.083449,94.3333805 665.715545,94.4209929 C667.066312,94.6075224 667.687236,95.2971164 667.692822,96.6480424 C667.706786,100.404069 667.699338,117.635441 667.699338,121.247331 Z M390.975518,96.6480424 C390.981103,95.2971164 391.602028,94.6075224 392.952795,94.4209929 C393.58489,94.3333805 394.229088,94.2787406 394.868631,94.2768564 C400.793014,94.2664937 403.489894,94.2655516 409.415208,94.2796826 C411.769508,94.2693199 412.350403,95.1416752 412.488179,95.8190223 C412.586857,96.3023033 412.629679,96.8025416 412.63061,97.2952433 C412.636196,99.6419356 411.930557,100.284426 409.389142,100.284426 C404.62841,100.282542 403.096114,100.290079 398.335382,100.268411 C397.705148,100.265585 397.488244,100.437041 397.49476,101.029602 C397.522688,103.666451 397.508724,118.211986 397.496622,121.600606 C397.491036,123.071175 396.927829,123.94824 395.86844,124.132886 C395.34247,124.225209 394.800674,124.275138 394.265394,124.278906 C391.649505,124.293037 390.969001,123.659026 390.969001,121.247331 C390.969001,117.635441 390.961554,100.404069 390.975518,96.6480424 Z M490.877343,121.247331 C490.877343,123.659026 490.19684,124.293037 487.580951,124.278906 C487.045671,124.275138 486.503875,124.225209 485.977904,124.132886 C484.918516,123.94824 484.355308,123.071175 484.349723,121.600606 C484.337621,118.211986 484.323657,103.666451 484.351584,101.029602 C484.358101,100.437041 484.142127,100.265585 483.510962,100.268411 C478.750231,100.290079 477.217934,100.282542 472.457202,100.284426 C469.915787,100.284426 469.210149,99.6419356 469.215734,97.2952433 C469.216665,96.8025416 469.259487,96.3023033 469.358165,95.8190223 C469.496872,95.1416752 470.076836,94.2693199 472.432067,94.2796826 C478.356451,94.2655516 481.05333,94.2664937 486.977714,94.2768564 C487.617257,94.2787406 488.261454,94.3333805 488.89355,94.4209929 C490.244317,94.6075224 490.865241,95.2971164 490.870827,96.6480424 C490.885721,100.404069 490.877343,117.635441 490.877343,121.247331 Z" id="Fill-4"></path>
                </g>
            </g>
        </g>
    </g>
</svg>