<?xml version="1.0" encoding="utf-8"?>
<svg width="674px" height="370px" viewBox="0 0 674 370" version="1.1" xmlns="http://www.w3.org/2000/svg" xmlns:xlink="http://www.w3.org/1999/xlink">
    <g id="Homepage" stroke="none" stroke-width="1" fill="none" fill-rule="evenodd" opacity="0.264625186">
        <g id="Home---Desktop-1440px" transform="translate(-408.000000, -520.000000)" fill="#FFFFFE">
            <g id="Group-24" transform="translate(337.000000, -173.000000)">
                <g id="Group-4-Copy-3" opacity="0.615327381" transform="translate(390.500000, 728.000000) rotate(-180.000000) translate(-390.500000, -728.000000) translate(0.000000, 393.000000)">
                    <path d="M223.190649,339.669514 C223.196537,338.234097 223.851076,337.501374 225.274968,337.303178 C225.942264,337.210086 226.621337,337.152029 227.294521,337.151028 C233.54061,337.139016 236.383489,337.138015 242.628597,337.154031 C245.11035,337.142019 245.722693,338.068934 245.867928,338.788645 C245.972929,339.303152 246.017088,339.833676 246.018069,340.357193 C246.024939,342.850654 245.281099,343.533328 242.602101,343.533328 C237.583641,343.532327 235.96741,343.539334 230.948949,343.516311 C230.284597,343.513308 230.05595,343.695488 230.062819,344.325109 C230.092259,347.126875 230.07852,362.583131 230.064782,366.183685 C230.059875,367.746227 229.466178,368.677146 228.349438,368.874341 C227.794993,368.971436 227.222885,369.02549 226.659608,369.028493 C223.902104,369.044509 223.184761,368.369843 223.184761,365.807313 C223.183779,361.969525 223.175929,343.660453 223.190649,339.669514 Z M328.500796,365.807313 C328.500796,368.369843 327.783452,369.044509 325.025949,369.028493 C324.461691,369.02549 323.890564,368.971436 323.336119,368.874341 C322.219379,368.677146 321.625682,367.746227 321.619794,366.183685 C321.607037,362.583131 321.593298,347.126875 321.622738,344.325109 C321.628626,343.695488 321.40096,343.513308 320.735626,343.516311 C315.718147,343.539334 314.101916,343.532327 309.083456,343.533328 C306.404457,343.533328 305.660618,342.850654 305.666506,340.357193 C305.668469,339.833676 305.712628,339.303152 305.816648,338.788645 C305.962864,338.068934 306.575207,337.142019 309.05696,337.154031 C315.302068,337.138015 318.144946,337.139016 324.390055,337.151028 C325.06422,337.152029 325.743292,337.210086 326.410588,337.303178 C327.8335,337.501374 328.48902,338.234097 328.493927,339.669514 C328.509628,343.660453 328.501777,361.969525 328.500796,365.807313 Z M36.7971343,339.669514 C36.8020409,338.234097 37.4575614,337.501374 38.8804725,337.303178 C39.5477688,337.210086 40.2268409,337.152029 40.9010064,337.151028 C47.1461145,337.139016 49.988993,337.138015 56.2341011,337.154031 C58.7158544,337.142019 59.3281969,338.068934 59.4744133,338.788645 C59.578433,339.303152 59.6225923,339.833676 59.624555,340.357193 C59.6304429,342.850654 58.8866038,343.533328 56.2076055,343.533328 C51.1891449,343.532327 49.5729141,343.539334 44.5554349,343.516311 C43.8901012,343.513308 43.6624354,343.695488 43.6683233,344.325109 C43.6977629,347.126875 43.6840244,362.583131 43.6712673,366.183685 C43.6653794,367.746227 43.071682,368.677146 41.954942,368.874341 C41.4004973,368.971436 40.8293702,369.02549 40.2651123,369.028493 C37.5076086,369.044509 36.7902651,368.369843 36.7902651,365.807313 C36.7892838,361.969525 36.7814332,343.660453 36.7971343,339.669514 Z M142.1063,365.807313 C142.1063,368.369843 141.388957,369.044509 138.631453,369.028493 C138.067195,369.02549 137.496068,368.971436 136.941623,368.874341 C135.824883,368.677146 135.231186,367.746227 135.226279,366.183685 C135.212541,362.583131 135.198802,347.126875 135.228242,344.325109 C135.23413,343.695488 135.006464,343.513308 134.34113,343.516311 C129.323651,343.539334 127.70742,343.532327 122.68896,343.533328 C120.009962,343.533328 119.266122,342.850654 119.272992,340.357193 C119.273973,339.833676 119.318132,339.303152 119.422152,338.788645 C119.568368,338.068934 120.180711,337.142019 122.662464,337.154031 C128.907572,337.138015 131.750451,337.139016 137.99654,337.151028 C138.669724,337.152029 139.348797,337.210086 140.016093,337.303178 C141.439985,337.501374 142.094524,338.234097 142.099431,339.669514 C142.115132,343.660453 142.107282,361.969525 142.1063,365.807313 Z M604.388554,339.669514 C604.394442,338.234097 605.048981,337.501374 606.472874,337.303178 C607.139189,337.210086 607.818261,337.152029 608.492427,337.151028 C614.737535,337.139016 617.580413,337.138015 623.825521,337.154031 C626.307275,337.142019 626.919617,338.068934 627.065833,338.788645 C627.169853,339.303152 627.214012,339.833676 627.215975,340.357193 C627.221863,342.850654 626.478024,343.533328 623.799026,343.533328 C618.780565,343.532327 617.165316,343.539334 612.146855,343.516311 C611.481521,343.513308 611.253856,343.695488 611.260725,344.325109 C611.289183,347.126875 611.275445,362.583131 611.262687,366.183685 C611.2568,367.746227 610.663102,368.677146 609.546362,368.874341 C608.991917,368.971436 608.42079,369.02549 607.856532,369.028493 C605.099029,369.044509 604.381685,368.369843 604.381685,365.807313 C604.381685,361.969525 604.372853,343.660453 604.388554,339.669514 Z M709.698702,365.807313 C709.69772,368.369843 708.980377,369.044509 706.223854,369.028493 C705.659597,369.02549 705.087488,368.971436 704.534025,368.874341 C703.417285,368.677146 702.822606,367.746227 702.817699,366.183685 C702.804942,362.583131 702.790223,347.126875 702.819662,344.325109 C702.826531,343.695488 702.597884,343.513308 701.933532,343.516311 C696.915071,343.539334 695.298841,343.532327 690.281361,343.533328 C687.601382,343.533328 686.858524,342.850654 686.864412,340.357193 C686.865393,339.833676 686.910534,339.303152 687.014553,338.788645 C687.159789,338.068934 687.772131,337.142019 690.253884,337.154031 C696.499974,337.138015 699.342852,337.139016 705.58796,337.151028 C706.261145,337.152029 706.941198,337.210086 707.607513,337.303178 C709.031405,337.501374 709.685945,338.234097 709.691832,339.669514 C709.706552,343.660453 709.698702,361.969525 709.698702,365.807313 Z M417.994059,339.669514 C417.999947,338.234097 418.654486,337.501374 420.078378,337.303178 C420.744693,337.210086 421.423765,337.152029 422.097931,337.151028 C428.343039,337.139016 431.185917,337.138015 437.432007,337.154031 C439.91376,337.142019 440.526103,338.068934 440.671338,338.788645 C440.775357,339.303152 440.820498,339.833676 440.821479,340.357193 C440.827367,342.850654 440.083528,343.533328 437.40453,343.533328 C432.386069,343.532327 430.77082,343.539334 425.752359,343.516311 C425.088007,343.513308 424.85936,343.695488 424.866229,344.325109 C424.895669,347.126875 424.880949,362.583131 424.868192,366.183685 C424.862304,367.746227 424.268606,368.677146 423.151866,368.874341 C422.597422,368.971436 422.026295,369.02549 421.462037,369.028493 C418.704533,369.044509 417.98719,368.369843 417.98719,365.807313 C417.98719,361.969525 417.979339,343.660453 417.994059,339.669514 Z M523.304206,365.807313 C523.304206,368.369843 522.586863,369.044509 519.829359,369.028493 C519.265101,369.02549 518.693974,368.971436 518.139529,368.874341 C517.022789,368.677146 516.429092,367.746227 516.423204,366.183685 C516.410447,362.583131 516.395727,347.126875 516.425166,344.325109 C516.432036,343.695488 516.20437,343.513308 515.539036,343.516311 C510.520576,343.539334 508.905326,343.532327 503.886866,343.533328 C501.207867,343.533328 500.464028,342.850654 500.469916,340.357193 C500.470897,339.833676 500.516038,339.303152 500.620058,338.788645 C500.766274,338.068934 501.377635,337.142019 503.86037,337.154031 C510.105478,337.138015 512.948357,337.139016 519.193465,337.151028 C519.86763,337.152029 520.546702,337.210086 521.213017,337.303178 C522.63691,337.501374 523.291449,338.234097 523.297337,339.669514 C523.313038,343.660453 523.304206,361.969525 523.304206,365.807313 Z M650.502653,316.125275 C650.507559,317.560692 651.162098,318.293415 652.585991,318.49161 C653.253287,318.584702 653.932359,318.64276 654.605543,318.643761 C660.851633,318.654771 663.694511,318.656773 669.939619,318.640758 C672.421373,318.65277 673.033715,317.725855 673.179932,317.006144 C673.283951,316.491636 673.328111,315.961113 673.329092,315.437596 C673.335961,312.944135 672.592122,312.261461 669.913124,312.261461 C664.894663,312.262462 663.278432,312.255455 658.260953,312.278478 C657.595619,312.281481 657.366972,312.099301 657.373842,311.469679 C657.403281,308.667914 657.389543,293.211658 657.375804,289.611104 C657.370898,288.048562 656.7772,287.117643 655.66046,286.920448 C655.106016,286.823352 654.534888,286.769299 653.970631,286.766296 C651.213127,286.75028 650.495783,287.424946 650.495783,289.987475 C650.494802,293.825264 650.486951,312.134336 650.502653,316.125275 Z M83.3852091,316.125275 C83.391097,317.560692 84.0456361,318.293415 85.4695286,318.49161 C86.1358436,318.584702 86.8149157,318.64276 87.4890812,318.643761 C93.7341893,318.654771 96.5770677,318.656773 102.822176,318.640758 C105.30491,318.65277 105.916272,317.725855 106.062488,317.006144 C106.166508,316.491636 106.211648,315.961113 106.21263,315.437596 C106.218518,312.944135 105.474679,312.261461 102.79568,312.261461 C97.7772197,312.262462 96.1619702,312.255455 91.1435096,312.278478 C90.478176,312.281481 90.2505102,312.099301 90.2573794,311.469679 C90.286819,308.667914 90.2720992,293.211658 90.259342,289.611104 C90.2534541,288.048562 89.6597567,287.117643 88.5430168,286.920448 C87.9885721,286.823352 87.417445,286.769299 86.8531871,286.766296 C84.0956833,286.75028 83.3783398,287.424946 83.3783398,289.987475 C83.3783398,293.825264 83.3704893,312.134336 83.3852091,316.125275 Z M188.695356,289.987475 C188.695356,287.424946 187.978013,286.75028 185.220509,286.766296 C184.656251,286.769299 184.085124,286.823352 183.530679,286.920448 C182.413939,287.117643 181.820242,288.048562 181.814354,289.611104 C181.801597,293.211658 181.786877,308.667914 181.816317,311.469679 C181.823186,312.099301 181.594539,312.281481 180.930187,312.278478 C175.911726,312.255455 174.295495,312.262462 169.278016,312.261461 C166.599018,312.261461 165.855179,312.944135 165.861066,315.437596 C165.862048,315.961113 165.907188,316.491636 166.011208,317.006144 C166.156443,317.725855 166.768786,318.65277 169.25152,318.640758 C175.496628,318.656773 178.339507,318.654771 184.584615,318.643761 C185.25878,318.64276 185.937853,318.584702 186.604168,318.49161 C188.02806,318.293415 188.682599,317.560692 188.688487,316.125275 C188.703207,312.134336 188.695356,293.825264 188.695356,289.987475 Z M268.547169,316.125275 C268.552076,317.560692 269.207596,318.293415 270.630507,318.49161 C271.297804,318.584702 271.976876,318.64276 272.65006,318.643761 C278.896149,318.654771 281.739028,318.656773 287.984136,318.640758 C290.465889,318.65277 291.078232,317.725855 291.224448,317.006144 C291.328468,316.491636 291.372627,315.961113 291.373609,315.437596 C291.380478,312.944135 290.636639,312.261461 287.95764,312.261461 C282.93918,312.262462 281.322949,312.255455 276.30547,312.278478 C275.640136,312.281481 275.41247,312.099301 275.418358,311.469679 C275.447798,308.667914 275.434059,293.211658 275.421302,289.611104 C275.415414,288.048562 274.821717,287.117643 273.704977,286.920448 C273.150532,286.823352 272.579405,286.769299 272.015147,286.766296 C269.257644,286.75028 268.5403,287.424946 268.5403,289.987475 C268.539319,293.825264 268.531468,312.134336 268.547169,316.125275 Z M373.856335,289.987475 C373.856335,287.424946 373.138992,286.75028 370.381488,286.766296 C369.81723,286.769299 369.246103,286.823352 368.691658,286.920448 C367.574918,287.117643 366.981221,288.048562 366.975333,289.611104 C366.962576,293.211658 366.948837,308.667914 366.978277,311.469679 C366.984165,312.099301 366.756499,312.281481 366.091165,312.278478 C361.073686,312.255455 359.457455,312.262462 354.438995,312.261461 C351.759997,312.261461 351.016157,312.944135 351.023027,315.437596 C351.024008,315.961113 351.068167,316.491636 351.172187,317.006144 C351.318403,317.725855 351.930746,318.65277 354.412499,318.640758 C360.657607,318.656773 363.500486,318.654771 369.746575,318.643761 C370.419759,318.64276 371.098831,318.584702 371.766128,318.49161 C373.189039,318.293415 373.844559,317.560692 373.849466,316.125275 C373.865167,312.134336 373.857317,293.825264 373.856335,289.987475 Z M467.045242,316.125275 C467.05113,317.560692 467.705669,318.293415 469.129561,318.49161 C469.795876,318.584702 470.474948,318.64276 471.149114,318.643761 C477.394222,318.654771 480.2371,318.656773 486.482209,318.640758 C488.964943,318.65277 489.577286,317.725855 489.722521,317.006144 C489.826541,316.491636 489.871681,315.961113 489.872662,315.437596 C489.87855,312.944135 489.134711,312.261461 486.455713,312.261461 C481.437252,312.262462 479.822003,312.255455 474.803542,312.278478 C474.138209,312.281481 473.910543,312.099301 473.917412,311.469679 C473.946852,308.667914 473.932132,293.211658 473.919375,289.611104 C473.913487,288.048562 473.319789,287.117643 472.20305,286.920448 C471.648605,286.823352 471.077478,286.769299 470.51322,286.766296 C467.755716,286.75028 467.038373,287.424946 467.038373,289.987475 C467.038373,293.825264 467.030522,312.134336 467.045242,316.125275 Z M572.355389,289.987475 C572.355389,287.424946 571.638046,286.75028 568.880542,286.766296 C568.316284,286.769299 567.745157,286.823352 567.190712,286.920448 C566.073972,287.117643 565.480275,288.048562 565.474387,289.611104 C565.46163,293.211658 565.44691,308.667914 565.47635,311.469679 C565.483219,312.099301 565.254572,312.281481 564.590219,312.278478 C559.571759,312.255455 557.956509,312.262462 552.938049,312.261461 C550.25905,312.261461 549.515211,312.944135 549.521099,315.437596 C549.522081,315.961113 549.567221,316.491636 549.671241,317.006144 C549.816476,317.725855 550.428818,318.65277 552.910572,318.640758 C559.156661,318.656773 561.99954,318.654771 568.244648,318.643761 C568.918813,318.64276 569.597885,318.584702 570.2642,318.49161 C571.688093,318.293415 572.342632,317.560692 572.34852,316.125275 C572.36324,312.134336 572.355389,293.825264 572.355389,289.987475 Z M223.190649,244.080163 C223.196537,242.644746 223.851076,241.913024 225.274968,241.713827 C225.942264,241.620735 226.621337,241.563679 227.294521,241.561677 C233.54061,241.550666 236.383489,241.549665 242.628597,241.56468 C245.11035,241.553669 245.722693,242.480584 245.867928,243.200294 C245.972929,243.713801 246.017088,244.245326 246.018069,244.768842 C246.024939,247.262304 245.281099,247.944977 242.602101,247.943977 C237.583641,247.942976 235.96741,247.950983 230.948949,247.927961 C230.284597,247.924958 230.05595,248.107138 230.062819,248.735758 C230.092259,251.538524 230.07852,266.99378 230.064782,270.594334 C230.059875,272.156876 229.466178,273.088796 228.349438,273.284989 C227.794993,273.383086 227.222885,273.436139 226.659608,273.440142 C223.902104,273.455157 223.184761,272.781492 223.184761,270.218963 C223.183779,266.380174 223.175929,248.072103 223.190649,244.080163 Z M328.500796,270.218963 C328.500796,272.781492 327.783452,273.455157 325.025949,273.440142 C324.461691,273.436139 323.890564,273.383086 323.336119,273.284989 C322.219379,273.088796 321.625682,272.156876 321.619794,270.594334 C321.607037,266.99378 321.593298,251.538524 321.622738,248.735758 C321.628626,248.107138 321.40096,247.924958 320.735626,247.927961 C315.718147,247.950983 314.101916,247.942976 309.083456,247.943977 C306.404457,247.944977 305.660618,247.262304 305.666506,244.768842 C305.668469,244.245326 305.712628,243.713801 305.816648,243.200294 C305.962864,242.480584 306.575207,241.553669 309.05696,241.56468 C315.302068,241.549665 318.144946,241.550666 324.390055,241.561677 C325.06422,241.563679 325.743292,241.620735 326.410588,241.713827 C327.8335,241.913024 328.48902,242.644746 328.493927,244.080163 C328.509628,248.072103 328.501777,266.380174 328.500796,270.218963 Z M36.7971343,244.080163 C36.8020409,242.644746 37.4575614,241.913024 38.8804725,241.713827 C39.5477688,241.620735 40.2268409,241.563679 40.9010064,241.561677 C47.1461145,241.550666 49.988993,241.549665 56.2341011,241.56468 C58.7158544,241.553669 59.3281969,242.480584 59.4744133,243.200294 C59.578433,243.713801 59.6225923,244.245326 59.624555,244.768842 C59.6304429,247.262304 58.8866038,247.944977 56.2076055,247.943977 C51.1891449,247.942976 49.5729141,247.950983 44.5554349,247.927961 C43.8901012,247.924958 43.6624354,248.107138 43.6683233,248.735758 C43.6977629,251.538524 43.6840244,266.99378 43.6712673,270.594334 C43.6653794,272.156876 43.071682,273.088796 41.954942,273.284989 C41.4004973,273.383086 40.8293702,273.436139 40.2651123,273.440142 C37.5076086,273.455157 36.7902651,272.781492 36.7902651,270.218963 C36.7892838,266.380174 36.7814332,248.072103 36.7971343,244.080163 Z M142.1063,270.218963 C142.1063,272.781492 141.388957,273.455157 138.631453,273.440142 C138.067195,273.436139 137.496068,273.383086 136.941623,273.284989 C135.824883,273.088796 135.231186,272.156876 135.226279,270.594334 C135.212541,266.99378 135.198802,251.538524 135.228242,248.735758 C135.23413,248.107138 135.006464,247.924958 134.34113,247.927961 C129.323651,247.950983 127.70742,247.942976 122.68896,247.943977 C120.009962,247.944977 119.266122,247.262304 119.272992,244.768842 C119.273973,244.245326 119.318132,243.713801 119.422152,243.200294 C119.568368,242.480584 120.180711,241.553669 122.662464,241.56468 C128.907572,241.549665 131.750451,241.550666 137.99654,241.561677 C138.669724,241.563679 139.348797,241.620735 140.016093,241.713827 C141.439985,241.913024 142.094524,242.644746 142.099431,244.080163 C142.115132,248.072103 142.107282,266.380174 142.1063,270.218963 Z M604.388554,244.080163 C604.394442,242.644746 605.048981,241.913024 606.472874,241.713827 C607.139189,241.620735 607.818261,241.563679 608.492427,241.561677 C614.737535,241.550666 617.580413,241.549665 623.825521,241.56468 C626.307275,241.553669 626.919617,242.480584 627.065833,243.200294 C627.169853,243.713801 627.214012,244.245326 627.215975,244.768842 C627.221863,247.262304 626.478024,247.944977 623.799026,247.943977 C618.780565,247.942976 617.165316,247.950983 612.146855,247.927961 C611.481521,247.924958 611.253856,248.107138 611.260725,248.735758 C611.289183,251.538524 611.275445,266.99378 611.262687,270.594334 C611.2568,272.156876 610.663102,273.088796 609.546362,273.284989 C608.991917,273.383086 608.42079,273.436139 607.856532,273.440142 C605.099029,273.455157 604.381685,272.781492 604.381685,270.218963 C604.381685,266.380174 604.372853,248.072103 604.388554,244.080163 Z M709.698702,270.218963 C709.69772,272.781492 708.980377,273.455157 706.223854,273.440142 C705.659597,273.436139 705.087488,273.383086 704.534025,273.284989 C703.417285,273.088796 702.822606,272.156876 702.817699,270.594334 C702.804942,266.99378 702.790223,251.538524 702.819662,248.735758 C702.826531,248.107138 702.597884,247.924958 701.933532,247.927961 C696.915071,247.950983 695.298841,247.942976 690.281361,247.943977 C687.601382,247.944977 686.858524,247.262304 686.864412,244.768842 C686.865393,244.245326 686.910534,243.713801 687.014553,243.200294 C687.159789,242.480584 687.772131,241.553669 690.253884,241.56468 C696.499974,241.549665 699.342852,241.550666 705.58796,241.561677 C706.261145,241.563679 706.941198,241.620735 707.607513,241.713827 C709.031405,241.913024 709.685945,242.644746 709.691832,244.080163 C709.706552,248.072103 709.698702,266.380174 709.698702,270.218963 Z M417.994059,244.080163 C417.999947,242.644746 418.654486,241.913024 420.078378,241.713827 C420.744693,241.620735 421.423765,241.563679 422.097931,241.561677 C428.343039,241.550666 431.185917,241.549665 437.432007,241.56468 C439.91376,241.553669 440.526103,242.480584 440.671338,243.200294 C440.775357,243.713801 440.820498,244.245326 440.821479,244.768842 C440.827367,247.262304 440.083528,247.944977 437.40453,247.943977 C432.386069,247.942976 430.77082,247.950983 425.752359,247.927961 C425.088007,247.924958 424.85936,248.107138 424.866229,248.735758 C424.895669,251.538524 424.880949,266.99378 424.868192,270.594334 C424.862304,272.156876 424.268606,273.088796 423.151866,273.284989 C422.597422,273.383086 422.026295,273.436139 421.462037,273.440142 C418.704533,273.455157 417.98719,272.781492 417.98719,270.218963 C417.98719,266.380174 417.979339,248.072103 417.994059,244.080163 Z M523.304206,270.218963 C523.304206,272.781492 522.586863,273.455157 519.829359,273.440142 C519.265101,273.436139 518.693974,273.383086 518.139529,273.284989 C517.022789,273.088796 516.429092,272.156876 516.423204,270.594334 C516.410447,266.99378 516.395727,251.538524 516.425166,248.735758 C516.432036,248.107138 516.20437,247.924958 515.539036,247.927961 C510.520576,247.950983 508.905326,247.942976 503.886866,247.943977 C501.207867,247.944977 500.464028,247.262304 500.469916,244.768842 C500.470897,244.245326 500.516038,243.713801 500.620058,243.200294 C500.766274,242.480584 501.377635,241.553669 503.86037,241.56468 C510.105478,241.549665 512.948357,241.550666 519.193465,241.561677 C519.86763,241.563679 520.546702,241.620735 521.213017,241.713827 C522.63691,241.913024 523.291449,242.644746 523.297337,244.080163 C523.313038,248.072103 523.304206,266.380174 523.304206,270.218963 Z M650.502653,220.536924 C650.507559,221.972341 651.162098,222.704063 652.585991,222.90326 C653.253287,222.996352 653.932359,223.054409 654.605543,223.05541 C660.851633,223.066421 663.694511,223.067422 669.939619,223.052407 C672.421373,223.063418 673.033715,222.137504 673.179932,221.416793 C673.283951,220.903286 673.328111,220.371761 673.329092,219.848245 C673.335961,217.355784 672.592122,216.67211 669.913124,216.673111 C664.894663,216.674112 663.278432,216.667105 658.260953,216.690127 C657.595619,216.69313 657.366972,216.50995 657.373842,215.881329 C657.403281,213.079564 657.389543,197.623308 657.375804,194.022754 C657.370898,192.460211 656.7772,191.528291 655.66046,191.332098 C655.106016,191.235002 654.534888,191.180949 653.970631,191.177946 C651.213127,191.16193 650.495783,191.836596 650.495783,194.398124 C650.494802,198.236913 650.486951,216.545985 650.502653,220.536924 Z M83.3852091,220.536924 C83.391097,221.972341 84.0456361,222.704063 85.4695286,222.90326 C86.1358436,222.996352 86.8149157,223.054409 87.4890812,223.05541 C93.7341893,223.066421 96.5770677,223.067422 102.822176,223.052407 C105.30491,223.063418 105.916272,222.137504 106.062488,221.416793 C106.166508,220.903286 106.211648,220.371761 106.21263,219.848245 C106.218518,217.355784 105.474679,216.67211 102.79568,216.673111 C97.7772197,216.674112 96.1619702,216.667105 91.1435096,216.690127 C90.478176,216.69313 90.2505102,216.50995 90.2573794,215.881329 C90.286819,213.079564 90.2720992,197.623308 90.259342,194.022754 C90.2534541,192.460211 89.6597567,191.528291 88.5430168,191.332098 C87.9885721,191.235002 87.417445,191.180949 86.8531871,191.177946 C84.0956833,191.16193 83.3783398,191.836596 83.3783398,194.398124 C83.3783398,198.236913 83.3704893,216.545985 83.3852091,220.536924 Z M188.695356,194.398124 C188.695356,191.836596 187.978013,191.16193 185.220509,191.177946 C184.656251,191.180949 184.085124,191.235002 183.530679,191.332098 C182.413939,191.528291 181.820242,192.460211 181.814354,194.022754 C181.801597,197.623308 181.786877,213.079564 181.816317,215.881329 C181.823186,216.50995 181.594539,216.69313 180.930187,216.690127 C175.911726,216.667105 174.295495,216.674112 169.278016,216.673111 C166.599018,216.67211 165.855179,217.355784 165.861066,219.848245 C165.862048,220.371761 165.907188,220.903286 166.011208,221.416793 C166.156443,222.137504 166.768786,223.063418 169.25152,223.052407 C175.496628,223.067422 178.339507,223.066421 184.584615,223.05541 C185.25878,223.054409 185.937853,222.996352 186.604168,222.90326 C188.02806,222.704063 188.682599,221.972341 188.688487,220.536924 C188.703207,216.545985 188.695356,198.236913 188.695356,194.398124 Z M268.547169,220.536924 C268.552076,221.972341 269.207596,222.704063 270.630507,222.90326 C271.297804,222.996352 271.976876,223.054409 272.65006,223.05541 C278.896149,223.066421 281.739028,223.067422 287.984136,223.052407 C290.465889,223.063418 291.078232,222.137504 291.224448,221.416793 C291.328468,220.903286 291.372627,220.371761 291.373609,219.848245 C291.380478,217.355784 290.636639,216.67211 287.95764,216.673111 C282.93918,216.674112 281.322949,216.667105 276.30547,216.690127 C275.640136,216.69313 275.41247,216.50995 275.418358,215.881329 C275.447798,213.079564 275.434059,197.623308 275.421302,194.022754 C275.415414,192.460211 274.821717,191.528291 273.704977,191.332098 C273.150532,191.235002 272.579405,191.180949 272.015147,191.177946 C269.257644,191.16193 268.5403,191.836596 268.5403,194.398124 C268.539319,198.236913 268.531468,216.545985 268.547169,220.536924 Z M373.856335,194.398124 C373.856335,191.836596 373.138992,191.16193 370.381488,191.177946 C369.81723,191.180949 369.246103,191.235002 368.691658,191.332098 C367.574918,191.528291 366.981221,192.460211 366.975333,194.022754 C366.962576,197.623308 366.948837,213.079564 366.978277,215.881329 C366.984165,216.50995 366.756499,216.69313 366.091165,216.690127 C361.073686,216.667105 359.457455,216.674112 354.438995,216.673111 C351.759997,216.67211 351.016157,217.355784 351.023027,219.848245 C351.024008,220.371761 351.068167,220.903286 351.172187,221.416793 C351.318403,222.137504 351.930746,223.063418 354.412499,223.052407 C360.657607,223.067422 363.500486,223.066421 369.746575,223.05541 C370.419759,223.054409 371.098831,222.996352 371.766128,222.90326 C373.189039,222.704063 373.844559,221.972341 373.849466,220.536924 C373.865167,216.545985 373.857317,198.236913 373.856335,194.398124 Z M467.045242,220.536924 C467.05113,221.972341 467.705669,222.704063 469.129561,222.90326 C469.795876,222.996352 470.474948,223.054409 471.149114,223.05541 C477.394222,223.066421 480.2371,223.067422 486.482209,223.052407 C488.964943,223.063418 489.577286,222.137504 489.722521,221.416793 C489.826541,220.903286 489.871681,220.371761 489.872662,219.848245 C489.87855,217.355784 489.134711,216.67211 486.455713,216.673111 C481.437252,216.674112 479.822003,216.667105 474.803542,216.690127 C474.138209,216.69313 473.910543,216.50995 473.917412,215.881329 C473.946852,213.079564 473.932132,197.623308 473.919375,194.022754 C473.913487,192.460211 473.319789,191.528291 472.20305,191.332098 C471.648605,191.235002 471.077478,191.180949 470.51322,191.177946 C467.755716,191.16193 467.038373,191.836596 467.038373,194.398124 C467.038373,198.236913 467.030522,216.545985 467.045242,220.536924 Z M572.355389,194.398124 C572.355389,191.836596 571.638046,191.16193 568.880542,191.177946 C568.316284,191.180949 567.745157,191.235002 567.190712,191.332098 C566.073972,191.528291 565.480275,192.460211 565.474387,194.022754 C565.46163,197.623308 565.44691,213.079564 565.47635,215.881329 C565.483219,216.50995 565.254572,216.69313 564.590219,216.690127 C559.571759,216.667105 557.956509,216.674112 552.938049,216.673111 C550.25905,216.67211 549.515211,217.355784 549.521099,219.848245 C549.522081,220.371761 549.567221,220.903286 549.671241,221.416793 C549.816476,222.137504 550.428818,223.063418 552.910572,223.052407 C559.156661,223.067422 561.99954,223.066421 568.244648,223.05541 C568.918813,223.054409 569.597885,222.996352 570.2642,222.90326 C571.688093,222.704063 572.342632,221.972341 572.34852,220.536924 C572.36324,216.545985 572.355389,198.236913 572.355389,194.398124 Z M223.190649,148.491812 C223.196537,147.056396 223.851076,146.324673 225.274968,146.125477 C225.942264,146.032385 226.621337,145.974328 227.294521,145.973327 C233.54061,145.962316 236.383489,145.961315 242.628597,145.976329 C245.11035,145.965319 245.722693,146.891233 245.867928,147.611944 C245.972929,148.125451 246.017088,148.656975 246.018069,149.180492 C246.024939,151.672952 245.281099,152.356627 242.602101,152.355626 C237.583641,152.354625 235.96741,152.361632 230.948949,152.33961 C230.284597,152.336607 230.05595,152.518787 230.062819,153.147408 C230.092259,155.949173 230.07852,171.405429 230.064782,175.005983 C230.059875,176.568525 229.466178,177.500445 228.349438,177.696639 C227.794993,177.793735 227.222885,177.847788 226.659608,177.850791 C223.902104,177.866807 223.184761,177.192141 223.184761,174.630613 C223.183779,170.791824 223.175929,152.482752 223.190649,148.491812 Z M328.500796,174.630613 C328.500796,177.192141 327.783452,177.866807 325.025949,177.850791 C324.461691,177.847788 323.890564,177.793735 323.336119,177.696639 C322.219379,177.500445 321.625682,176.568525 321.619794,175.005983 C321.607037,171.405429 321.593298,155.949173 321.622738,153.147408 C321.628626,152.518787 321.40096,152.336607 320.735626,152.33961 C315.718147,152.361632 314.101916,152.354625 309.083456,152.355626 C306.404457,152.356627 305.660618,151.672952 305.666506,149.180492 C305.668469,148.656975 305.712628,148.125451 305.816648,147.611944 C305.962864,146.891233 306.575207,145.965319 309.05696,145.976329 C315.302068,145.961315 318.144946,145.962316 324.390055,145.973327 C325.06422,145.974328 325.743292,146.032385 326.410588,146.125477 C327.8335,146.324673 328.48902,147.056396 328.493927,148.491812 C328.509628,152.482752 328.501777,170.791824 328.500796,174.630613 Z M36.7971343,148.491812 C36.8020409,147.056396 37.4575614,146.324673 38.8804725,146.125477 C39.5477688,146.032385 40.2268409,145.974328 40.9010064,145.973327 C47.1461145,145.962316 49.988993,145.961315 56.2341011,145.976329 C58.7158544,145.965319 59.3281969,146.891233 59.4744133,147.611944 C59.578433,148.125451 59.6225923,148.656975 59.624555,149.180492 C59.6304429,151.672952 58.8866038,152.356627 56.2076055,152.355626 C51.1891449,152.354625 49.5729141,152.361632 44.5554349,152.33961 C43.8901012,152.336607 43.6624354,152.518787 43.6683233,153.147408 C43.6977629,155.949173 43.6840244,171.405429 43.6712673,175.005983 C43.6653794,176.568525 43.071682,177.500445 41.954942,177.696639 C41.4004973,177.793735 40.8293702,177.847788 40.2651123,177.850791 C37.5076086,177.866807 36.7902651,177.192141 36.7902651,174.630613 C36.7892838,170.791824 36.7814332,152.482752 36.7971343,148.491812 Z M142.1063,174.630613 C142.1063,177.192141 141.388957,177.866807 138.631453,177.850791 C138.067195,177.847788 137.496068,177.793735 136.941623,177.696639 C135.824883,177.500445 135.231186,176.568525 135.226279,175.005983 C135.212541,171.405429 135.198802,155.949173 135.228242,153.147408 C135.23413,152.518787 135.006464,152.336607 134.34113,152.33961 C129.323651,152.361632 127.70742,152.354625 122.68896,152.355626 C120.009962,152.356627 119.266122,151.672952 119.272992,149.180492 C119.273973,148.656975 119.318132,148.125451 119.422152,147.611944 C119.568368,146.891233 120.180711,145.965319 122.662464,145.976329 C128.907572,145.961315 131.750451,145.962316 137.99654,145.973327 C138.669724,145.974328 139.348797,146.032385 140.016093,146.125477 C141.439985,146.324673 142.094524,147.056396 142.099431,148.491812 C142.115132,152.482752 142.107282,170.791824 142.1063,174.630613 Z M604.388554,148.491812 C604.394442,147.056396 605.048981,146.324673 606.472874,146.125477 C607.139189,146.032385 607.818261,145.974328 608.492427,145.973327 C614.737535,145.962316 617.580413,145.961315 623.825521,145.976329 C626.307275,145.965319 626.919617,146.891233 627.065833,147.611944 C627.169853,148.125451 627.214012,148.656975 627.215975,149.180492 C627.221863,151.672952 626.478024,152.356627 623.799026,152.355626 C618.780565,152.354625 617.165316,152.361632 612.146855,152.33961 C611.481521,152.336607 611.253856,152.518787 611.260725,153.147408 C611.289183,155.949173 611.275445,171.405429 611.262687,175.005983 C611.2568,176.568525 610.663102,177.500445 609.546362,177.696639 C608.991917,177.793735 608.42079,177.847788 607.856532,177.850791 C605.099029,177.866807 604.381685,177.192141 604.381685,174.630613 C604.381685,170.791824 604.372853,152.482752 604.388554,148.491812 Z M709.698702,174.630613 C709.69772,177.192141 708.980377,177.866807 706.223854,177.850791 C705.659597,177.847788 705.087488,177.793735 704.534025,177.696639 C703.417285,177.500445 702.822606,176.568525 702.817699,175.005983 C702.804942,171.405429 702.790223,155.949173 702.819662,153.147408 C702.826531,152.518787 702.597884,152.336607 701.933532,152.33961 C696.915071,152.361632 695.298841,152.354625 690.281361,152.355626 C687.601382,152.356627 686.858524,151.672952 686.864412,149.180492 C686.865393,148.656975 686.910534,148.125451 687.014553,147.611944 C687.159789,146.891233 687.772131,145.965319 690.253884,145.976329 C696.499974,145.961315 699.342852,145.962316 705.58796,145.973327 C706.261145,145.974328 706.941198,146.032385 707.607513,146.125477 C709.031405,146.324673 709.685945,147.056396 709.691832,148.491812 C709.706552,152.482752 709.698702,170.791824 709.698702,174.630613 Z M417.994059,148.491812 C417.999947,147.056396 418.654486,146.324673 420.078378,146.125477 C420.744693,146.032385 421.423765,145.974328 422.097931,145.973327 C428.343039,145.962316 431.185917,145.961315 437.432007,145.976329 C439.91376,145.965319 440.526103,146.891233 440.671338,147.611944 C440.775357,148.125451 440.820498,148.656975 440.821479,149.180492 C440.827367,151.672952 440.083528,152.356627 437.40453,152.355626 C432.386069,152.354625 430.77082,152.361632 425.752359,152.33961 C425.088007,152.336607 424.85936,152.518787 424.866229,153.147408 C424.895669,155.949173 424.880949,171.405429 424.868192,175.005983 C424.862304,176.568525 424.268606,177.500445 423.151866,177.696639 C422.597422,177.793735 422.026295,177.847788 421.462037,177.850791 C418.704533,177.866807 417.98719,177.192141 417.98719,174.630613 C417.98719,170.791824 417.979339,152.482752 417.994059,148.491812 Z M523.304206,174.630613 C523.304206,177.192141 522.586863,177.866807 519.829359,177.850791 C519.265101,177.847788 518.693974,177.793735 518.139529,177.696639 C517.022789,177.500445 516.429092,176.568525 516.423204,175.005983 C516.410447,171.405429 516.395727,155.949173 516.425166,153.147408 C516.432036,152.518787 516.20437,152.336607 515.539036,152.33961 C510.520576,152.361632 508.905326,152.354625 503.886866,152.355626 C501.207867,152.356627 500.464028,151.672952 500.469916,149.180492 C500.470897,148.656975 500.516038,148.125451 500.620058,147.611944 C500.766274,146.891233 501.377635,145.965319 503.86037,145.976329 C510.105478,145.961315 512.948357,145.962316 519.193465,145.973327 C519.86763,145.974328 520.546702,146.032385 521.213017,146.125477 C522.63691,146.324673 523.291449,147.056396 523.297337,148.491812 C523.313038,152.482752 523.304206,170.791824 523.304206,174.630613 Z M650.502653,124.948574 C650.507559,126.383991 651.162098,127.115713 652.585991,127.31491 C653.253287,127.408002 653.932359,127.466059 654.605543,127.46706 C660.851633,127.478071 663.694511,127.479072 669.939619,127.464057 C672.421373,127.475068 673.033715,126.548153 673.179932,125.828443 C673.283951,125.314936 673.328111,124.783411 673.329092,124.259894 C673.335961,121.766433 672.592122,121.083759 669.913124,121.08476 C664.894663,121.085761 663.278432,121.078754 658.260953,121.100776 C657.595619,121.103779 657.366972,120.921599 657.373842,120.292979 C657.403281,117.490212 657.389543,102.034957 657.375804,98.4344033 C657.370898,96.871861 656.7772,95.9399411 655.66046,95.7437475 C655.106016,95.6456507 654.534888,95.5925983 653.970631,95.5895953 C651.213127,95.5735795 650.495783,96.2472445 650.495783,98.8097738 C650.494802,102.648563 650.486951,120.957635 650.502653,124.948574 Z M83.3852091,124.948574 C83.391097,126.383991 84.0456361,127.115713 85.4695286,127.31491 C86.1358436,127.408002 86.8149157,127.466059 87.4890812,127.46706 C93.7341893,127.478071 96.5770677,127.479072 102.822176,127.464057 C105.30491,127.475068 105.916272,126.548153 106.062488,125.828443 C106.166508,125.314936 106.211648,124.783411 106.21263,124.259894 C106.218518,121.766433 105.474679,121.083759 102.79568,121.08476 C97.7772197,121.085761 96.1619702,121.078754 91.1435096,121.100776 C90.478176,121.103779 90.2505102,120.921599 90.2573794,120.292979 C90.286819,117.490212 90.2720992,102.034957 90.259342,98.4344033 C90.2534541,96.871861 89.6597567,95.9399411 88.5430168,95.7437475 C87.9885721,95.6456507 87.417445,95.5925983 86.8531871,95.5895953 C84.0956833,95.5735795 83.3783398,96.2472445 83.3783398,98.8097738 C83.3783398,102.648563 83.3704893,120.957635 83.3852091,124.948574 Z M188.695356,98.8097738 C188.695356,96.2472445 187.978013,95.5735795 185.220509,95.5895953 C184.656251,95.5925983 184.085124,95.6456507 183.530679,95.7437475 C182.413939,95.9399411 181.820242,96.871861 181.814354,98.4344033 C181.801597,102.034957 181.786877,117.490212 181.816317,120.292979 C181.823186,120.921599 181.594539,121.103779 180.930187,121.100776 C175.911726,121.078754 174.295495,121.085761 169.278016,121.08476 C166.599018,121.083759 165.855179,121.766433 165.861066,124.259894 C165.862048,124.783411 165.907188,125.314936 166.011208,125.828443 C166.156443,126.548153 166.768786,127.475068 169.25152,127.464057 C175.496628,127.479072 178.339507,127.478071 184.584615,127.46706 C185.25878,127.466059 185.937853,127.408002 186.604168,127.31491 C188.02806,127.115713 188.682599,126.383991 188.688487,124.948574 C188.703207,120.957635 188.695356,102.648563 188.695356,98.8097738 Z M268.547169,124.948574 C268.552076,126.383991 269.207596,127.115713 270.630507,127.31491 C271.297804,127.408002 271.976876,127.466059 272.65006,127.46706 C278.896149,127.478071 281.739028,127.479072 287.984136,127.464057 C290.465889,127.475068 291.078232,126.548153 291.224448,125.828443 C291.328468,125.314936 291.372627,124.783411 291.373609,124.259894 C291.380478,121.766433 290.636639,121.083759 287.95764,121.08476 C282.93918,121.085761 281.322949,121.078754 276.30547,121.100776 C275.640136,121.103779 275.41247,120.921599 275.418358,120.292979 C275.447798,117.490212 275.434059,102.034957 275.421302,98.4344033 C275.415414,96.871861 274.821717,95.9399411 273.704977,95.7437475 C273.150532,95.6456507 272.579405,95.5925983 272.015147,95.5895953 C269.257644,95.5735795 268.5403,96.2472445 268.5403,98.8097738 C268.539319,102.648563 268.531468,120.957635 268.547169,124.948574 Z M373.856335,98.8097738 C373.856335,96.2472445 373.138992,95.5735795 370.381488,95.5895953 C369.81723,95.5925983 369.246103,95.6456507 368.691658,95.7437475 C367.574918,95.9399411 366.981221,96.871861 366.975333,98.4344033 C366.962576,102.034957 366.948837,117.490212 366.978277,120.292979 C366.984165,120.921599 366.756499,121.103779 366.091165,121.100776 C361.073686,121.078754 359.457455,121.085761 354.438995,121.08476 C351.759997,121.083759 351.016157,121.766433 351.023027,124.259894 C351.024008,124.783411 351.068167,125.314936 351.172187,125.828443 C351.318403,126.548153 351.930746,127.475068 354.412499,127.464057 C360.657607,127.479072 363.500486,127.478071 369.746575,127.46706 C370.419759,127.466059 371.098831,127.408002 371.766128,127.31491 C373.189039,127.115713 373.844559,126.383991 373.849466,124.948574 C373.865167,120.957635 373.857317,102.648563 373.856335,98.8097738 Z M467.045242,124.948574 C467.05113,126.383991 467.705669,127.115713 469.129561,127.31491 C469.795876,127.408002 470.474948,127.466059 471.149114,127.46706 C477.394222,127.478071 480.2371,127.479072 486.482209,127.464057 C488.964943,127.475068 489.577286,126.548153 489.722521,125.828443 C489.826541,125.314936 489.871681,124.783411 489.872662,124.259894 C489.87855,121.766433 489.134711,121.083759 486.455713,121.08476 C481.437252,121.085761 479.822003,121.078754 474.803542,121.100776 C474.138209,121.103779 473.910543,120.921599 473.917412,120.292979 C473.946852,117.490212 473.932132,102.034957 473.919375,98.4344033 C473.913487,96.871861 473.319789,95.9399411 472.20305,95.7437475 C471.648605,95.6456507 471.077478,95.5925983 470.51322,95.5895953 C467.755716,95.5735795 467.038373,96.2472445 467.038373,98.8097738 C467.038373,102.648563 467.030522,120.957635 467.045242,124.948574 Z M572.355389,98.8097738 C572.355389,96.2472445 571.638046,95.5735795 568.880542,95.5895953 C568.316284,95.5925983 567.745157,95.6456507 567.190712,95.7437475 C566.073972,95.9399411 565.480275,96.871861 565.474387,98.4344033 C565.46163,102.034957 565.44691,117.490212 565.47635,120.292979 C565.483219,120.921599 565.254572,121.103779 564.590219,121.100776 C559.571759,121.078754 557.956509,121.085761 552.938049,121.08476 C550.25905,121.083759 549.515211,121.766433 549.521099,124.259894 C549.522081,124.783411 549.567221,125.314936 549.671241,125.828443 C549.816476,126.548153 550.428818,127.475068 552.910572,127.464057 C559.156661,127.479072 561.99954,127.478071 568.244648,127.46706 C568.918813,127.466059 569.597885,127.408002 570.2642,127.31491 C571.688093,127.115713 572.342632,126.383991 572.34852,124.948574 C572.36324,120.957635 572.355389,102.648563 572.355389,98.8097738 Z M223.190649,52.903462 C223.196537,51.4680452 223.851076,50.735322 225.274968,50.5371263 C225.942264,50.4440345 226.621337,50.3859772 227.294521,50.3849762 C233.54061,50.3739653 236.383489,50.3719633 242.628597,50.3879791 C245.11035,50.3759673 245.722693,51.3028822 245.867928,52.0225926 C245.972929,52.5371004 246.017088,53.0676241 246.018069,53.5911408 C246.024939,56.084602 245.281099,56.7672758 242.602101,56.7672758 C237.583641,56.7662748 235.96741,56.7732817 230.948949,56.750259 C230.284597,56.747256 230.05595,56.9294359 230.062819,57.5590573 C230.092259,60.3608228 230.07852,75.8170789 230.064782,79.4176328 C230.059875,80.9801751 229.466178,81.911094 228.349438,82.1082886 C227.794993,82.2053845 227.222885,82.2594378 226.659608,82.2624408 C223.902104,82.2784566 223.184761,81.6037907 223.184761,79.0412613 C223.183779,75.2034732 223.175929,56.8944013 223.190649,52.903462 Z M328.500796,79.0412613 C328.500796,81.6037907 327.783452,82.2784566 325.025949,82.2624408 C324.461691,82.2594378 323.890564,82.2053845 323.336119,82.1082886 C322.219379,81.911094 321.625682,80.9801751 321.619794,79.4176328 C321.607037,75.8170789 321.593298,60.3608228 321.622738,57.5590573 C321.628626,56.9294359 321.40096,56.747256 320.735626,56.750259 C315.718147,56.7732817 314.101916,56.7662748 309.083456,56.7672758 C306.404457,56.7672758 305.660618,56.084602 305.666506,53.5911408 C305.668469,53.0676241 305.712628,52.5371004 305.816648,52.0225926 C305.962864,51.3028822 306.575207,50.3759673 309.05696,50.3879791 C315.302068,50.3719633 318.144946,50.3739653 324.390055,50.3849762 C325.06422,50.3859772 325.743292,50.4440345 326.410588,50.5371263 C327.8335,50.735322 328.48902,51.4680452 328.493927,52.903462 C328.509628,56.8944013 328.501777,75.2034732 328.500796,79.0412613 Z M36.7971343,52.903462 C36.8020409,51.4680452 37.4575614,50.735322 38.8804725,50.5371263 C39.5477688,50.4440345 40.2268409,50.3859772 40.9010064,50.3849762 C47.1461145,50.3739653 49.988993,50.3719633 56.2341011,50.3879791 C58.7158544,50.3759673 59.3281969,51.3028822 59.4744133,52.0225926 C59.578433,52.5371004 59.6225923,53.0676241 59.624555,53.5911408 C59.6304429,56.084602 58.8866038,56.7672758 56.2076055,56.7672758 C51.1891449,56.7662748 49.5729141,56.7732817 44.5554349,56.750259 C43.8901012,56.747256 43.6624354,56.9294359 43.6683233,57.5590573 C43.6977629,60.3608228 43.6840244,75.8170789 43.6712673,79.4176328 C43.6653794,80.9801751 43.071682,81.911094 41.954942,82.1082886 C41.4004973,82.2053845 40.8293702,82.2594378 40.2651123,82.2624408 C37.5076086,82.2784566 36.7902651,81.6037907 36.7902651,79.0412613 C36.7892838,75.2034732 36.7814332,56.8944013 36.7971343,52.903462 Z M142.1063,79.0412613 C142.1063,81.6037907 141.388957,82.2784566 138.631453,82.2624408 C138.067195,82.2594378 137.496068,82.2053845 136.941623,82.1082886 C135.824883,81.911094 135.231186,80.9801751 135.226279,79.4176328 C135.212541,75.8170789 135.198802,60.3608228 135.228242,57.5590573 C135.23413,56.9294359 135.006464,56.747256 134.34113,56.750259 C129.323651,56.7732817 127.70742,56.7662748 122.68896,56.7672758 C120.009962,56.7672758 119.266122,56.084602 119.272992,53.5911408 C119.273973,53.0676241 119.318132,52.5371004 119.422152,52.0225926 C119.568368,51.3028822 120.180711,50.3759673 122.662464,50.3879791 C128.907572,50.3719633 131.750451,50.3739653 137.99654,50.3849762 C138.669724,50.3859772 139.348797,50.4440345 140.016093,50.5371263 C141.439985,50.735322 142.094524,51.4680452 142.099431,52.903462 C142.115132,56.8944013 142.107282,75.2034732 142.1063,79.0412613 Z M604.388554,52.903462 C604.394442,51.4680452 605.048981,50.735322 606.472874,50.5371263 C607.139189,50.4440345 607.818261,50.3859772 608.492427,50.3849762 C614.737535,50.3739653 617.580413,50.3719633 623.825521,50.3879791 C626.307275,50.3759673 626.919617,51.3028822 627.065833,52.0225926 C627.169853,52.5371004 627.214012,53.0676241 627.215975,53.5911408 C627.221863,56.084602 626.478024,56.7672758 623.799026,56.7672758 C618.780565,56.7662748 617.165316,56.7732817 612.146855,56.750259 C611.481521,56.747256 611.253856,56.9294359 611.260725,57.5590573 C611.289183,60.3608228 611.275445,75.8170789 611.262687,79.4176328 C611.2568,80.9801751 610.663102,81.911094 609.546362,82.1082886 C608.991917,82.2053845 608.42079,82.2594378 607.856532,82.2624408 C605.099029,82.2784566 604.381685,81.6037907 604.381685,79.0412613 C604.381685,75.2034732 604.372853,56.8944013 604.388554,52.903462 Z M709.698702,79.0412613 C709.69772,81.6037907 708.980377,82.2784566 706.223854,82.2624408 C705.659597,82.2594378 705.087488,82.2053845 704.534025,82.1082886 C703.417285,81.911094 702.822606,80.9801751 702.817699,79.4176328 C702.804942,75.8170789 702.790223,60.3608228 702.819662,57.5590573 C702.826531,56.9294359 702.597884,56.747256 701.933532,56.750259 C696.915071,56.7732817 695.298841,56.7662748 690.281361,56.7672758 C687.601382,56.7672758 686.858524,56.084602 686.864412,53.5911408 C686.865393,53.0676241 686.910534,52.5371004 687.014553,52.0225926 C687.159789,51.3028822 687.772131,50.3759673 690.253884,50.3879791 C696.499974,50.3719633 699.342852,50.3739653 705.58796,50.3849762 C706.261145,50.3859772 706.941198,50.4440345 707.607513,50.5371263 C709.031405,50.735322 709.685945,51.4680452 709.691832,52.903462 C709.706552,56.8944013 709.698702,75.2034732 709.698702,79.0412613 Z M417.994059,52.903462 C417.999947,51.4680452 418.654486,50.735322 420.078378,50.5371263 C420.744693,50.4440345 421.423765,50.3859772 422.097931,50.3849762 C428.343039,50.3739653 431.185917,50.3719633 437.432007,50.3879791 C439.91376,50.3759673 440.526103,51.3028822 440.671338,52.0225926 C440.775357,52.5371004 440.820498,53.0676241 440.821479,53.5911408 C440.827367,56.084602 440.083528,56.7672758 437.40453,56.7672758 C432.386069,56.7662748 430.77082,56.7732817 425.752359,56.750259 C425.088007,56.747256 424.85936,56.9294359 424.866229,57.5590573 C424.895669,60.3608228 424.880949,75.8170789 424.868192,79.4176328 C424.862304,80.9801751 424.268606,81.911094 423.151866,82.1082886 C422.597422,82.2053845 422.026295,82.2594378 421.462037,82.2624408 C418.704533,82.2784566 417.98719,81.6037907 417.98719,79.0412613 C417.98719,75.2034732 417.979339,56.8944013 417.994059,52.903462 Z M523.304206,79.0412613 C523.304206,81.6037907 522.586863,82.2784566 519.829359,82.2624408 C519.265101,82.2594378 518.693974,82.2053845 518.139529,82.1082886 C517.022789,81.911094 516.429092,80.9801751 516.423204,79.4176328 C516.410447,75.8170789 516.395727,60.3608228 516.425166,57.5590573 C516.432036,56.9294359 516.20437,56.747256 515.539036,56.750259 C510.520576,56.7732817 508.905326,56.7662748 503.886866,56.7672758 C501.207867,56.7672758 500.464028,56.084602 500.469916,53.5911408 C500.470897,53.0676241 500.516038,52.5371004 500.620058,52.0225926 C500.766274,51.3028822 501.377635,50.3759673 503.86037,50.3879791 C510.105478,50.3719633 512.948357,50.3739653 519.193465,50.3849762 C519.86763,50.3859772 520.546702,50.4440345 521.213017,50.5371263 C522.63691,50.735322 523.291449,51.4680452 523.297337,52.903462 C523.313038,56.8944013 523.304206,75.2034732 523.304206,79.0412613 Z M650.502653,29.3592227 C650.507559,30.7946396 651.162098,31.5273628 652.585991,31.7255584 C653.253287,31.8186503 653.932359,31.8767076 654.605543,31.8777086 C660.851633,31.8897204 663.694511,31.8907214 669.939619,31.8757066 C672.421373,31.8867175 673.033715,30.9598026 673.179932,30.2400922 C673.283951,29.7255843 673.328111,29.1950607 673.329092,28.671544 C673.335961,26.1780828 672.592122,25.495409 669.913124,25.495409 C664.894663,25.4974109 663.278432,25.489403 658.260953,25.5124257 C657.595619,25.5154287 657.366972,25.3332489 657.373842,24.7036274 C657.403281,21.9018619 657.389543,6.44560587 657.375804,2.84605294 C657.370898,1.28351063 656.7772,0.351590782 655.66046,0.155397129 C655.106016,0.0573003028 654.534888,0.00424793757 653.970631,0.000243985471 C651.213127,-0.0147708349 650.495783,0.658894105 650.495783,3.22142345 C650.494802,7.05921153 650.486951,25.3682835 650.502653,29.3592227 Z M83.3852091,29.3592227 C83.391097,30.7946396 84.0456361,31.5273628 85.4695286,31.7255584 C86.1358436,31.8186503 86.8149157,31.8767076 87.4890812,31.8777086 C93.7341893,31.8897204 96.5770677,31.8907214 102.822176,31.8757066 C105.30491,31.8867175 105.916272,30.9598026 106.062488,30.2400922 C106.166508,29.7255843 106.211648,29.1950607 106.21263,28.671544 C106.218518,26.1780828 105.474679,25.495409 102.79568,25.495409 C97.7772197,25.4974109 96.1619702,25.489403 91.1435096,25.5124257 C90.478176,25.5154287 90.2505102,25.3332489 90.2573794,24.7036274 C90.286819,21.9018619 90.2720992,6.44560587 90.259342,2.84605294 C90.2534541,1.28351063 89.6597567,0.351590782 88.5430168,0.155397129 C87.9885721,0.0573003028 87.417445,0.00424793757 86.8531871,0.000243985471 C84.0956833,-0.0147708349 83.3783398,0.658894105 83.3783398,3.22142345 C83.3783398,7.05921153 83.3704893,25.3682835 83.3852091,29.3592227 Z M188.695356,3.22142345 C188.695356,0.658894105 187.978013,-0.0147708349 185.220509,0.000243985471 C184.656251,0.00424793757 184.085124,0.0573003028 183.530679,0.155397129 C182.413939,0.351590782 181.820242,1.28351063 181.814354,2.84605294 C181.801597,6.44560587 181.786877,21.9018619 181.816317,24.7036274 C181.823186,25.3332489 181.594539,25.5154287 180.930187,25.5124257 C175.911726,25.489403 174.295495,25.4974109 169.278016,25.495409 C166.599018,25.495409 165.855179,26.1780828 165.861066,28.671544 C165.862048,29.1950607 165.907188,29.7255843 166.011208,30.2400922 C166.156443,30.9598026 166.768786,31.8867175 169.25152,31.8757066 C175.496628,31.8907214 178.339507,31.8897204 184.584615,31.8777086 C185.25878,31.8767076 185.937853,31.8186503 186.604168,31.7255584 C188.02806,31.5273628 188.682599,30.7946396 188.688487,29.3592227 C188.703207,25.3682835 188.695356,7.05921153 188.695356,3.22142345 Z M268.547169,29.3592227 C268.552076,30.7946396 269.207596,31.5273628 270.630507,31.7255584 C271.297804,31.8186503 271.976876,31.8767076 272.65006,31.8777086 C278.896149,31.8897204 281.739028,31.8907214 287.984136,31.8757066 C290.465889,31.8867175 291.078232,30.9598026 291.224448,30.2400922 C291.328468,29.7255843 291.372627,29.1950607 291.373609,28.671544 C291.380478,26.1780828 290.636639,25.495409 287.95764,25.495409 C282.93918,25.4974109 281.322949,25.489403 276.30547,25.5124257 C275.640136,25.5154287 275.41247,25.3332489 275.418358,24.7036274 C275.447798,21.9018619 275.434059,6.44560587 275.421302,2.84605294 C275.415414,1.28351063 274.821717,0.351590782 273.704977,0.155397129 C273.150532,0.0573003028 272.579405,0.00424793757 272.015147,0.000243985471 C269.257644,-0.0147708349 268.5403,0.658894105 268.5403,3.22142345 C268.539319,7.05921153 268.531468,25.3682835 268.547169,29.3592227 Z M373.856335,3.22142345 C373.856335,0.658894105 373.138992,-0.0147708349 370.381488,0.000243985471 C369.81723,0.00424793757 369.246103,0.0573003028 368.691658,0.155397129 C367.574918,0.351590782 366.981221,1.28351063 366.975333,2.84605294 C366.962576,6.44560587 366.948837,21.9018619 366.978277,24.7036274 C366.984165,25.3332489 366.756499,25.5154287 366.091165,25.5124257 C361.073686,25.489403 359.457455,25.4974109 354.438995,25.495409 C351.759997,25.495409 351.016157,26.1780828 351.023027,28.671544 C351.024008,29.1950607 351.068167,29.7255843 351.172187,30.2400922 C351.318403,30.9598026 351.930746,31.8867175 354.412499,31.8757066 C360.657607,31.8907214 363.500486,31.8897204 369.746575,31.8777086 C370.419759,31.8767076 371.098831,31.8186503 371.766128,31.7255584 C373.189039,31.5273628 373.844559,30.7946396 373.849466,29.3592227 C373.865167,25.3682835 373.857317,7.05921153 373.856335,3.22142345 Z M467.045242,29.3592227 C467.05113,30.7946396 467.705669,31.5273628 469.129561,31.7255584 C469.795876,31.8186503 470.474948,31.8767076 471.149114,31.8777086 C477.394222,31.8897204 480.2371,31.8907214 486.482209,31.8757066 C488.964943,31.8867175 489.577286,30.9598026 489.722521,30.2400922 C489.826541,29.7255843 489.871681,29.1950607 489.872662,28.671544 C489.87855,26.1780828 489.134711,25.495409 486.455713,25.495409 C481.437252,25.4974109 479.822003,25.489403 474.803542,25.5124257 C474.138209,25.5154287 473.910543,25.3332489 473.917412,24.7036274 C473.946852,21.9018619 473.932132,6.44560587 473.919375,2.84605294 C473.913487,1.28351063 473.319789,0.351590782 472.20305,0.155397129 C471.648605,0.0573003028 471.077478,0.00424793757 470.51322,0.000243985471 C467.755716,-0.0147708349 467.038373,0.658894105 467.038373,3.22142345 C467.038373,7.05921153 467.030522,25.3682835 467.045242,29.3592227 Z M572.355389,3.22142345 C572.355389,0.658894105 571.638046,-0.0147708349 568.880542,0.000243985471 C568.316284,0.00424793757 567.745157,0.0573003028 567.190712,0.155397129 C566.073972,0.351590782 565.480275,1.28351063 565.474387,2.84605294 C565.46163,6.44560587 565.44691,21.9018619 565.47635,24.7036274 C565.483219,25.3332489 565.254572,25.5154287 564.590219,25.5124257 C559.571759,25.489403 557.956509,25.4974109 552.938049,25.495409 C550.25905,25.495409 549.515211,26.1780828 549.521099,28.671544 C549.522081,29.1950607 549.567221,29.7255843 549.671241,30.2400922 C549.816476,30.9598026 550.428818,31.8867175 552.910572,31.8757066 C559.156661,31.8907214 561.99954,31.8897204 568.244648,31.8777086 C568.918813,31.8767076 569.597885,31.8186503 570.2642,31.7255584 C571.688093,31.5273628 572.342632,30.7946396 572.34852,29.3592227 C572.36324,25.3682835 572.355389,7.05921153 572.355389,3.22142345 Z" id="Fill-4"></path>
                </g>
            </g>
        </g>
    </g>
</svg>